<svg width="66" height="25" viewBox="0 0 66 25" fill="none" xmlns="http://www.w3.org/2000/svg">
<g clip-path="url(#clip0_2600_183)">
<rect width="65.625" height="24.1071" rx="4" fill="#E2E8F0"/>
<path d="M0 4C0 1.79087 1.79086 0 4 0H24.7642V24.1071H4C1.79086 24.1071 0 22.3163 0 20.1071V4Z" fill="#2050E0"/>
<path d="M12.3821 3.61621L12.6629 4.50092H13.5717L12.8365 5.04768L13.1173 5.93239L12.3821 5.38528L11.647 5.93239L11.9278 5.04768L11.1924 4.50092H12.1012L12.3821 3.61621Z" fill="#F8D12E"/>
<path d="M12.3821 18.1748L12.6629 19.0598H13.5717L12.8365 19.6065L13.1173 20.491L12.3821 19.9444L11.647 20.491L11.9278 19.6065L11.1924 19.0598H12.1012L12.3821 18.1748Z" fill="#F8D12E"/>
<path d="M16.1209 4.93994L16.4016 5.82464H17.3106L16.5752 6.37162L16.8561 7.25612L16.1209 6.70914L15.3856 7.25612L15.6664 6.37162L14.9313 5.82464H15.8402L16.1209 4.93994Z" fill="#F8D12E"/>
<path d="M19.1438 14.4644L19.4244 15.3494H20.3333L19.598 15.8961L19.879 16.7805L19.1438 16.234L18.4084 16.7805L18.6893 15.8961L17.954 15.3494H18.8629L19.1438 14.4644Z" fill="#F8D12E"/>
<path d="M19.8599 10.8955L20.1406 11.7801H21.0495L20.3143 12.3269L20.5951 13.2117L19.8599 12.6652L19.1247 13.2117L19.4057 12.3269L18.6702 11.7801H19.5789L19.8599 10.8955Z" fill="#F8D12E"/>
<path d="M4.90442 10.8955L5.18512 11.7801H6.0939L5.35857 12.3269L5.63961 13.2117L4.90442 12.6652L4.16904 13.2117L4.44993 12.3269L3.7146 11.7801H4.62353L4.90442 10.8955Z" fill="#F8D12E"/>
<path d="M5.5235 14.4644L5.8042 15.3494H6.71298L5.97784 15.8961L6.25849 16.7805L5.5235 16.234L4.78817 16.7805L5.06901 15.8961L4.33368 15.3494H5.24266L5.5235 14.4644Z" fill="#F8D12E"/>
<path d="M19.1438 7.23242L19.4244 8.11742H20.3333L19.598 8.66415L19.879 9.5486L19.1438 9.00207L18.4084 9.5486L18.6893 8.66415L17.954 8.11742H18.8629L19.1438 7.23242Z" fill="#F8D12E"/>
<path d="M5.83307 7.23242L6.11377 8.11742H7.02255L6.28741 8.66415L6.56806 9.5486L5.83307 9.00207L5.09774 9.5486L5.37858 8.66415L4.64325 8.11742H5.55223L5.83307 7.23242Z" fill="#F8D12E"/>
<path d="M16.8009 17.5132L17.0815 18.3978H17.9904L17.255 18.9448L17.536 19.8294L16.8009 19.2827L16.0654 19.8294L16.3465 18.9448L15.6111 18.3978H16.52L16.8009 17.5132Z" fill="#F8D12E"/>
<path d="M8.64317 4.93994L8.92381 5.82464H9.83279L9.09746 6.37162L9.3785 7.25612L8.64317 6.70914L7.90798 7.25612L8.18882 6.37162L7.45349 5.82464H8.36228L8.64317 4.93994Z" fill="#F8D12E"/>
<path d="M7.96326 17.5132L8.24408 18.3982H9.15298L8.41771 18.9447L8.69853 19.8294L7.96326 19.283L7.22813 19.8294L7.50895 18.9447L6.77368 18.3982H7.68239L7.96326 17.5132Z" fill="#F8D12E"/>
<path fill-rule="evenodd" clip-rule="evenodd" d="M29.0979 9.39915C29.0979 11.1011 30.4371 12.1689 32.0823 12.1689C33.1239 12.1689 33.9258 11.7595 34.521 11.1252V9.02985H31.8591V10.1779H33.1239V10.6275C32.9007 10.8041 32.5122 10.9486 32.0823 10.9486C31.1812 10.9486 30.5446 10.2742 30.5446 9.39915C30.5446 8.52407 31.1812 7.84969 32.0823 7.84969C32.6031 7.84969 33.0247 8.13068 33.2479 8.48393L34.4384 7.87378C34.0333 7.20743 33.2893 6.62939 32.0823 6.62939C30.4371 6.62939 29.0979 7.69716 29.0979 9.39915ZM35.356 12.0726V6.71771H37.6707C39.4068 6.71771 40.6551 7.72927 40.6551 9.39112C40.6551 11.053 39.4068 12.0726 37.679 12.0726H35.356ZM36.7779 10.8683H37.6707C38.638 10.8683 39.2001 10.1859 39.2001 9.39112C39.2001 8.56421 38.6876 7.92195 37.679 7.92195H36.7779V10.8683ZM41.3661 12.0726V6.71771H44.1272C45.3673 6.71771 46.0452 7.52856 46.0452 8.49998C46.0452 9.46338 45.3673 10.2582 44.1272 10.2582H42.788V12.0726H41.3661ZM44.5985 8.49196C44.5985 8.12266 44.3174 7.88181 43.9371 7.88181H42.788V9.08605H43.9371C44.3174 9.08605 44.5985 8.85323 44.5985 8.49196ZM49.757 12.0726L48.8311 10.2582H48.1036V12.0726H46.6817V6.71771H49.4429C50.6664 6.71771 51.3608 7.50448 51.3608 8.49998C51.3608 9.43127 50.7739 9.92902 50.2613 10.1056L51.3856 12.0726H49.757ZM49.9141 8.48393C49.9141 8.11463 49.6 7.88181 49.228 7.88181H48.1036V9.08605H49.228C49.6 9.08605 49.9141 8.85323 49.9141 8.48393Z" fill="#2B3945"/>
<path fill-rule="evenodd" clip-rule="evenodd" d="M14.0625 11.5329H14.3278C14.6208 11.5329 14.8585 11.7722 14.8585 12.0671V14.2039C14.8585 14.4988 14.6208 14.7381 14.3278 14.7381H10.4363C10.1433 14.7381 9.90564 14.4988 9.90564 14.2039V12.0671C9.90564 11.7722 10.1433 11.5329 10.4363 11.5329H10.7016V10.7316C10.7016 9.79904 11.4556 9.04004 12.3821 9.04004C13.3085 9.04004 14.0625 9.79904 14.0625 10.7316V11.5329ZM11.5861 10.7317V11.5329H13.178V10.7317C13.178 10.2898 12.821 9.93036 12.3821 9.93036C11.9432 9.93036 11.5861 10.2898 11.5861 10.7317Z" fill="white"/>
<path d="M32.2812 15.9786C32.2549 15.8957 32.2187 15.8195 32.1727 15.75C32.1267 15.6805 32.0675 15.6203 31.9952 15.5695C31.9229 15.5187 31.8374 15.4799 31.7388 15.4532C31.6434 15.4238 31.5317 15.4091 31.4035 15.4091C31.2161 15.4091 31.0533 15.4398 30.9153 15.5013C30.7805 15.5628 30.6703 15.6457 30.5849 15.75C30.4994 15.8516 30.4353 15.9679 30.3926 16.0989C30.3531 16.2299 30.3334 16.3636 30.3334 16.5C30.3334 16.6364 30.3531 16.7701 30.3926 16.9011C30.4353 17.0321 30.4994 17.1497 30.5849 17.254C30.6703 17.3556 30.7805 17.4372 30.9153 17.4987C31.0533 17.5602 31.2161 17.5909 31.4035 17.5909C31.5415 17.5909 31.6632 17.5722 31.7684 17.5348C31.8736 17.4947 31.964 17.4412 32.0396 17.3743C32.1152 17.3048 32.1744 17.2246 32.2171 17.1337C32.2598 17.0428 32.2878 16.9452 32.3009 16.8409H32.9025C32.8894 17.012 32.8434 17.1684 32.7645 17.3102C32.6888 17.4519 32.5853 17.5749 32.4538 17.6791C32.3223 17.7807 32.1678 17.8596 31.9903 17.9158C31.8127 17.9719 31.6171 18 31.4035 18C31.1405 18 30.9038 17.9612 30.6934 17.8837C30.4862 17.8035 30.3104 17.6952 30.1657 17.5588C30.0211 17.4225 29.9093 17.2634 29.8304 17.0816C29.7548 16.8997 29.717 16.7059 29.717 16.5C29.717 16.2968 29.7548 16.1043 29.8304 15.9225C29.9093 15.7406 30.0211 15.5816 30.1657 15.4452C30.3104 15.3088 30.4862 15.2005 30.6934 15.1203C30.9038 15.0401 31.1405 15 31.4035 15C31.6007 15 31.7864 15.0227 31.9607 15.0682C32.1349 15.111 32.2878 15.1751 32.4193 15.2607C32.5541 15.3436 32.6625 15.4452 32.7447 15.5655C32.8269 15.6858 32.8779 15.8235 32.8976 15.9786H32.2812Z" fill="#2B3945"/>
<path d="M35.0855 15.4091C34.8981 15.4091 34.7354 15.4398 34.5973 15.5013C34.4625 15.5628 34.3524 15.6457 34.2669 15.75C34.1814 15.8516 34.1173 15.9679 34.0746 16.0989C34.0351 16.2299 34.0154 16.3636 34.0154 16.5C34.0154 16.6364 34.0351 16.7701 34.0746 16.9011C34.1173 17.0321 34.1814 17.1497 34.2669 17.254C34.3524 17.3556 34.4625 17.4372 34.5973 17.4987C34.7354 17.5602 34.8981 17.5909 35.0855 17.5909C35.2729 17.5909 35.4339 17.5602 35.5687 17.4987C35.7068 17.4372 35.8186 17.3556 35.9041 17.254C35.9895 17.1497 36.052 17.0321 36.0914 16.9011C36.1342 16.7701 36.1555 16.6364 36.1555 16.5C36.1555 16.3636 36.1342 16.2299 36.0914 16.0989C36.052 15.9679 35.9895 15.8516 35.9041 15.75C35.8186 15.6457 35.7068 15.5628 35.5687 15.5013C35.4339 15.4398 35.2729 15.4091 35.0855 15.4091ZM35.0855 15C35.3485 15 35.5835 15.0401 35.7906 15.1203C36.001 15.2005 36.1786 15.3088 36.3232 15.4452C36.4679 15.5816 36.578 15.7406 36.6536 15.9225C36.7325 16.1043 36.7719 16.2968 36.7719 16.5C36.7719 16.7059 36.7325 16.8997 36.6536 17.0816C36.578 17.2634 36.4679 17.4225 36.3232 17.5588C36.1786 17.6952 36.001 17.8035 35.7906 17.8837C35.5835 17.9612 35.3485 18 35.0855 18C34.8225 18 34.5858 17.9612 34.3754 17.8837C34.1683 17.8035 33.9924 17.6952 33.8477 17.5588C33.7031 17.4225 33.5913 17.2634 33.5124 17.0816C33.4368 16.8997 33.399 16.7059 33.399 16.5C33.399 16.2968 33.4368 16.1043 33.5124 15.9225C33.5913 15.7406 33.7031 15.5816 33.8477 15.4452C33.9924 15.3088 34.1683 15.2005 34.3754 15.1203C34.5858 15.0401 34.8225 15 35.0855 15Z" fill="#2B3945"/>
<path d="M37.4464 15.0682H38.3143L39.2857 17.3102H39.2956L40.2424 15.0682H41.1004V17.9318H40.5136V15.7219H40.5037L39.5273 17.9318H39.0194L38.043 15.7219H38.0332V17.9318H37.4464V15.0682Z" fill="#2B3945"/>
<path d="M41.9617 15.0682H43.5151C43.7649 15.0682 43.9687 15.0976 44.1265 15.1564C44.2843 15.2152 44.406 15.2888 44.4914 15.377C44.5769 15.4652 44.6344 15.5615 44.664 15.6658C44.6969 15.7701 44.7133 15.8663 44.7133 15.9545C44.7133 16.0428 44.6969 16.139 44.664 16.2433C44.6344 16.3449 44.5769 16.4398 44.4914 16.5281C44.406 16.6163 44.2843 16.6898 44.1265 16.7487C43.9687 16.8048 43.7649 16.8329 43.5151 16.8329H42.5781V17.9318H41.9617V15.0682ZM42.5781 16.4238H43.4805C43.5496 16.4238 43.6203 16.4158 43.6926 16.3997C43.7649 16.3837 43.8306 16.3583 43.8898 16.3235C43.9523 16.2861 44.0016 16.238 44.0378 16.1791C44.0772 16.1176 44.0969 16.0414 44.0969 15.9505C44.0969 15.857 44.0805 15.7794 44.0476 15.7179C44.0147 15.6564 43.9704 15.6083 43.9145 15.5735C43.8586 15.5361 43.7945 15.5107 43.7222 15.4973C43.6498 15.484 43.5726 15.4773 43.4904 15.4773H42.5781V16.4238Z" fill="#2B3945"/>
<path d="M45.3741 15.0682H45.9905V17.4987H47.7805V17.9318H45.3741V15.0682Z" fill="#2B3945"/>
<path d="M48.3289 15.0682H48.9453V17.9318H48.3289V15.0682Z" fill="#2B3945"/>
<path d="M50.7665 15.0682H51.4224L52.7785 17.9318H52.1177L51.7873 17.1738H50.3819L50.0515 17.9318H49.4154L50.7665 15.0682ZM50.5496 16.7928H51.6246L51.0969 15.5615H51.0821L50.5496 16.7928Z" fill="#2B3945"/>
<path d="M53.2124 15.0682H53.8633L55.4709 17.1778H55.4807V15.0682H56.0675V17.9318H55.4166L53.814 15.8262H53.7992V17.9318H53.2124V15.0682Z" fill="#2B3945"/>
<path d="M56.5837 15.0682H59.434V15.5013H58.3146V17.9318H57.6982V15.5013H56.5837V15.0682Z" fill="#2B3945"/>
</g>
<defs>
<clipPath id="clip0_2600_183">
<rect width="65.625" height="24.1071" fill="white"/>
</clipPath>
</defs>
</svg>
