<svg width="75" height="30" viewBox="0 0 75 30" fill="none" xmlns="http://www.w3.org/2000/svg">
<g clip-path="url(#clip0_468_66)">
<mask id="mask0_468_66" style="mask-type:alpha" maskUnits="userSpaceOnUse" x="0" y="0" width="75" height="30">
<rect width="75" height="30" fill="#D9D9D9"/>
</mask>
<g mask="url(#mask0_468_66)">
<path d="M60.4025 15.6043C59.2752 15.6043 58.355 14.6841 58.355 13.5568C58.355 12.418 59.2752 11.5092 60.4025 11.5092C61.5298 11.5092 62.4501 12.4295 62.4501 13.5568C62.4616 14.6841 61.5413 15.6043 60.4025 15.6043ZM60.4025 9.55371C58.1939 9.55371 56.3994 11.3482 56.3994 13.5568C56.3994 15.7654 58.1939 17.5599 60.4025 17.5599C62.6111 17.5599 64.4056 15.7654 64.4056 13.5568C64.4056 11.3367 62.6111 9.55371 60.4025 9.55371Z" fill="#E2E4E9"/>
<path d="M42.0207 15.6043C40.8934 15.6043 39.9732 14.6841 39.9732 13.5568C39.9732 12.418 40.8934 11.5092 42.0207 11.5092C43.148 11.5092 44.0683 12.4295 44.0683 13.5568C44.0683 14.6841 43.148 15.6043 42.0207 15.6043ZM42.0207 9.55371C39.8121 9.55371 38.0176 11.3482 38.0176 13.5568C38.0176 15.7654 39.8121 17.5599 42.0207 17.5599C44.2293 17.5599 46.0238 15.7654 46.0238 13.5568C46.0123 11.3367 44.2293 9.55371 42.0207 9.55371Z" fill="#E2E4E9"/>
<path d="M56.1464 15.7194C55.8933 15.7884 55.5022 15.869 55.3642 15.869C54.674 15.869 54.536 15.6274 54.536 14.9832V11.2792H56.1694V9.73785H54.536V7.55225H52.6955L52.3044 9.73785H51.0275H50.924C49.8772 9.73785 49.0835 10.382 48.5774 11.3828L47.9447 9.73785H46.6218V17.4104H48.8764V14.0745C48.8764 12.395 49.8772 11.3137 51.0505 11.2792H52.2814V15.0983C52.2814 16.8927 53.2016 17.5599 54.697 17.5599C55.4677 17.5599 56.0659 17.3989 56.4225 17.2838L56.1464 15.7194Z" fill="#E2E4E9"/>
<path d="M67.1434 12.1532V17.4101H64.9463V9.72607H66.2806L66.7293 10.8994" fill="#E2E4E9"/>
<path d="M66.7178 10.9111C67.385 10.1404 68.2937 9.55371 69.3635 9.55371C71.1925 9.55371 71.9402 11.0146 71.9402 12.3605V17.4103H69.6856V12.4295C69.6856 11.7738 69.1334 11.4172 68.5468 11.4172C67.9141 11.4172 67.5115 11.7853 67.1549 12.1649" fill="#E2E4E9"/>
<path d="M29.2639 6.9541H31.7831L35.234 13.5224V6.9541H37.316V17.4104H35.0384L31.3459 10.175V17.4104H29.2639V6.9541Z" fill="#E2E4E9"/>
<path d="M71.9402 9.73779V9.88729H72.1472V10.612H72.3198V9.88729H72.5383V9.73779H71.9402Z" fill="#E2E4E9"/>
<path d="M73.1939 9.73779L73.0444 10.3129L72.8833 9.73779H72.6533V10.612H72.8028V9.92179L72.9869 10.612H73.1019L73.286 9.92179V10.612H73.424V9.73779H73.1939Z" fill="#E2E4E9"/>
<path d="M31.99 23.5758C31.99 22.9087 31.783 22.1264 31.0238 22.1264C30.6672 22.1264 30.3451 22.2875 30.0575 22.5866V24.7837C30.3221 25.0712 30.5636 25.2208 30.9317 25.2208C31.6104 25.2093 31.99 24.6226 31.99 23.5758ZM29.908 25.2093L29.7469 25.7039H29.3328V19.9639H30.0575V22.0574C30.2991 21.7929 30.6902 21.5168 31.1848 21.5168C32.2776 21.5168 32.7607 22.5981 32.7607 23.5758C32.7607 24.8872 32.0821 25.7729 31.0698 25.7729C30.5406 25.7729 30.1841 25.5544 29.908 25.2093Z" fill="#A0A0A0"/>
<path d="M33.2209 21.5977H33.9571C33.9571 21.5977 34.9924 25.0601 34.9924 25.0716L35.9586 21.5977H36.6718L35.2914 26.0148C35.0499 26.774 34.6473 27.1997 33.8536 27.1997C33.6925 27.1997 33.52 27.1766 33.3589 27.1306L33.4509 26.613C33.5545 26.6245 33.658 26.659 33.796 26.659C34.2217 26.659 34.5437 26.4635 34.7048 25.9573L33.2209 21.5977Z" fill="#A0A0A0"/>
<path d="M38.823 25.1058L39.1796 24.5996C39.5362 24.8642 40.0423 25.1516 40.8015 25.1516C41.5492 25.1516 41.9863 24.7952 41.9863 24.174C41.9863 23.4838 41.4572 23.2653 40.698 23.0007C39.8813 22.7131 39.1336 22.3448 39.1336 21.298C39.1336 20.3663 39.8698 19.8604 40.836 19.8604C41.5262 19.8604 41.9288 19.9754 42.3774 20.2284L42.0783 20.7806C41.7217 20.585 41.3421 20.47 40.8245 20.47C40.2148 20.47 39.8007 20.7116 39.8007 21.2867C39.8007 21.8964 40.2033 22.0918 41.0431 22.3909C41.8483 22.667 42.6995 23.0237 42.6995 24.151C42.6995 25.1518 41.9863 25.7499 40.813 25.7499C39.8583 25.7729 39.2026 25.4278 38.823 25.1058Z" fill="#A0A0A0"/>
<path d="M43.1135 21.5977H43.8497C43.8497 21.5977 44.885 25.0601 44.885 25.0716L45.8513 21.5977H46.5644L45.1841 26.0148C44.9425 26.774 44.5399 27.1997 43.7462 27.1997C43.5852 27.1997 43.4126 27.1766 43.2516 27.1306L43.3436 26.613C43.4471 26.6245 43.5506 26.659 43.6887 26.659C44.1143 26.659 44.4364 26.4635 44.5974 25.9573L43.1135 21.5977Z" fill="#A0A0A0"/>
<path d="M51.6602 21.5166C52.4884 21.5166 52.707 22.2183 52.707 22.897V25.7037H51.9823V22.897C51.9823 22.4944 51.9133 22.1263 51.4186 22.1263C51.085 22.1263 50.7284 22.3333 50.3719 22.6899V25.7037H49.6472V22.897C49.6472 22.4944 49.5781 22.1263 49.0835 22.1263C48.7384 22.1263 48.3703 22.3678 48.0367 22.7014V25.7037H47.312V21.5971H47.7376L47.9217 22.2643C48.3013 21.8502 48.7614 21.5166 49.3136 21.5166C49.8657 21.5166 50.0958 21.8157 50.2568 22.2298C50.6364 21.8042 51.1311 21.5166 51.6602 21.5166Z" fill="#A0A0A0"/>
<path d="M56.0545 23.5872C55.2378 23.7367 54.7087 23.9092 54.5016 24.1623C54.3981 24.2889 54.3751 24.4039 54.3751 24.5764C54.3751 24.979 54.5706 25.2091 55.0078 25.2091C55.4219 25.2091 55.79 25.002 56.0545 24.8065V23.5872ZM56.0545 22.9315C56.0545 22.3793 55.882 22.1033 55.2838 22.1033C54.8697 22.1033 54.5016 22.2643 54.1105 22.4599L53.846 21.9767C54.2716 21.7122 54.7317 21.5166 55.3298 21.5166C56.3536 21.5166 56.7562 22.0687 56.7562 22.989V25.7152H56.3421L56.1581 25.2206C55.8705 25.5082 55.4219 25.7728 54.8927 25.7728C54.168 25.7728 53.6389 25.3241 53.6389 24.6339C53.6389 24.1853 53.8114 23.8632 54.191 23.6332C54.5591 23.4031 55.2148 23.2421 56.0545 23.1155V22.9315Z" fill="#A0A0A0"/>
<path d="M57.9639 21.5971H58.3895L58.5736 22.2758C58.9532 21.8502 59.4363 21.5166 60.046 21.5166C60.9317 21.5166 61.1618 22.2183 61.1618 22.897V25.7037H60.4371V22.897C60.4371 22.4944 60.3336 22.1263 59.8044 22.1263C59.4248 22.1263 59.0222 22.3678 58.6886 22.7129V25.7037H57.9639V21.5971Z" fill="#A0A0A0"/>
<path d="M61.9326 22.1038V21.5976H62.5653L62.7493 20.4243H63.267V21.5976H64.1872V22.1038H63.267V24.6344C63.267 25.014 63.336 25.2211 63.7271 25.2211C63.8881 25.2211 64.0147 25.1866 64.1987 25.1406L64.3022 25.6352C64.1412 25.7042 63.8881 25.7617 63.6351 25.7617C62.8874 25.7617 62.5538 25.4051 62.5538 24.669V22.0923H61.9326V22.1038Z" fill="#A0A0A0"/>
<path d="M67.408 23.3686C67.385 22.5059 67.0974 22.0572 66.5222 22.0572C66.0046 22.0572 65.6595 22.4599 65.602 23.3686H67.408ZM66.6258 25.1976C67.0974 25.1976 67.3965 25.0135 67.7416 24.795L68.0406 25.2321C67.638 25.5542 67.2699 25.7728 66.5567 25.7728C65.4984 25.7728 64.8198 24.956 64.8198 23.6562C64.8198 22.3908 65.4754 21.5166 66.4992 21.5166C67.5575 21.5166 68.1212 22.3103 68.1212 23.6792V23.8517H65.5675C65.625 24.726 65.9356 25.1976 66.6258 25.1976Z" fill="#A0A0A0"/>
<path d="M68.7883 23.6792C68.7883 22.6209 69.26 21.5166 70.5253 21.5166C71.0544 21.5166 71.4455 21.6431 71.8136 21.9537L71.5031 22.4368C71.2385 22.2413 70.9279 22.1033 70.5368 22.1033C69.6741 22.1033 69.5475 22.989 69.5475 23.6907C69.5475 24.3694 69.6971 25.1976 70.5598 25.1976C70.9739 25.1976 71.2615 25.0365 71.5376 24.8065L71.8827 25.2321C71.5836 25.5312 71.1695 25.7842 70.5253 25.7842C69.2715 25.7727 68.7883 24.703 68.7883 23.6792Z" fill="#A0A0A0"/>
<path d="M13.6771 8.19612C11.4915 8.19612 9.43248 9.04742 7.87957 10.6003C6.32665 12.1532 5.47543 14.2122 5.47543 16.3978C5.47543 18.5834 6.32665 20.6425 7.87957 22.1954C9.43248 23.7483 11.4915 24.5995 13.6771 24.5995C15.8627 24.5995 17.9217 23.7483 19.4747 22.1954C21.0161 20.6425 21.8673 18.5834 21.8788 16.3978C21.8788 14.2122 21.0276 12.1532 19.4747 10.6003C17.9217 9.05892 15.8627 8.19612 13.6771 8.19612ZM13.6771 28.384C7.07435 28.384 1.69092 23.0006 1.69092 16.3978C1.69092 9.78362 7.07435 4.41162 13.6771 4.41162C20.2799 4.41162 25.6633 9.78362 25.6633 16.3978C25.6633 23.0006 20.2799 28.384 13.6771 28.384Z" fill="#FFC20E"/>
<path d="M27.6649 2.56006H26.7332V3.49176H27.6649V2.56006Z" fill="#FFC20E"/>
<path d="M27.6649 0.696289H26.7332V1.62799H27.6649V0.696289Z" fill="#FFC20E"/>
<path d="M24.9846 3.4917H24.1104V4.4004H24.9846V3.4917Z" fill="white"/>
<path d="M23.2592 5.28613H22.3735V6.16043H23.2592V5.28613Z" fill="#E2E4E9"/>
<path d="M25.9509 4.40039H24.9731V5.27459H25.9509V4.40039Z" fill="#E2E4E9"/>
<path d="M22.3735 4.44629H21.4993V5.28599H22.3735V4.44629Z" fill="#E2E4E9"/>
<path d="M24.9846 5.28613H24.1104V6.16043H24.9846V5.28613Z" fill="#E2E4E9"/>
<path d="M26.7332 1.63965H25.813V2.57145H26.7332V1.63965Z" fill="#E2E4E9"/>
<path d="M25.8129 2.56006H24.1104V3.49176H25.8129V2.56006Z" fill="#E2E4E9"/>
<path d="M24.1105 3.4917H23.2593V5.2862H24.1105V3.4917Z" fill="#E2E4E9"/>
<path d="M23.2593 6.16016V7.03436H22.3736V6.16016H20.9127V6.79276H20.1305V7.57496H21.0047V8.44926H20.1305V7.57496H19.1987V8.94386H18.3245V9.81806H17.7378V10.6924H17.0937C16.369 11.7621 14.5745 15.098 14.0223 16.4554C12.0553 13.7177 10.5254 12.6364 9.32911 12.2453C8.68494 12.0497 7.90273 12.7514 8.97252 13.8672C11.4457 16.5934 12.2279 18.8365 12.9756 20.6425C13.3782 21.5858 15.1611 21.7353 15.5177 20.7691C16.2769 18.733 17.3812 16.4324 18.6926 14.5574V13.5796H19.3943V12.7054H20.1305V11.6816H21.0047V10.7039H20.119V9.80655H21.0047V10.7039H21.8674V9.81806H22.5576V8.74826H23.3398V8.01216H24.0875V6.16016H23.2593Z" fill="#E2E4E9"/>
</g>
</g>
<defs>
<clipPath id="clip0_468_66">
<rect width="75" height="30" fill="white"/>
</clipPath>
</defs>
</svg>
