<svg width="82" height="21" viewBox="0 0 82 21" fill="none" xmlns="http://www.w3.org/2000/svg">
<path fill-rule="evenodd" clip-rule="evenodd" d="M7.07547 4.82422H12.6169C15.5921 4.82422 16.7121 6.39519 16.539 8.70316C16.253 12.5135 14.0444 14.6215 11.1149 14.6215H9.6359C9.23396 14.6215 8.96361 14.899 8.8549 15.6509L8.22695 20.0222C8.18547 20.3057 8.04243 20.4698 7.82787 20.4922H4.34626C4.0187 20.4922 3.90284 20.2311 3.98866 19.6656L6.11138 5.65223C6.19435 5.09127 6.48901 4.82422 7.07547 4.82422Z" fill="#009EE3"/>
<path fill-rule="evenodd" clip-rule="evenodd" d="M31.1333 4.56396C33.0029 4.56396 34.728 5.62176 34.4919 8.25804C34.2059 11.3911 32.5966 13.1248 30.0577 13.1322H27.8391C27.5201 13.1322 27.3656 13.4038 27.2827 13.9603L26.8536 16.8054C26.7892 17.2351 26.5775 17.447 26.2657 17.447H24.2016C23.8726 17.447 23.7582 17.2276 23.8311 16.7368L25.5347 5.33381C25.6191 4.77284 25.8208 4.56396 26.1884 4.56396H31.129H31.1333ZM27.7719 10.669H29.4526C30.504 10.6273 31.202 9.86785 31.2721 8.49824C31.315 7.6523 30.7672 7.04657 29.896 7.05105L28.314 7.05851L27.7719 10.669ZM40.1034 16.5742C40.2922 16.3951 40.4839 16.3026 40.4567 16.5234L40.3895 17.0516C40.3552 17.3276 40.4596 17.4738 40.7056 17.4738H42.5394C42.8484 17.4738 42.9986 17.344 43.0744 16.8457L44.2044 9.44861C44.2616 9.07712 44.1744 8.8951 43.904 8.8951H41.8871C41.7055 8.8951 41.6168 9.00103 41.5696 9.29047L41.4952 9.74551C41.4566 9.98273 41.3522 10.0245 41.2549 9.7858C40.913 8.94135 40.0405 8.56239 38.8232 8.59223C35.9953 8.6534 34.0886 10.8928 33.884 13.7633C33.7267 15.9834 35.2515 17.7275 37.2626 17.7275C38.7217 17.7275 39.3739 17.2799 40.1092 16.5787L40.1034 16.5742ZM38.5672 15.4358C37.3499 15.4358 36.5017 14.4228 36.6776 13.1815C36.8535 11.9402 37.9921 10.9271 39.2094 10.9271C40.4267 10.9271 41.2749 11.9402 41.099 13.1815C40.9231 14.4228 39.7859 15.4358 38.5672 15.4358ZM47.7933 8.87123H45.9338C45.5504 8.87123 45.3945 9.16962 45.5161 9.53664L47.8248 16.5876L45.5604 19.943C45.3702 20.2235 45.5175 20.4786 45.785 20.4786H47.8748C47.9966 20.4933 48.1199 20.4712 48.23 20.4148C48.34 20.3585 48.4323 20.2703 48.4956 20.1608L55.5962 9.53813C55.815 9.21139 55.712 8.86825 55.353 8.86825H53.3748C53.0357 8.86825 52.8999 9.00849 52.7053 9.3024L49.7444 13.7783L48.4213 9.29196C48.344 9.02042 48.1509 8.87123 47.7947 8.87123H47.7933Z" fill="#113984"/>
<path fill-rule="evenodd" clip-rule="evenodd" d="M62.9828 4.56402C64.8523 4.56402 66.5774 5.62183 66.3414 8.25813C66.0553 11.3913 64.4461 13.1249 61.9071 13.1324H59.69C59.371 13.1324 59.2165 13.4039 59.1335 13.9604L58.7044 16.8056C58.64 17.2353 58.4283 17.4471 58.1165 17.4471H56.0524C55.7234 17.4471 55.609 17.2278 55.682 16.737L57.3884 5.33089C57.4728 4.76991 57.6745 4.56104 58.0421 4.56104H62.9828V4.56402ZM59.6213 10.6691H61.302C62.3534 10.6274 63.0514 9.86796 63.1215 8.49833C63.1644 7.65239 62.6166 7.04665 61.7455 7.05113L60.1634 7.05859L59.6213 10.6691ZM71.9529 16.5743C72.1417 16.3953 72.3333 16.3028 72.3062 16.5236L72.2389 17.0518C72.2046 17.3278 72.309 17.474 72.555 17.474H74.3888C74.6978 17.474 74.848 17.3442 74.9238 16.8459L76.0538 9.44871C76.111 9.07721 76.0238 8.8952 75.7534 8.8952H73.7394C73.5578 8.8952 73.4691 9.00112 73.4219 9.29057L73.3475 9.74561C73.3089 9.98284 73.2045 10.0246 73.1072 9.7859C72.7653 8.94145 71.8928 8.56249 70.6755 8.59233C67.8476 8.6535 65.9408 10.8929 65.7363 13.7635C65.579 15.9835 67.1038 17.7276 69.1149 17.7276C70.5739 17.7276 71.2262 17.28 71.9614 16.5788L71.9529 16.5743ZM70.418 15.436C69.2007 15.436 68.3525 14.4229 68.5285 13.1816C68.7044 11.9403 69.843 10.9273 71.0603 10.9273C72.2776 10.9273 73.1258 11.9403 72.9498 13.1816C72.7739 14.4229 71.6353 15.436 70.418 15.436ZM78.876 17.4859H76.759C76.7222 17.4876 76.6855 17.4809 76.6514 17.4661C76.6174 17.4513 76.587 17.4288 76.5622 17.4003C76.5375 17.3718 76.5191 17.3379 76.5084 17.3012C76.4976 17.2644 76.4948 17.2256 76.5001 17.1875L78.3596 4.89971C78.3774 4.81585 78.4218 4.74072 78.4857 4.68655C78.5496 4.63237 78.6292 4.60233 78.7115 4.60132H80.8285C80.8654 4.5996 80.9021 4.60639 80.9361 4.62119C80.9701 4.63599 81.0006 4.65845 81.0253 4.68696C81.05 4.71546 81.0684 4.74931 81.0792 4.78609C81.0899 4.82287 81.0927 4.86167 81.0874 4.89971L79.2279 17.1875C79.2107 17.2719 79.1665 17.3478 79.1026 17.4025C79.0386 17.4573 78.9587 17.4878 78.876 17.4889V17.4859Z" fill="#009EE3"/>
<path fill-rule="evenodd" clip-rule="evenodd" d="M3.61011 0H9.15722C10.7192 0 12.573 0.0522187 13.8118 1.19357C14.64 1.95596 15.0748 3.16893 14.9747 4.47589C14.6342 8.89359 12.101 11.3688 8.70235 11.3688H5.96741C5.5011 11.3688 5.19356 11.691 5.06197 12.5623L4.29813 17.635C4.24807 17.9632 4.11218 18.1572 3.86901 18.1811H0.446047C0.0669888 18.1811 -0.0674708 17.8827 0.0312273 17.2232L2.49153 0.963807C2.59022 0.310327 2.93495 0 3.61011 0Z" fill="#113984"/>
<path fill-rule="evenodd" clip-rule="evenodd" d="M5.14142 12.0472L6.10981 5.6513C6.1942 5.09033 6.48886 4.82178 7.07533 4.82178H12.6167C13.5336 4.82178 14.276 4.97097 14.8568 5.24698C14.3003 9.17974 11.8615 11.3639 8.66881 11.3639H5.93816C5.57197 11.3654 5.30305 11.5564 5.14142 12.0472Z" fill="#172C70"/>
</svg>
