<svg width="57" height="22" viewBox="0 0 57 22" fill="none" xmlns="http://www.w3.org/2000/svg">
<g clip-path="url(#clip0_2600_174)">
<path d="M3.95313 8.35959C3.95313 7.80418 4.45312 7.59056 5.28125 7.59056C6.46875 7.59056 7.96875 7.91811 9.15625 8.502V5.15532C7.85938 4.68536 6.57812 4.50022 5.28125 4.50022C2.10937 4.50022 0 6.00979 0 8.53048C0 12.4611 5.9375 11.8344 5.9375 13.5292C5.9375 14.1842 5.3125 14.3979 4.4375 14.3979C3.14062 14.3979 1.48438 13.9137 0.171875 13.2586V16.648C1.625 17.2176 3.09375 17.4597 4.4375 17.4597C7.6875 17.4597 9.92188 15.9929 9.92188 13.4437C9.90625 9.19982 3.95313 9.95461 3.95313 8.35959ZM14.5156 1.65198L10.7031 2.39252L10.6875 13.7997C10.6875 15.9074 12.4219 17.4597 14.7344 17.4597C16.0156 17.4597 16.9531 17.2461 17.4688 16.9898V14.0988C16.9688 14.2839 14.5 14.939 14.5 12.8313V7.7757H17.4688V4.74232H14.5L14.5156 1.65198ZM22.3281 5.79617L22.0781 4.74232H18.7031V17.2034H22.6094V8.75834C23.5312 7.66177 25.0938 7.86115 25.5781 8.0178V4.74232C25.0781 4.57143 23.25 4.25812 22.3281 5.79617ZM26.5312 4.74232H30.4531V17.2034H26.5312V4.74232ZM26.5312 3.65999L30.4531 2.89097V0L26.5312 0.754784V3.65999ZM38.6094 4.50022C37.0781 4.50022 36.0938 5.15532 35.5469 5.61104L35.3438 4.72808H31.9062V21.3333L35.8125 20.5785L35.8281 16.5483C36.3906 16.9186 37.2188 17.4455 38.5938 17.4455C41.3906 17.4455 43.9375 15.3947 43.9375 10.8803C43.9219 6.75033 41.3438 4.50022 38.6094 4.50022ZM37.6719 14.3124C36.75 14.3124 36.2031 14.0134 35.8281 13.6431L35.8125 8.35959C36.2188 7.9466 36.7812 7.66177 37.6719 7.66177C39.0938 7.66177 40.0781 9.11438 40.0781 10.98C40.0781 12.8883 39.1094 14.3124 37.6719 14.3124ZM56.25 11.0227C56.25 7.37695 54.3125 4.50022 50.6094 4.50022C46.8906 4.50022 44.6406 7.37695 44.6406 10.9942C44.6406 15.2808 47.2969 17.4455 51.1094 17.4455C52.9688 17.4455 54.375 17.061 55.4375 16.5198V13.6716C54.375 14.1558 53.1562 14.4548 51.6094 14.4548C50.0938 14.4548 48.75 13.9706 48.5781 12.2902H56.2188C56.2188 12.105 56.25 11.3645 56.25 11.0227ZM48.5312 9.66978C48.5312 8.06052 49.6094 7.39119 50.5938 7.39119C51.5469 7.39119 52.5625 8.06052 52.5625 9.66978H48.5312Z" fill="#6772E5"/>
</g>
<defs>
<clipPath id="clip0_2600_174">
<rect width="56.25" height="21.4286" fill="white"/>
</clipPath>
</defs>
</svg>
