<svg width="16" height="18" viewBox="0 0 16 18" fill="none" xmlns="http://www.w3.org/2000/svg">
<path d="M8.57143 1.125C9.51786 1.125 10.2857 1.88051 10.2857 2.8125V15.1875C10.2857 16.1191 9.51786 16.875 8.57143 16.875H7.42857C6.48214 16.875 5.71429 16.1191 5.71429 15.1875V2.8125C5.71429 1.88051 6.48214 1.125 7.42857 1.125H8.57143ZM8.57143 2.25H7.42857C7.11429 2.25 6.85714 2.50172 6.85714 2.8125V15.1875C6.85714 15.4969 7.11429 15.75 7.42857 15.75H8.57143C8.88571 15.75 9.14286 15.4969 9.14286 15.1875V2.8125C9.14286 2.50172 8.88571 2.25 8.57143 2.25ZM2.85714 7.875C3.80357 7.875 4.57143 8.63086 4.57143 9.5625V15.1875C4.57143 16.1191 3.80357 16.875 2.85714 16.875H1.71429C0.7675 16.875 0 16.1191 0 15.1875V9.5625C0 8.63086 0.7675 7.875 1.71429 7.875H2.85714ZM2.85714 9H1.71429C1.39857 9 1.14286 9.25313 1.14286 9.5625V15.1875C1.14286 15.4969 1.39857 15.75 1.71429 15.75H2.85714C3.17286 15.75 3.42857 15.4969 3.42857 15.1875V9.5625C3.42857 9.25313 3.17286 9 2.85714 9ZM11.4286 5.0625C11.4286 4.13086 12.1964 3.375 13.1429 3.375H14.2857C15.2321 3.375 16 4.13086 16 5.0625V15.1875C16 16.1191 15.2321 16.875 14.2857 16.875H13.1429C12.1964 16.875 11.4286 16.1191 11.4286 15.1875V5.0625ZM12.5714 5.0625V15.1875C12.5714 15.4969 12.8286 15.75 13.1429 15.75H14.2857C14.6 15.75 14.8571 15.4969 14.8571 15.1875V5.0625C14.8571 4.75312 14.6 4.5 14.2857 4.5H13.1429C12.8286 4.5 12.5714 4.75312 12.5714 5.0625Z" fill="#838696"/>
</svg>
