<svg width="298" height="262" viewBox="0 0 298 262" fill="none" xmlns="http://www.w3.org/2000/svg">
<g clip-path="url(#clip0_144_4202)">
<path d="M214.77 143.835C208.991 143.835 204.312 138.617 204.312 138.617C204.312 138.617 208.998 133.399 214.77 133.399C220.543 133.399 225.229 138.617 225.229 138.617C225.229 138.617 220.543 143.835 214.77 143.835Z" stroke="black" stroke-width="0.5" stroke-miterlimit="10"/>
<path d="M214.733 143.85C212.719 143.85 211.087 141.51 211.087 138.624C211.087 135.739 212.719 133.399 214.733 133.399C216.747 133.399 218.379 135.739 218.379 138.624C218.379 141.51 216.747 143.85 214.733 143.85Z" fill="black"/>
<path d="M111.455 115.691L80.834 115.639L80.4521 99.3359L111.073 99.3883L111.455 115.691Z" fill="#00E5FF"/>
<path d="M111.073 99.3882L95.6801 107.267L80.5195 99.6124" stroke="#1D2038" stroke-width="0.5" stroke-miterlimit="10"/>
<path d="M108.13 110.212L102.126 110.317" stroke="#1D2038" stroke-width="0.5" stroke-miterlimit="10"/>
<path d="M108.205 111.752L102.313 111.797" stroke="#1D2038" stroke-width="0.5" stroke-miterlimit="10"/>
<path d="M234.603 96.8913C230.897 92.7427 222.647 92.653 217.601 92.5633C210.825 92.4362 201.998 92.1447 194.452 94.0583C190.933 94.9553 187.691 96.3232 185.064 98.4237C182.368 100.576 180.557 104.127 181.298 107.498C181.964 110.518 184.517 112.836 187.369 114.039C190.222 115.243 193.366 115.497 196.451 115.743C205.644 116.461 215.003 117.104 224.024 115.407C224.054 116.618 224.107 117.836 224.391 119.01C225.349 122.949 229.138 126.022 233.195 126.156C230.321 124.818 228.599 121.716 228.09 118.591C227.872 117.246 227.85 115.878 227.932 114.517C230.717 113.74 233.465 112.552 235.254 110.316C238.114 106.743 237.628 100.27 234.603 96.8913Z" fill="#EDBF34"/>
<path d="M191.18 108.806C192.079 106.115 194.137 103.828 196.72 102.647C197.589 102.251 198.562 101.974 199.49 102.169C201.295 102.557 202.283 104.576 202.395 106.414C202.433 107.08 202.388 107.775 202.051 108.351C201.714 108.926 201.018 109.33 200.374 109.158C199.708 108.978 199.311 108.238 199.341 107.543C199.371 106.855 199.745 106.228 200.187 105.689C201.145 104.523 202.44 103.664 203.848 103.118C205.697 102.4 207.935 102.258 209.552 103.41C211.17 104.553 211.641 107.267 210.099 108.515C209.785 108.769 209.38 108.949 208.984 108.874C208.048 108.687 207.965 107.356 208.347 106.482C209.246 104.419 211.402 103.088 213.633 102.737C214.673 102.572 215.826 102.625 216.68 103.238C218.297 104.404 218.08 106.945 217.062 108.657C216.874 108.978 216.642 109.3 216.291 109.427C215.639 109.674 214.913 109.046 214.816 108.358C214.726 107.67 215.078 106.998 215.497 106.437C216.627 104.949 218.319 103.895 220.154 103.537C221.606 103.253 223.365 103.537 224.114 104.822C224.855 106.093 224.264 107.745 223.388 108.934C223.246 109.128 223.058 109.337 222.811 109.33C222.594 109.322 222.43 109.135 222.287 108.971C220.715 107.02 221.95 105.689 223.657 104.292C224.788 103.365 226.398 103.058 227.79 103.499" stroke="#222221" stroke-width="0.5" stroke-miterlimit="10"/>
<mask id="mask0_144_4202" style="mask-type:luminance" maskUnits="userSpaceOnUse" x="79" y="15" width="68" height="64">
<path d="M79.8532 78.0093L146.672 78.0093V15.8319L79.8532 15.8319L79.8532 78.0093Z" fill="white"/>
</mask>
<g mask="url(#mask0_144_4202)">
<path d="M64.5502 87.2412L157.28 87.2412V11.7359L64.5502 11.7359L64.5502 87.2412Z" fill="#E0F7FA"/>
<path d="M106.446 32.3447C106.513 34.2583 106.746 36.299 107.082 38.1827C107.397 39.9692 107.127 41.7931 106.97 43.6095C106.865 44.7831 106.738 45.9642 106.386 47.0929C105.87 48.7673 104.821 50.0082 103.504 51.1369C102.845 51.6975 101.505 52.2656 101.542 53.2299C101.632 55.3304 102.957 57.244 104.694 58.4251C106.431 59.6061 108.535 60.1443 110.624 60.406C112.098 60.5854 113.596 60.6377 115.071 60.4508C116.051 60.3312 117.032 60.0995 117.901 59.6211C118.687 59.1875 119.353 58.5521 119.93 57.8644C120.656 56.9973 121.277 55.9882 121.427 54.867C121.607 53.4915 120.985 52.5422 119.982 51.7125C119.054 50.95 118.56 49.8363 118.2 48.7075C118.043 48.2216 117.609 43.318 118.043 43.3031C124.189 43.0713 123.613 33.4659 123.321 29.3846C123.231 28.1213 123.081 26.843 122.565 25.6844C120.903 21.9693 115.131 22.1263 111.881 23.412C108.183 24.8771 106.296 28.4651 106.439 32.3297L106.446 32.3447Z" fill="white" stroke="black" stroke-width="0.5" stroke-miterlimit="10"/>
<path d="M116.523 37.4727C116.987 38.265 117.886 38.7808 118.799 38.7808C119.712 38.7808 120.618 38.2725 121.082 37.4876L116.516 37.4727H116.523Z" fill="white" stroke="black" stroke-width="0.5" stroke-miterlimit="10"/>
<path d="M124.826 22.784C125.192 23.5913 125.275 24.5033 124.878 25.2807C124.369 26.2749 123.238 26.7907 122.138 26.9775C121.037 27.1644 119.907 27.0971 118.806 27.2765C117.668 27.4634 116.875 28.1287 115.834 28.4725C114.958 28.7641 113.962 28.4501 113.056 28.3828C109.366 28.1137 107.419 33.0024 107.322 36.0298C107.299 36.7997 107.816 37.6594 107.636 38.3994C107.546 38.7731 107.149 39.102 106.79 38.9675C106.58 38.8927 106.438 38.6909 106.333 38.4966C105.57 37.1436 105.39 35.5439 104.859 34.0863C104.372 32.7408 103.586 31.5074 103.271 30.1096C102.762 27.8745 103.541 25.4676 104.986 23.6885C106.206 22.1786 108.168 20.6312 110.062 20.0706C112.443 19.3679 114.876 19.8837 117.279 19.5548C117.781 19.4875 118.275 19.3455 118.776 19.3605C119.293 19.3679 119.787 19.5399 120.274 19.6968C121.576 20.1379 122.931 20.6013 123.935 21.5357C124.301 21.8796 124.608 22.3056 124.818 22.7691L124.826 22.784Z" fill="black"/>
<path d="M145.354 89.2296C144.261 91.6814 143.086 94.0659 141.439 96.2262C139.095 99.2984 137.605 102.872 133.945 104.695C130.905 106.228 127.401 106.811 124.077 107.349C117.459 108.411 110.526 109.45 104.17 107.319C99.663 105.809 95.8148 102.812 92.1913 99.7395C90.5442 98.3416 88.8971 96.899 87.5046 95.2395C86.2918 93.7968 86.1869 92.5933 85.4682 91.0684C84.0907 88.1457 80.5944 87.5327 78.4981 85.2529C78.1388 84.8567 77.8168 84.4082 77.697 83.8924C77.5473 83.2944 77.6671 82.659 77.7944 82.061C79.0896 75.9689 81.2682 70.0711 84.2404 64.5993C87.2276 59.0902 90.3046 55.8087 96.279 53.5811C98.9967 52.5645 102.081 51.8619 104.462 50.165C104.245 50.322 105.196 52.9159 105.345 53.1775C106.004 54.3884 106.97 55.4275 108.153 56.1376C110.219 57.3784 112.884 57.5803 115.115 56.6534C117.204 55.7863 119.675 53.4615 119.443 50.9873C120.783 51.9889 122.46 52.5122 124.032 53.0354C125.687 53.5886 127.364 54.067 129.033 54.5753C134.948 56.3843 139.193 59.023 142.008 64.6218C143.34 67.2679 144.673 69.9216 145.609 72.7247C146.327 74.8775 146.799 77.0976 147.376 79.2878C147.683 80.4389 148.027 81.6275 147.885 82.8085C147.78 83.698 147.413 84.5278 147.054 85.35C146.477 86.6507 145.931 87.9588 145.354 89.2445V89.2296Z" fill="#27007F"/>
<path d="M108.011 35.484C106.895 35.7905 105.592 35.1177 105.211 34.0339C104.357 31.6419 108.19 29.8703 108.932 32.1726" fill="white"/>
<path d="M108.011 35.484C106.895 35.7905 105.592 35.1177 105.211 34.0339C104.357 31.6419 108.19 29.8703 108.932 32.1726" stroke="black" stroke-width="0.5" stroke-miterlimit="10"/>
<path d="M113.378 57.5356C114 64.0165 115.033 75.9766 115.018 82.4873" stroke="#1E2652" stroke-width="0.5" stroke-miterlimit="10"/>
<mask id="mask1_144_4202" style="mask-type:luminance" maskUnits="userSpaceOnUse" x="99" y="22" width="26" height="44">
<path d="M106.446 32.3444C106.513 34.258 106.745 36.2987 107.082 38.1824C107.397 39.9689 107.127 41.7928 106.97 43.6092C106.865 44.7828 106.738 45.9639 106.386 47.0926C105.869 48.767 104.821 50.0079 103.504 51.1366C102.47 52.0187 101.288 52.7512 100.442 53.8201C95.7773 59.6581 107.509 65.0477 111.919 65.3392C115.34 65.5634 118.814 64.5917 121.636 62.6556C123.291 61.5269 124.092 59.4937 124.159 57.4605C124.197 56.3766 124.017 55.2853 123.643 54.3284C123.298 53.4464 122.729 52.5718 121.831 52.2803C121.412 52.1457 120.955 52.1457 120.543 52.0112C119.3 51.6001 118.582 49.8733 118.215 48.7222C118.058 48.2363 117.623 43.3327 118.058 43.3177C124.204 43.086 123.628 33.4806 123.336 29.3992C123.246 28.1359 123.096 26.8577 122.58 25.6991C120.918 21.984 115.145 22.1409 111.896 23.4267C108.198 24.8918 106.311 28.4798 106.453 32.3444H106.446Z" fill="white"/>
</mask>
<g mask="url(#mask1_144_4202)">
<path d="M114.876 42.6523C115.22 42.4804 115.834 42.7794 116.126 42.884C116.823 43.1531 117.564 43.2877 118.312 43.2802C118.44 43.2802 118.574 43.2802 118.694 43.3176C118.814 43.3549 118.926 43.4596 118.941 43.5867C118.956 43.7287 118.844 43.8558 118.732 43.953C118.387 44.2594 118.065 44.4015 117.631 44.4837C117.242 44.5584 116.86 44.7378 116.456 44.7453C115.774 44.7528 114.928 44.4613 114.681 43.7661C114.592 43.5044 114.562 42.9214 114.794 42.7121C114.824 42.6897 114.854 42.6672 114.883 42.6523H114.876Z" fill="black"/>
</g>
<path d="M106.933 32.427C107.337 32.2924 107.809 32.5466 107.996 32.9353C108.183 33.324 108.13 33.7875 107.966 34.1762" fill="white"/>
<path d="M106.933 32.427C107.337 32.2924 107.809 32.5466 107.996 32.9353C108.183 33.324 108.13 33.7875 107.966 34.1762" stroke="black" stroke-width="0.5" stroke-miterlimit="10"/>
<path d="M96.8854 69.6377C93.8833 74.5488 91.1581 79.6318 88.7324 84.8569" stroke="#1E2652" stroke-width="0.5" stroke-miterlimit="10"/>
<path d="M131.466 70.0708C132.417 73.4645 133.36 76.8581 134.311 80.2518" stroke="#1E2652" stroke-width="0.5" stroke-miterlimit="10"/>
<path d="M91.5995 56.9521C90.0422 58.3051 88.7246 59.9272 87.7139 61.7287" stroke="#1E2652" stroke-width="0.5" stroke-miterlimit="10"/>
<path d="M86.5389 63.3809C86.2918 63.8294 86.0522 64.2853 85.8052 64.7338" stroke="#1E2652" stroke-width="0.5" stroke-miterlimit="10"/>
<path d="M108.258 42.5254C108.325 44.1101 108.115 45.7023 107.636 47.2197" stroke="#1E2652" stroke-width="0.5" stroke-miterlimit="10"/>
<path d="M107.217 48.5728L106.902 49.2007" stroke="#1E2652" stroke-width="0.5" stroke-miterlimit="10"/>
<path d="M96.8627 69.832C96.3611 70.4824 95.9568 71.2074 95.6723 71.9699C95.5525 72.2988 95.4477 72.6426 95.4702 72.994C95.5001 73.4724 95.7547 73.9209 95.7622 74.3993C95.7696 75.1767 95.1333 75.8494 95.1408 76.6268C95.1408 76.9856 95.283 77.322 95.3654 77.6733C95.6124 78.7647 95.2081 79.9757 94.3547 80.7007C93.8456 81.1343 93.1493 81.4034 92.4905 81.2688C91.8316 81.1343 91.2627 80.5213 91.3001 79.8561C91.3151 79.5645 91.4349 79.2954 91.5546 79.0338C92.2434 77.5014 92.9322 75.9541 93.8605 74.5488C94.5568 73.4948 95.3878 72.5081 95.7622 71.3046" fill="black"/>
</g>
<path d="M146.671 15.832L79.8153 15.832V13.3952C79.8153 12.0721 80.8934 10.9957 82.2185 10.9957L144.261 10.9957C145.586 10.9957 146.664 12.0721 146.664 13.3952V15.832H146.671Z" fill="#00E5FF"/>
<mask id="mask2_144_4202" style="mask-type:luminance" maskUnits="userSpaceOnUse" x="198" y="0" width="77" height="79">
<path d="M274.784 0H198.958V78.1291H274.784V0Z" fill="white"/>
</mask>
<g mask="url(#mask2_144_4202)">
<path d="M274.784 23.2773H198.958V78.1366H274.784V23.2773Z" fill="#E0F7FA"/>
<path d="M274.948 23.3223L198.801 23.3223V20.2127C198.801 18.8896 199.879 17.8132 201.204 17.8132L272.538 17.8132C273.863 17.8132 274.941 18.8896 274.941 20.2127V23.3223H274.948Z" fill="#00E5FF"/>
<path d="M209.14 57.1091C208.841 58.6415 208.601 60.1888 208.474 61.7511C208.19 65.1597 208.347 68.8225 209.545 72.0592C210.473 74.5708 213.191 77.1347 216.088 76.0209C217.99 75.2884 218.978 73.2178 219.659 71.3042C222.025 64.6365 225.596 54.5153 221.052 47.9821C219.247 45.3883 214.374 44.0278 212.24 46.9206C211.491 47.9298 211.139 49.1706 210.802 50.3741C210.181 52.6017 209.597 54.8367 209.148 57.1016L209.14 57.1091Z" fill="white" stroke="#222221" stroke-width="0.5" stroke-miterlimit="10"/>
<path d="M220.879 39.4681C220.842 39.2513 220.805 39.0271 220.775 38.8103C220.453 36.6127 220.153 33.8693 222.549 33.1741C224.129 32.7182 226.891 32.92 227.947 31.4549C228.284 30.984 228.381 30.386 228.463 29.8179C228.591 29.0031 228.71 28.1808 228.838 27.366C224.248 28.1509 222.332 24.0546 221.755 20.2124C221.164 16.2955 221.284 11.4143 224.743 8.79058C226.944 7.11617 230.028 6.71999 232.611 7.69922C235.194 8.67845 237.223 10.9658 237.957 13.6344C238.496 15.6003 237.859 16.3254 237.739 18.3511C237.605 20.6535 237.814 24.6302 237.687 26.9325C237.597 28.4798 237.732 30.2813 238.57 31.6343C238.952 32.2472 239.424 32.7705 240.075 33.1069C240.547 33.3461 241.782 33.219 242.074 33.5404C243.751 35.3867 245.323 37.3377 247.15 39.0271C242.845 40.8286 238.346 42.1218 233.742 42.9066C230.515 43.4598 223.994 45.3659 221.77 41.9349C221.291 41.1949 221.044 40.3352 220.879 39.4606V39.4681Z" fill="white" stroke="black" stroke-width="0.5" stroke-miterlimit="10"/>
<path d="M259.024 50.3143C258.56 44.6333 256.015 38.8252 250.834 35.9847C248.925 34.9381 246.836 34.3177 244.725 33.8169C243.639 33.5627 242.546 33.331 241.461 33.0918C240.24 32.8152 239.993 33.1068 239.17 34.0187C237.455 35.9174 234.753 36.7546 232.207 36.493C230.597 36.3285 229.048 35.7455 227.67 34.9157C226.652 34.3028 226.09 33.7646 225.634 32.6209C225.596 32.5312 225.559 32.434 225.469 32.3966C225.409 32.3667 225.342 32.3742 225.282 32.3817C220.558 32.7704 216.201 34.1009 213.341 38.115C210.87 41.5835 209.919 45.8965 209.275 50.105C208.879 52.6988 208.572 55.3076 208.354 57.9239C211.589 58.1706 214.83 58.2453 218.072 58.1631C218.214 62.9546 218.664 67.7237 219.098 72.5152C219.39 75.8042 219.899 79.0409 220.633 82.2402C228.104 84.7219 236.632 84.1164 244.642 83.3988C246.926 83.1895 249.299 82.9578 251.276 81.7991C256.838 78.5251 257.07 68.8524 257.864 63.2162C258.478 58.8583 259.384 54.7844 259.024 50.3367V50.3143Z" fill="#651FFF"/>
<path d="M225.656 83.7649C225.244 83.5556 224.922 83.1819 224.675 82.4792C224.263 81.2982 224.503 79.8928 225.169 78.8538C226.03 77.5083 227.61 76.4693 229.167 76.1479C230.777 75.8115 232.334 75.2359 233.974 74.907C235.149 74.6678 236.309 74.3464 237.47 74.0175C239.918 73.3298 242.366 72.6495 244.814 71.9618C245.406 71.7974 246.035 71.6703 246.611 71.461C247.165 71.2592 247.135 71.3115 247.188 70.7808C247.24 70.1828 247.038 69.5399 246.993 68.9494C246.933 68.0823 246.873 67.2152 246.821 66.3406C246.708 64.6513 246.611 62.9619 246.521 61.2725C246.342 57.9686 246.521 54.7319 247.113 51.4653C248.101 45.9786 254.674 42.8316 258.388 48.0716C260.978 51.7194 261.51 56.6679 261.689 61.0034C261.891 65.7725 261.614 70.5565 259.78 75.0266C255.206 86.1868 237.245 85.0133 227.498 84.1013C226.726 84.0266 226.135 83.9966 225.663 83.7649H225.656Z" fill="white" stroke="black" stroke-width="0.5" stroke-miterlimit="10"/>
<path d="M238.174 23.9871C239.544 24.017 241.288 23.3144 242.224 22.7313C241.565 21.6325 241.685 20.2646 241.7 18.9863C241.73 16.1085 241.041 13.1932 239.484 10.7713C237.927 8.34937 235.456 6.47314 232.641 5.87514C229.961 5.30703 226.682 5.91251 224.383 7.40004C223.425 8.02047 219.465 11.9897 220.243 12.8493C220.505 13.1409 220.91 13.2605 221.291 13.3576C224.069 14.0603 226.951 14.1425 229.751 14.7929C229.879 14.8228 230.021 14.8527 230.133 14.7854C230.201 14.7405 230.246 14.6658 230.29 14.5985C230.642 13.9781 231.002 12.3261 231.803 12.8194C232.177 13.0512 232.327 14.7704 232.312 15.2115C232.282 16.3103 231.982 16.9232 233.068 17.6334C233.921 18.194 234.693 18.8667 235.03 19.8385C235.509 21.2214 235.726 23.2097 237.268 23.8152C237.538 23.9199 237.852 23.9722 238.189 23.9797L238.174 23.9871Z" fill="black"/>
<path d="M227.356 21.6548C226.966 22.9106 225.432 23.673 224.196 23.2245" stroke="#222221" stroke-width="0.5" stroke-miterlimit="10"/>
<path d="M233.869 21.2887C236.25 21.8867 237.732 19.3826 237.006 17.7456C236.002 15.4731 232.806 15.8469 232.222 18.2389" fill="white"/>
<path d="M233.869 21.2887C236.25 21.8867 237.732 19.3826 237.006 17.7456C236.002 15.4731 232.806 15.8469 232.222 18.2389" stroke="black" stroke-width="0.5" stroke-miterlimit="10"/>
<path d="M235.089 17.5586C234.64 17.439 234.123 17.5063 233.749 17.753C233.375 17.9922 233.15 18.3958 233.172 18.792" stroke="#222221" stroke-width="0.5" stroke-miterlimit="10"/>
<path d="M245.114 46.6068C245.758 49.1782 245.9 55.1283 245.922 59.6507C247.607 59.5012 249.284 59.2695 250.953 58.9406C254.569 58.2305 258.081 57.1167 261.487 55.7338C260.476 49.2828 258.612 43.1085 254 38.459" fill="#651FFF"/>
<path d="M240.442 85.9925H208.414L201.758 69.5923C201.541 69.0616 201.938 68.4785 202.515 68.4785H232.791C233.12 68.4785 233.42 68.6803 233.547 68.9868L240.45 86L240.442 85.9925Z" fill="black"/>
<path d="M217.728 77.2395C218.065 78.129 219.218 78.8466 220.296 78.8466C221.374 78.8466 221.965 78.129 221.628 77.2395C221.291 76.3499 220.139 75.6323 219.06 75.6323C217.982 75.6323 217.391 76.3499 217.728 77.2395Z" stroke="white" stroke-width="0.5" stroke-miterlimit="10"/>
<path d="M228.591 27.2762C228.651 27.8892 228.591 28.5021 228.546 29.1151C228.583 29.1076 228.628 29.0926 228.666 29.0852C229.923 28.6965 230.964 27.6724 231.496 26.4614C230.612 26.9548 229.609 27.2239 228.598 27.2762H228.591Z" fill="black"/>
<path d="M235.164 20.9151C235.573 20.9151 235.905 20.5838 235.905 20.1751C235.905 19.7664 235.573 19.4351 235.164 19.4351C234.755 19.4351 234.423 19.7664 234.423 20.1751C234.423 20.5838 234.755 20.9151 235.164 20.9151Z" fill="black"/>
<path d="M261.487 57.3181C261.435 57.0117 261.398 56.7052 261.383 56.3987C261.345 56.1819 261.308 55.9652 261.248 55.7559C261.023 55.9353 260.776 56.0997 260.507 56.2193C260.215 56.3539 259.915 56.4436 259.608 56.5333C258.702 56.8098 257.796 57.0789 256.891 57.3555C256.539 57.4602 256.202 57.5798 255.88 57.7666C256.179 57.6844 256.494 57.6695 256.808 57.7218C257.235 57.7891 257.647 57.946 258.081 57.9909C258.455 58.0283 258.83 57.9759 259.211 58.0058C259.998 58.0656 260.829 58.4319 261.532 58.1254C261.517 57.8563 261.502 57.5872 261.48 57.3256L261.487 57.3181Z" fill="black"/>
<path d="M259.144 74.1299C258.747 75.4679 258.021 76.7162 257.04 77.7179L259.144 74.1299Z" fill="white"/>
<path d="M259.144 74.1299C258.747 75.4679 258.021 76.7162 257.04 77.7179" stroke="black" stroke-width="0.5" stroke-miterlimit="10"/>
<path d="M256.703 76.918C256.509 77.1123 256.306 77.2992 256.112 77.4935L256.703 76.918Z" fill="white"/>
<path d="M256.703 76.918C256.509 77.1123 256.306 77.2992 256.112 77.4935" stroke="black" stroke-width="0.5" stroke-miterlimit="10"/>
<path d="M259.795 55.1807C258.859 55.532 257.931 55.8833 256.995 56.2272" stroke="black" stroke-width="0.5" stroke-miterlimit="10"/>
<path d="M257.332 45.418C257.834 46.5542 258.238 47.7278 258.545 48.9312" stroke="black" stroke-width="0.5" stroke-miterlimit="10"/>
<path d="M258.74 49.6265C258.822 49.9853 258.904 50.3515 258.987 50.7103" stroke="black" stroke-width="0.5" stroke-miterlimit="10"/>
<path d="M259.211 51.6821C259.264 51.9288 259.316 52.1755 259.369 52.4222" stroke="black" stroke-width="0.5" stroke-miterlimit="10"/>
<path d="M236.804 25.7661C236.804 26.8724 236.879 27.9712 236.998 29.0701" stroke="black" stroke-width="0.5" stroke-miterlimit="10"/>
<path d="M237.111 29.9297C237.178 30.3632 237.268 30.7893 237.388 31.2079" stroke="black" stroke-width="0.5" stroke-miterlimit="10"/>
<path d="M218.08 58.2679C218.192 56.5337 218.304 54.807 218.416 53.0728" stroke="black" stroke-width="0.5" stroke-miterlimit="10"/>
<path d="M218.604 51.9361C218.723 51.2783 218.776 50.613 218.753 49.9478" stroke="black" stroke-width="0.5" stroke-miterlimit="10"/>
<path d="M246.386 59.7253C246.199 59.6805 246.02 59.6282 245.832 59.5833C245.248 58.7087 245.136 57.6099 245.016 56.5709C244.687 53.8051 244.163 51.0543 243.452 48.3633" stroke="black" stroke-width="0.5" stroke-miterlimit="10"/>
</g>
<path d="M133.929 145.464L130.964 162.567" stroke="#110809" stroke-miterlimit="10"/>
<path d="M125.185 141.966L127.716 159.45" stroke="#110809" stroke-miterlimit="10"/>
<path d="M130.965 139.028L129.512 159.45" stroke="#110809" stroke-miterlimit="10"/>
<path d="M134.131 166.686H124.893L124.249 154.232H134.775L134.131 166.686Z" fill="#651FFF"/>
<path d="M111.26 149.852L111.717 156.236L100.749 153.522L101.475 147.325L105.353 148.506C105.54 148.559 105.735 148.544 105.907 148.447L108.333 147.109C108.812 146.847 109.381 146.787 109.905 146.959" fill="#EDC4AC"/>
<path d="M50.0038 194.157H46.9717V237.198H50.0038V194.157Z" fill="#110809"/>
<path d="M31.8335 246.003C31.8335 239.807 42.809 237.213 48.2967 237.198C54.8251 237.183 64.7599 239.59 64.7599 246.003" stroke="#110809" stroke-miterlimit="10"/>
<path d="M48.4839 247.655V237.37" stroke="#110809" stroke-miterlimit="10"/>
<path d="M67.4554 247.499C67.4554 248.986 66.25 250.19 64.7601 250.19C63.2703 250.19 62.0649 248.986 62.0649 247.499C62.0649 246.011 63.2703 244.808 64.7601 244.808C66.25 244.808 67.4554 246.011 67.4554 247.499Z" fill="#110809"/>
<path d="M51.1267 247.499C51.1267 248.986 49.9214 250.19 48.4315 250.19C46.9417 250.19 45.7363 248.986 45.7363 247.499C45.7363 246.011 46.9417 244.808 48.4315 244.808C49.9214 244.808 51.1267 246.011 51.1267 247.499Z" fill="#110809"/>
<path d="M34.7981 247.499C34.7981 248.986 33.5928 250.19 32.1029 250.19C30.6131 250.19 29.4077 248.986 29.4077 247.499C29.4077 246.011 30.6131 244.808 32.1029 244.808C33.5928 244.808 34.7981 246.011 34.7981 247.499Z" fill="#110809"/>
<path d="M47.7278 181.808C46.6572 179.805 46.9492 177.689 46.9566 175.417C46.9566 171.694 46.9566 167.972 46.9566 164.249C46.9566 160.429 46.9716 156.737 47.4358 152.999C48.1171 147.468 46.1406 142.691 41.9331 139.013C39.2079 136.629 35.6293 135.47 32.0806 134.715C30.0592 134.282 27.9479 133.968 25.949 134.476C23.1265 135.201 20.9254 137.518 19.6826 140.142C18.4399 142.766 18.0131 145.704 17.6912 148.589C16.8078 156.557 17.0623 164.414 16.98 172.389C16.9126 178.489 16.6206 185.388 19.1736 191.092C20.7233 194.568 23.98 196.556 27.3715 197.961C31.0998 199.509 35.1651 200.054 39.1929 200.413C44.8978 200.914 50.6401 201.056 56.3599 200.832C59.7963 200.697 63.2551 200.428 66.5493 199.464C67.3653 199.225 68.2338 198.896 68.698 198.186C69.3119 197.244 68.9825 195.928 68.2413 195.084C67.5001 194.239 66.4445 193.753 65.4263 193.267C60.1257 190.77 51.1716 187.317 47.9449 182.182C47.87 182.062 47.7951 181.935 47.7278 181.808Z" fill="#110809"/>
<path d="M102.508 245.473C102.628 245.719 109.343 243.297 109.957 242.879C108.235 238.581 106.513 234.282 104.791 229.984C103.107 225.768 101.13 221.687 99.5356 217.419C98.9367 215.827 98.3302 214.175 97.1399 212.956C95.9495 211.738 94.0104 211.073 92.5056 211.872C91.8093 212.239 91.2853 212.874 90.8735 213.554C89.6831 215.535 89.3687 217.964 89.6457 220.259C89.9227 222.554 90.7462 224.752 91.6896 226.867C93.2393 230.313 95.1634 233.52 97.3046 236.63C98.1805 237.9 98.742 239.291 99.6254 240.584C100.696 242.146 101.699 243.768 102.5 245.48L102.508 245.473Z" fill="white" stroke="black" stroke-width="0.5" stroke-miterlimit="10"/>
<path d="M112.315 245.966C113.52 245.368 114.771 244.965 116.036 244.538C116.859 244.21 117.683 243.873 118.499 243.514C120.236 242.61 121.748 241.391 123.148 239.979C123.118 239.867 123.073 239.754 123.006 239.635C122.714 239.141 122.145 238.872 121.584 238.745C120.333 238.461 119.075 238.738 117.878 239.074C116.635 239.426 115.347 239.672 114.082 239.956C113.266 240.136 112.435 240.323 111.604 240.285C110.765 240.248 109.912 239.971 109.343 239.358C109.156 239.149 108.916 238.887 108.654 238.977C108.557 239.007 108.482 239.089 108.407 239.164C107.404 240.225 105.951 240.689 104.566 241.063C104.237 241.152 100.246 242.229 100.434 242.602C101.063 244.165 102.043 245.652 102.859 247.132C103.286 247.902 103.743 248.71 104.506 249.143C104.798 249.315 105.128 249.405 105.465 249.442C107.149 248.642 108.811 247.798 110.488 246.983C111.087 246.624 111.694 246.273 112.322 245.959L112.315 245.966Z" fill="#110809"/>
<path d="M102.268 186.375C102.178 185.777 101.841 185.231 101.811 184.626C101.227 172.987 71.2507 171.948 63.3822 171.395C60.7245 171.208 57.9843 171.178 55.4763 172.09C50.9394 173.742 46.0056 179.7 46.1404 184.701C46.2752 189.544 49.5843 194.583 54.825 194.74C54.9373 194.74 55.057 194.732 55.1693 194.74C62.9779 194.784 70.7866 194.822 78.6027 194.867C82.3161 194.889 86.0145 195.263 89.7204 195.293C92.6402 195.323 96.2862 195.853 98.8766 194.186C101.527 192.482 102.71 189.343 102.276 186.375H102.268Z" fill="#F8D12E"/>
<path d="M61.8474 176.067C55.1169 173.421 48.334 172.793 41.1842 172.419C36.812 172.195 32.4173 172.142 28.045 172.554C27.5734 172.598 27.0718 172.658 26.7199 172.972C26.4129 173.241 26.2707 173.645 26.1584 174.034C24.9755 178.108 25.4771 182.645 27.5359 186.36C29.5948 190.075 33.1734 192.916 37.2612 194.082C39.8141 194.807 42.4943 194.896 45.1371 195.143C55.042 196.063 64.5876 199.217 74.4849 200.204C80.5192 200.809 85.7374 204.106 91.6669 205.429C91.9589 205.496 92.2509 205.541 92.5428 205.571C96.8102 206.057 100.247 203.575 101.182 199.299C102.216 194.62 99.5354 190.247 94.5867 186.951C88.7246 183.049 65.0742 177.323 61.8474 176.052V176.067Z" fill="#F8D12E"/>
<path d="M99.2208 235.404C101.115 234.769 103.076 234.342 105.008 233.857C107.037 233.348 109.028 232.713 110.967 231.913C111.536 231.674 112.105 231.427 112.659 231.158C110.997 225.851 107.95 216.806 107.336 215.774C101.879 206.64 100.149 196.212 92.7748 188.304C91.1128 186.525 89.2186 184.88 86.9502 183.968C83.7084 182.66 79.5833 183.251 77.2699 186.084C75.0613 188.797 74.964 194.03 75.8624 196.99C77.4346 202.14 81.5223 207.485 83.7309 212.396C85.7748 216.933 88.0956 221.351 89.9448 225.97C91.517 229.88 92.7673 233.939 94.6315 237.699C96.0016 236.667 97.5812 235.95 99.2059 235.404H99.2208Z" fill="#F8D12E"/>
<path d="M90.3492 144.081C85.5203 143.244 80.362 142.983 76.9705 139.11C72.1491 133.616 69.8357 125.573 64.4453 120.707C63.7939 120.116 63.1426 119.533 62.4014 119.062C60.2378 117.702 54.503 115.788 53.3051 119.212C51.0291 125.723 54.6153 133.459 57.7971 139.013C60.1779 143.162 62.9704 147.176 66.7811 150.076C73.6464 155.294 82.7577 156.198 91.3599 156.909C94.5343 157.17 97.761 157.424 100.861 156.707C101.16 155.877 102.732 145.987 102.223 145.958C98.4198 145.763 93.8829 144.694 90.3492 144.081Z" fill="#651FFF"/>
<path d="M65.0967 122.897C65.1192 122.299 65.9203 122.777 65.6582 122.239C65.3738 121.656 64.0112 120.161 63.4721 119.802C60.6946 117.956 57.363 116.782 54.0239 116.678C49.5244 116.536 44.9725 116.737 40.5779 118.457C30.4484 122.411 28.0302 131.067 26.8398 141.016C26.3382 145.195 26.8697 147.654 26.3681 151.833C25.2601 161.109 23.9275 172.449 24.6387 181.486C37.6955 179.677 50.5202 176.201 62.7085 171.178C62.8133 171.133 62.2443 165.385 62.2368 164.809C62.1994 162.657 62.2743 160.504 62.4165 158.358C62.7085 154.06 63.2925 149.792 63.8465 145.524C64.3256 141.809 64.7898 138.086 65.0219 134.349C65.254 130.611 64.9171 126.896 65.0893 123.173C65.0893 123.084 65.0967 122.994 65.1042 122.897H65.0967Z" fill="#651FFF"/>
<path d="M60.0884 100.098C59.7664 99.0444 59.3547 97.9979 58.6285 97.1757C56.652 94.9481 53.1707 96.5478 50.7075 97.0635C47.8102 97.669 45.946 100.502 46.5524 103.402C46.7171 104.18 46.8744 104.957 47.0391 105.735C47.2712 106.848 47.1963 107.753 47.9 108.702C48.1621 109.053 48.4615 109.39 48.5888 109.808C48.6562 110.04 48.6712 110.287 48.6787 110.526C48.7161 112.701 47.8626 115.011 47.3236 117.134C46.5899 120.034 48.4241 122.957 51.3589 123.555C54.2937 124.153 57.1311 122.18 57.5878 119.227C57.9022 117.209 57.9097 115.146 58.0744 113.083C58.0969 112.821 58.1194 112.544 58.2541 112.313C58.4039 112.051 58.6734 111.879 58.9204 111.7C62.5964 109.031 61.1964 103.761 60.0734 100.113L60.0884 100.098Z" fill="white" stroke="black" stroke-width="0.5" stroke-miterlimit="10"/>
<path d="M61.6601 98.3864C61.3158 98.9844 60.7393 99.4553 60.1029 99.7394C59.2644 100.113 58.3211 100.188 57.4002 100.15C56.7564 100.121 56.1125 100.046 55.4686 100.106C54.705 100.18 53.9489 100.569 53.4248 101.122C53.1029 101.466 52.9606 101.907 52.8034 102.341C52.7061 102.602 52.6611 102.946 52.3317 102.984C52.1371 103.006 51.9499 102.946 51.7627 102.939C51.5681 102.931 51.3884 102.991 51.2087 103.073C50.8494 103.238 50.8643 102.737 50.5873 102.677C50.49 102.655 50.3253 102.722 50.2355 102.759C49.9959 102.849 49.7937 103.013 49.6515 103.23C49.4044 103.619 49.2547 104.12 49.2322 104.583C49.1724 105.884 49.2622 107.192 49.1798 108.493C49.1274 109.315 48.7531 110.354 47.9296 110.346C47.413 110.346 47.0162 109.89 46.7242 109.472C45.0023 106.998 44.1263 103.955 44.2611 100.95C44.3734 98.4462 44.86 95.6729 47.8098 95.217C48.7905 95.0675 49.8686 95.0675 50.6622 94.4695C51.0515 94.1779 51.336 93.7593 51.7178 93.4678C52.0996 93.1688 52.6761 93.0118 53.0729 93.2884C53.3424 93.4828 53.4697 93.8416 53.7467 94.0284C53.9713 94.1779 54.2633 94.1929 54.5328 94.1705C55.289 94.1107 56.0302 93.7743 56.5767 93.251C57.0558 92.7876 57.505 92.1298 58.1788 92.1597C58.7553 92.1821 59.197 92.8773 58.9724 93.408C58.935 93.4977 58.8751 93.5874 58.8676 93.6846C58.8451 93.9462 59.182 94.1181 59.4291 94.0359C59.6762 93.9537 59.8334 93.7145 59.9457 93.4828C60.058 93.251 60.1553 92.9969 60.35 92.825C60.6869 92.5185 61.2484 92.5633 61.6152 92.8324C61.9821 93.109 62.1767 93.5575 62.2591 93.9985C62.3938 94.7386 62.2366 95.4412 62.1318 96.1738C62.0494 96.7045 62.0869 97.2651 61.9446 97.7884C61.8847 98.0052 61.8024 98.207 61.6901 98.3939L61.6601 98.3864Z" fill="#110809"/>
<path d="M65.0368 160.317C64.7598 160.369 64.4828 160.429 64.2133 160.496C63.7117 160.623 63.2101 160.765 62.6935 160.818C62.3042 160.855 61.9149 160.833 61.5256 160.818C57.5651 160.586 53.6271 160.1 49.7341 159.345C47.9372 159.001 46.1404 158.65 44.3287 158.351C42.5618 158.052 40.2784 157.237 38.504 157.372C36.4302 157.529 34.3639 157.723 32.3125 158.015C31.3842 160.78 30.2163 163.456 29.1157 166.155C33.8698 166.155 38.6163 166.155 43.3704 166.155C51.3362 166.155 59.4667 165.744 67.3877 166.222C68.5855 166.297 69.7909 166.245 70.9888 166.2C72.4636 166.14 74.223 166.312 75.638 165.961C75.6005 163.636 73.3246 161.565 71.3182 160.758C69.3492 159.958 67.1406 159.928 65.0368 160.332V160.317Z" fill="white" stroke="black" stroke-width="0.5" stroke-miterlimit="10"/>
<path d="M74.4474 165.086C73.9832 164.1 73.1896 163.3 72.2762 162.709C71.3629 162.119 70.3372 161.722 69.2891 161.416" stroke="black" stroke-width="0.5" stroke-miterlimit="10"/>
<path d="M72.9504 165.198C72.1568 163.995 70.7343 163.195 68.8701 163.075" stroke="black" stroke-width="0.5" stroke-miterlimit="10"/>
<path d="M34.3415 155.66C34.8955 152.057 36.0111 148.379 36.8645 145.09C39.2378 135.911 42.6293 126.926 44.3288 117.604C40.825 118.023 37.5009 119.526 34.6634 121.619C31.0698 124.265 27.5212 128.084 25.5297 132.091C23.2463 136.696 22.0858 141.771 21.2099 146.839C20.274 152.221 17.3467 161.408 22.6997 165.123C25.2826 166.917 32.4174 165.609 35.5918 165.714C37.2613 165.766 55.5663 167.216 55.8433 166.364C55.9032 166.177 56.3149 165.101 56.3748 164.914C56.6968 163.24 57.7823 159.278 58.0818 157.596L34.3415 155.66Z" fill="#651FFF"/>
<path d="M141.079 166.05H0V168.046H141.079V166.05Z" fill="#EDBF34"/>
<path d="M108.325 166.147H68.8252C68.8252 165.385 69.4466 164.772 70.2027 164.772H108.325V166.147Z" fill="#27007F"/>
<path d="M115.108 164.772H75.6304L82.6679 143.954C82.9074 143.236 83.6262 142.75 84.4422 142.75H120.026C121.277 142.75 122.175 143.872 121.801 144.971L115.108 164.772Z" fill="#27007F"/>
<path d="M115.108 164.772H75.4434V166.147H115.108V164.772Z" fill="#27007F"/>
<path d="M99.6256 151.803C99.5732 151.788 99.5283 151.795 99.4908 151.803C99.4534 151.78 99.416 151.765 99.3561 151.765C98.5101 151.758 97.7913 152.416 97.7389 153.185C97.694 153.94 98.3678 154.501 99.1464 154.568C99.925 154.636 100.659 154.195 100.771 153.455C100.883 152.729 100.397 151.982 99.6181 151.795L99.6256 151.803Z" fill="#110809"/>
<path d="M85.4905 184.312C80.8638 180.544 74.3429 180.642 68.4508 179.707C64.1535 179.027 59.9535 177.696 56.0454 175.775" stroke="#110809" stroke-width="0.5" stroke-miterlimit="10"/>
<path d="M40.0313 133.729C38.3243 139.596 36.6099 145.464 34.9029 151.332C34.5585 152.521 34.2366 153.904 34.9478 154.92C35.6591 155.937 37.074 156.109 38.3168 156.184C44.2762 156.557 50.2431 156.939 56.2025 157.312C56.7565 157.35 57.2207 157.402 57.7597 157.544C57.7897 157.551 57.8196 157.559 57.8421 157.589C57.8571 157.611 57.8571 157.649 57.8496 157.679C57.7373 158.463 57.6325 159.241 57.5202 160.026" stroke="#110809" stroke-width="0.5" stroke-miterlimit="10"/>
<path d="M50.7749 106.886C47.2112 109.143 45.7663 102.453 49.1278 102.169C49.8915 102.102 50.6626 102.513 51.1268 103.126" fill="white"/>
<path d="M50.7749 106.886C47.2112 109.143 45.7663 102.453 49.1278 102.169C49.8915 102.102 50.6626 102.513 51.1268 103.126" stroke="black" stroke-width="0.5" stroke-miterlimit="10"/>
<path d="M99.0187 228.078C99.3482 229.454 99.6851 230.837 100.022 232.212C100.726 235.09 101.594 235.008 104.477 235.008C108.085 235.008 107.149 231.681 107.164 229.073C107.194 225.328 107.089 221.575 106.85 217.838C106.76 216.35 106.633 214.825 105.966 213.495C105.3 212.164 103.96 211.065 102.47 211.118C100.748 211.185 98.3674 213.442 97.5514 214.93C96.2112 217.397 97.3417 221.201 97.9556 223.735C98.3075 225.186 98.6519 226.636 99.0038 228.078H99.0187Z" fill="white" stroke="black" stroke-width="0.5" stroke-miterlimit="10"/>
<path d="M100.239 236.839C100.314 237.003 100.404 237.145 100.516 237.273C101.347 237.131 102.186 237.011 103.024 236.936C105.121 236.734 107.224 236.675 109.328 236.532C111.177 236.413 113.019 236.196 114.861 236.009C116.62 235.837 124.631 235.523 121.981 232.16C120.798 230.665 118.948 231.263 117.354 231.285C115.594 231.307 113.79 231.038 112.098 230.538C110.496 230.067 108.804 229.297 108.033 227.734C105.038 228.153 102.044 228.572 99.0488 228.99C99.1986 230.814 99.4306 232.631 99.7451 234.425C99.8798 235.217 99.9397 236.159 100.247 236.831L100.239 236.839Z" fill="#110809"/>
<path d="M94.4819 176.56C92.7749 175.835 90.9557 175.312 89.1589 174.849C88.7022 174.729 88.223 174.617 87.7588 174.714C86.3738 174.998 86.0369 176.83 86.2166 178.235C86.5385 180.649 85.8273 182.854 85.9995 185.284C86.1642 187.609 86.7631 189.881 87.3546 192.138C88.8594 197.842 89.0241 204.532 90.7311 210.183C91.7567 213.569 92.3931 217.471 93.1942 220.91C93.5086 222.263 94.0252 225.612 95.3803 226.172C96.3685 226.583 97.4915 226.359 98.5397 226.127C103.316 225.073 109.672 223.227 114.157 221.269C112.195 214.13 110.653 209.966 109.493 202.648C109.021 199.673 107.299 194.516 106.513 191.615C105.622 188.319 103.863 185.56 101.879 182.817C101.048 181.666 100.202 180.522 99.176 179.543C97.8209 178.25 96.2113 177.308 94.4819 176.575V176.56Z" fill="#F8D12E"/>
<path d="M85.8198 184.76C87.9835 192.871 89.2937 201.168 90.7086 209.435C91.4274 213.636 92.2883 225.073 92.8498 226.748C94.2723 226.86 97.6638 226.568 99.0338 226.157C101.19 225.499 103.271 225.163 105.405 224.43C107.015 223.877 108.632 223.324 110.241 222.771" stroke="#110809" stroke-width="0.5" stroke-miterlimit="10"/>
<path d="M56.5093 108.164C57.0034 108.919 58.0066 109.293 58.8751 109.053C59.7435 108.807 60.4098 107.969 60.4398 107.065" fill="white"/>
<path d="M56.5093 108.164C57.0034 108.919 58.0066 109.293 58.8751 109.053C59.7435 108.807 60.4098 107.969 60.4398 107.065" stroke="black" stroke-width="0.5" stroke-miterlimit="10"/>
<path d="M49.1128 103.985C49.5096 103.91 49.9363 104.03 50.2358 104.307C50.5353 104.583 50.6925 104.994 50.6476 105.398" fill="white"/>
<path d="M49.1128 103.985C49.5096 103.91 49.9363 104.03 50.2358 104.307C50.5353 104.583 50.6925 104.994 50.6476 105.398" stroke="black" stroke-width="0.5" stroke-miterlimit="10"/>
<mask id="mask3_144_4202" style="mask-type:luminance" maskUnits="userSpaceOnUse" x="46" y="96" width="16" height="28">
<path d="M60.0884 100.098C59.7664 99.0444 59.3547 97.9979 58.6285 97.1757C56.652 94.9481 53.1707 96.5478 50.7075 97.0635C47.8102 97.669 45.946 100.502 46.5524 103.402C46.7171 104.18 46.8744 104.957 47.0391 105.735C47.2712 106.848 47.1963 107.753 47.9 108.702C48.1621 109.053 48.4615 109.39 48.5888 109.808C48.6562 110.04 48.6712 110.287 48.6787 110.526C48.7161 112.701 47.8626 115.011 47.3236 117.134C46.5899 120.034 48.4241 122.957 51.3589 123.555C54.2937 124.153 57.1311 122.18 57.5878 119.227C57.9022 117.209 57.9097 115.146 58.0744 113.083C58.0969 112.821 58.1194 112.544 58.2541 112.313C58.4039 112.051 58.6734 111.879 58.9204 111.7C62.5964 109.031 61.1964 103.761 60.0734 100.113L60.0884 100.098Z" fill="white"/>
</mask>
<g mask="url(#mask3_144_4202)">
<path d="M56.2624 112.649C55.8956 112.753 55.5287 112.828 55.1469 112.866C54.9448 112.881 54.7351 112.888 54.5555 112.978C53.8143 113.329 54.6378 113.695 55.0346 113.725C56.0004 113.807 56.9662 113.89 57.9319 113.964C58.5533 114.017 59.2796 114.024 59.6614 113.538C60.163 112.895 59.6015 112.275 59.2122 111.774C59.1897 111.744 59.1598 111.714 59.1298 111.692C59.0699 111.662 58.9951 111.692 58.9277 111.707C58.4336 111.886 57.932 112.066 57.4378 112.253C57.0485 112.395 56.6592 112.537 56.2624 112.649Z" fill="#110809"/>
</g>
<path d="M63.472 147.512C63.5469 143.147 63.3821 138.782 62.9629 134.431" stroke="#110809" stroke-width="0.5" stroke-miterlimit="10"/>
<path d="M21.3818 160.153C21.5241 160.99 21.6663 161.842 22.0856 162.582C22.5048 163.322 23.2535 163.935 24.0995 163.943" stroke="#110809" stroke-width="0.5" stroke-miterlimit="10"/>
<path d="M20.8354 156.849C20.8354 157.327 20.8953 157.798 21.0076 158.261" stroke="#110809" stroke-width="0.5" stroke-miterlimit="10"/>
<path d="M39.4024 145.442C39.2826 145.128 39.0879 144.851 39.0056 144.53C38.8259 143.865 39.1403 143.154 39.0805 142.467C39.043 142.011 38.8334 141.577 38.7435 141.129C38.6312 140.553 38.7061 139.955 38.7885 139.38C38.8558 138.901 38.9157 138.423 38.9831 137.944C38.9232 138.056 38.8633 138.176 38.8034 138.296L36.0933 147.445C37.0066 147.206 37.9125 146.937 38.8109 146.645C38.9906 146.585 39.1778 146.518 39.3125 146.384C39.5371 146.144 39.5222 145.756 39.4024 145.442Z" fill="#110809"/>
<path d="M75.6079 153.298C76.2593 153.589 77.0004 153.664 77.6967 153.507" stroke="#110809" stroke-width="0.5" stroke-miterlimit="10"/>
<path d="M50.9019 112.2C51.2837 112.372 51.673 112.552 52.0548 112.723" stroke="#110809" stroke-width="0.5" stroke-miterlimit="10"/>
<path d="M77.9961 200.623C78.6549 200.174 79.3212 199.718 79.9801 199.27" stroke="black" stroke-width="0.5" stroke-miterlimit="10"/>
<path d="M13.9925 167.882L5.33789 251.303" stroke="#EDBF34" stroke-width="2" stroke-miterlimit="10"/>
<path d="M126.502 167.882L135.157 251.303" stroke="#EDBF34" stroke-width="2" stroke-miterlimit="10"/>
<path d="M242.561 249.24C243.063 248.881 243.572 248.537 244.089 248.194C244.351 247.992 244.613 247.79 244.875 247.581C246.342 246.429 247.877 245.151 248.97 243.619C249.801 242.46 250.213 240.808 249.412 239.627C249.097 239.164 248.641 238.827 248.199 238.483C246.717 237.332 245.361 236.032 244.149 234.604C243.243 233.535 242.659 232.324 241.82 231.21C240.023 228.818 236.976 228.213 235.067 229.865C233.413 231.293 233.203 234.051 234.416 236.376C234.82 237.145 235.217 237.871 235.576 238.573C238.601 244.508 234.094 247.693 231.257 252.723C230.658 253.792 230.238 255.317 231.189 256.087C232.133 256.85 233.518 256.154 234.506 255.452C235.112 255.026 235.726 254.592 236.333 254.166C237.066 253.561 237.815 252.955 238.556 252.365C239.874 251.311 241.169 250.219 242.546 249.24H242.561Z" fill="#110809"/>
<path d="M212.211 175.925C212.36 176.359 212.817 176.844 213.708 177.353C214.861 178.018 216.268 178.033 217.593 178.003C224.227 177.861 230.852 177.084 237.343 175.686C239.44 175.23 241.626 174.662 243.198 173.212C244.216 172.277 244.897 171.044 245.526 169.81C248.326 164.361 250.205 158.598 252.152 152.82C253.619 148.454 255.222 142.84 250.565 139.753C246.836 137.279 244.403 139.985 243.108 143.468C242.419 145.322 242 147.266 241.551 149.187C240.937 151.84 240.211 153.978 239.005 156.467C238.219 158.09 237.433 159.719 236.407 161.207C235.21 162.941 233.727 164.428 232.058 165.714C228.951 168.106 225.222 169.878 221.584 171.246C219.495 172.038 217.369 172.748 215.228 173.383C213.723 173.825 211.799 174.714 212.203 175.918L212.211 175.925Z" fill="white" stroke="black" stroke-width="0.5" stroke-miterlimit="10"/>
<path d="M258.171 248.366H261.465V206.767H258.171V248.366Z" fill="#110809"/>
<path d="M276.327 257.096C276.327 250.952 265.441 248.38 260.006 248.365C253.53 248.35 243.685 250.735 243.685 257.096" stroke="#110809" stroke-miterlimit="10"/>
<path d="M259.818 258.733V248.53" stroke="#110809" stroke-miterlimit="10"/>
<path d="M241.012 258.576C241.012 260.049 242.21 261.245 243.684 261.245C245.159 261.245 246.357 260.049 246.357 258.576C246.357 257.104 245.159 255.908 243.684 255.908C242.21 255.908 241.012 257.104 241.012 258.576Z" fill="#110809"/>
<path d="M257.198 258.576C257.198 260.049 258.396 261.245 259.87 261.245C261.345 261.245 262.543 260.049 262.543 258.576C262.543 257.104 261.345 255.908 259.87 255.908C258.396 255.908 257.198 257.104 257.198 258.576Z" fill="#110809"/>
<path d="M273.384 258.576C273.384 260.049 274.582 261.245 276.057 261.245C277.532 261.245 278.73 260.049 278.73 258.576C278.73 257.104 277.532 255.908 276.057 255.908C274.582 255.908 273.384 257.104 273.384 258.576Z" fill="#110809"/>
<path d="M260.896 191.466C262.581 186.652 261.645 180.402 261.645 174.378C261.645 164.578 259.878 154.315 269.214 147.834C272.808 145.337 277.637 144.724 281.739 146.242C287.953 148.536 290.222 154.113 290.821 160.212C291.809 170.319 291.053 180.881 289.952 191.025C289.533 195.031 288.912 199.202 286.538 202.461C283.985 205.96 279.725 207.888 275.45 208.598C271.176 209.316 266.803 208.965 262.469 208.778C256.442 208.516 250.407 208.553 244.388 208.905C242.614 209.009 240.742 209.114 239.155 208.322C237.568 207.529 236.467 205.466 237.351 203.926C237.987 202.813 239.357 202.387 240.592 202.05C244.418 201.019 248.244 199.995 252.07 198.963C257.183 197.588 259.706 194.889 260.904 191.466H260.896Z" fill="#110809"/>
<path d="M236.842 251.782C236.961 250.197 236.984 248.627 237.066 246.99C237.141 245.458 237.029 243.85 236.834 242.326C236.737 241.571 236.595 240.801 236.19 240.158C235.853 239.612 235.344 239.186 234.798 238.842C233.989 238.341 233.061 238.005 232.11 237.998C231.159 237.983 230.186 238.311 229.512 238.984C228.853 239.642 227.274 239.328 227.012 240.218C226.083 243.365 227.012 247.872 226.682 251.139L226.39 254.054C226.345 254.54 226.3 255.048 226.48 255.504C226.705 256.08 227.199 257.029 227.7 257.388C228.284 257.799 229.056 257.784 229.767 257.747C230.905 257.694 232.043 257.649 233.181 257.597C234.087 257.56 235.082 257.477 235.704 256.82C236.138 256.356 236.288 255.706 236.407 255.085C236.625 253.964 236.752 252.865 236.834 251.782H236.842Z" fill="white" stroke="black" stroke-width="0.5" stroke-miterlimit="10"/>
<path d="M212.862 261.021C214.674 261.073 216.478 261.185 218.282 261.253C221.913 261.387 225.492 261.036 229.108 260.692C230.688 260.542 232.275 260.408 233.854 260.266C234.813 260.176 235.838 260.086 236.812 260.228C236.969 259.915 237.066 259.556 237.066 259.174C237.066 257.216 237.223 255.205 237.066 253.254C236.984 252.215 236.071 252.574 235.21 252.567C234.161 252.559 233.113 252.499 232.065 252.387C229.976 252.17 227.91 251.744 225.904 251.131C225.889 251.699 225.679 252.23 225.357 252.701C225.058 253.127 224.668 253.501 224.234 253.785C223.328 254.383 222.25 254.675 221.202 254.951C219.502 255.407 217.811 255.893 216.126 256.371C214.614 256.797 213.341 257.268 212.435 258.659C212.188 259.04 211.986 259.488 212.046 259.937C212.106 260.408 212.458 260.789 212.877 261.021H212.862Z" fill="#110809"/>
<path d="M247.637 170.604C247.652 170.558 247.66 170.513 247.667 170.476L247.637 170.604Z" fill="#27007F"/>
<path d="M254.854 136.322L254.72 136.995L254.854 136.322Z" fill="#27007F"/>
<path d="M244.253 136.165C244.822 134.708 245.571 133.34 246.612 132.136C247.196 131.456 247.854 130.813 248.566 130.223C252.384 127.046 258.119 130.223 257.377 135.126C257.205 136.262 257.018 137.391 256.823 138.52C255.94 143.655 255.356 148.746 252.758 153.395C248.94 151.534 244.448 151.19 240.974 148.738C241.738 145.255 242.928 139.536 244.253 136.15V136.165Z" fill="#00E5FF"/>
<path d="M264.759 192.744C264.624 190.554 263.771 188.857 263.06 186.876C262.236 184.574 261.742 182.077 261.091 179.715C260.963 179.266 260.821 178.781 260.454 178.497C259.908 178.07 259.122 178.25 258.455 178.444C250.684 180.739 242.891 183.049 235.419 186.203C228.561 189.096 221.98 191.697 216.934 197.326C210.069 204.996 216.889 214.519 219.966 222.487C222.108 228.034 224.241 233.588 226.382 239.134C226.278 238.872 238.286 237.759 238.997 237.4C239.761 237.019 237.47 225.485 237.268 224.199C236.549 219.617 235.703 215.057 234.745 210.52C234.371 208.741 234.034 206.438 233.592 203.986C234.992 203.702 236.385 203.501 237.77 203.433C244.133 203.142 250.549 203.71 256.921 203.59C257.025 203.59 257.123 203.598 257.228 203.598C261.757 203.508 265.133 198.642 264.767 192.736L264.759 192.744Z" fill="#651FFF"/>
<path d="M229.325 198.918C232.274 194.142 240.382 191.369 245.174 189.029C247.689 187.803 250.25 186.644 252.728 185.329C256.322 183.415 259.002 181.195 261.959 178.31C264.19 176.135 266.586 174.027 269.468 172.853C272.358 171.679 275.847 171.59 278.43 173.331C281.904 175.671 282.72 180.373 282.982 184.551C283.423 191.638 282.795 200.705 274.874 203.351C271.34 204.532 267.799 205.713 264.265 206.894C257.018 209.309 249.763 211.731 242.516 214.145C242.441 214.175 242.374 214.212 242.299 214.242C242.112 214.31 241.917 214.369 241.715 214.414C238.765 215.094 234.857 213.644 231.646 210.505C227.76 206.715 227.101 202.529 229.332 198.918H229.325Z" fill="#651FFF"/>
<path d="M249.135 131.524C252.908 126.889 259.474 126.53 264.759 128.444C271.415 130.858 274.44 136.136 276.805 142.489C277.869 145.337 277.599 148.141 278.363 151.093C279.171 154.218 280.511 157.2 280.998 160.4C281.32 162.508 281.267 164.728 282.151 166.671C282.697 167.875 283.581 168.929 283.925 170.199C284.195 171.179 284.12 172.21 284.135 173.227C284.15 174.946 285.977 181.247 284.891 182.421C283.933 183.46 278.7 182.496 277.277 182.72C273.886 183.288 270.554 184.043 267.133 184.439C263.704 184.843 260.222 185.075 256.801 184.604C253.38 184.133 249.996 182.907 247.368 180.664C248.176 177.764 249.097 174.856 249.292 171.836C249.501 168.562 249.292 165.341 248.903 162.096C248.573 159.376 248.446 156.886 247.862 154.158C247.158 150.861 246.514 147.55 246.117 144.201C245.758 141.159 245.713 137.705 247.038 134.872C247.6 133.676 248.304 132.555 249.142 131.531L249.135 131.524Z" fill="#00E5FF"/>
<path d="M257.422 120.475C257.565 120.161 257.789 119.877 257.961 119.563C258.313 118.89 258.643 118.203 258.92 117.5C259.451 116.155 259.833 114.704 259.751 113.239C259.676 111.812 258.987 110.511 258.014 109.494C257.505 108.964 257.093 108.53 256.344 108.433C255.513 108.321 254.667 108.493 253.836 108.552C252.683 108.642 251.508 108.537 250.385 108.253C248.483 107.768 247.622 108.044 247.068 109.875C246.492 111.789 246.215 113.725 245.781 115.654C245.331 117.664 245.129 119.795 245.736 121.798C245.968 122.561 246.342 123.301 246.933 123.846C247.577 124.437 248.311 124.317 248.408 125.319C248.603 127.3 249.015 129.184 248.176 131.09C249.898 132.831 252.474 133.676 254.892 133.295C257.19 132.929 259.354 131.389 260.14 129.198C260.177 129.094 260.207 128.982 260.177 128.877C260.155 128.802 260.103 128.75 260.05 128.69C259.721 128.346 259.212 128.13 258.815 127.875C258.658 127.778 258.493 127.674 258.373 127.524C258.231 127.345 258.171 127.113 258.119 126.889C257.857 125.745 257.654 124.594 257.512 123.428C257.407 122.583 257.056 121.267 257.422 120.468V120.475Z" fill="white" stroke="black" stroke-width="0.5" stroke-miterlimit="10"/>
<path d="M259.885 117.283C260.185 116.813 260.41 116.289 260.627 115.773C261.113 114.622 261.637 113.396 261.473 112.126C261.323 110.982 260.739 109.95 259.975 109.106C259.279 108.321 258.822 107.491 257.699 107.297C257.033 107.185 256.344 107.23 255.685 107.073C254.914 106.886 254.218 106.437 253.432 106.31C252.234 106.116 250.984 106.706 249.823 106.355C249.112 106.138 248.528 105.592 247.794 105.458C246.963 105.308 246.132 105.735 245.489 106.28C244.905 106.774 244.396 107.424 244.358 108.179C244.336 108.635 244.493 109.083 244.725 109.48C245.137 110.167 245.796 110.705 246.559 110.96C247.315 111.221 248.139 111.206 248.91 111.416C249.584 111.595 250.213 111.946 250.901 112.043C251.882 112.171 252.87 111.774 253.844 111.901C254.121 111.939 254.405 112.021 254.63 112.193C255.072 112.529 255.214 113.15 255.154 113.703C255.094 114.256 254.869 114.779 254.72 115.318C254.637 115.609 254.577 115.923 254.667 116.215C254.757 116.506 255.049 116.753 255.349 116.693C255.528 116.484 256.546 115.31 256.621 116.125C256.659 116.528 256.277 117.119 256.172 117.5C255.977 118.188 255.903 118.92 256.18 119.601C256.442 120.244 257.078 121.148 257.849 120.55C258.396 120.131 258.276 119.272 258.635 118.681C258.815 118.39 259.099 118.18 259.346 117.941C259.549 117.739 259.728 117.515 259.878 117.276L259.885 117.283Z" fill="#110809"/>
<path d="M229.579 199.217C226.338 205.287 226.914 212.276 226.562 218.891C226.435 221.313 225.978 223.705 226.075 226.135C226.158 228.198 226.719 230.44 225.611 232.339C225.319 232.84 224.923 233.288 224.765 233.841C224.264 235.658 225.432 237.31 224.698 239.283C224.316 240.307 223.77 241.272 223.418 242.311C222.998 243.544 222.849 244.845 222.706 246.138C222.624 246.848 228.224 248.47 228.98 248.627C231.129 249.068 233.412 249.263 235.606 249.076C236.692 248.978 244.088 248.597 244.103 246.938C244.201 235.082 244.747 223.227 245.75 211.409C245.923 209.376 246.11 207.328 246.746 205.384C247.989 201.579 250.879 198.395 251.642 194.47C251.852 193.402 251.837 192.153 251.044 191.406C250.317 190.718 249.194 190.711 248.199 190.815C244.65 191.189 241.161 192.684 237.777 193.656C234.775 194.515 231.136 196.347 229.602 199.225L229.579 199.217Z" fill="#651FFF"/>
<path d="M270.135 171.522C269.738 172.404 269.311 173.271 268.854 174.123C268.166 175.417 267.252 176.792 265.815 177.084C255.011 179.266 243.519 178.511 232.581 178.152C231.863 178.13 230.919 177.913 230.859 177.196C235.786 174.692 240.899 172.569 246.147 170.849C249.816 169.646 255.783 166.97 259.526 167.628C259.414 160.9 259.294 154.053 261.113 147.512C261.675 145.509 262.438 143.506 263.853 141.981C265.268 140.456 267.447 139.499 269.461 140.015C271.31 140.486 272.702 142.1 273.399 143.872C274.993 147.938 274.394 153.589 273.9 157.835C273.354 162.552 272.081 167.187 270.12 171.515L270.135 171.522Z" fill="white" stroke="black" stroke-width="0.5" stroke-miterlimit="10"/>
<path d="M259.961 141.966C259.916 142.198 259.871 142.429 259.826 142.661C259.586 144.021 257.258 151.504 257.992 152.334C259.242 153.754 261.196 154.262 263.038 154.696C267.29 155.712 271.55 156.729 275.802 157.746C276.057 157.805 275.63 150.966 275.623 150.241C275.548 144.702 276.147 139.178 272.927 134.259C271.827 132.57 270.172 131.247 268.286 130.529C266.758 129.946 264.797 129.864 263.696 131.075C263.255 131.561 263.015 132.181 262.79 132.794C261.675 135.814 260.589 138.834 259.961 141.966Z" fill="#00E5FF"/>
<path d="M211.491 178.429H250.654C250.654 177.674 250.04 177.062 249.284 177.062H211.484V178.429H211.491Z" fill="#27007F"/>
<path d="M204.761 177.069H243.901L236.924 156.43C236.684 155.72 235.973 155.234 235.164 155.234H199.887C198.644 155.234 197.761 156.341 198.128 157.44L204.768 177.069H204.761Z" fill="#27007F"/>
<path d="M204.761 178.429H244.088V177.061H204.761V178.429Z" fill="#27007F"/>
<path d="M218.768 165.894C218.896 166.723 219.719 167.224 220.595 167.149C221.479 167.075 222.242 166.439 222.19 165.587C222.137 164.713 221.321 163.973 220.37 163.98C220.311 163.98 220.266 163.995 220.221 164.017C220.176 164.002 220.123 164.002 220.064 164.017C219.188 164.234 218.641 165.071 218.768 165.894Z" fill="#110809"/>
<path d="M255.985 119.967C256.644 120.027 257.31 119.713 257.715 119.19C258.119 118.667 258.261 117.971 258.141 117.321C257.977 116.409 257.273 115.467 256.24 115.804C255.731 115.968 255.349 116.409 255.139 116.895" fill="white"/>
<path d="M255.985 119.967C256.644 120.027 257.31 119.713 257.715 119.19C258.119 118.667 258.261 117.971 258.141 117.321C257.977 116.409 257.273 115.467 256.24 115.804C255.731 115.968 255.349 116.409 255.139 116.895" stroke="black" stroke-width="0.5" stroke-miterlimit="10"/>
<path d="M249.314 186.921C245.024 188.939 240.809 191.107 236.669 193.417C234.476 194.643 232.252 195.943 230.642 197.872C227.812 201.251 227.303 205.937 226.981 210.325C226.749 213.457 226.038 216.843 226.315 219.946C226.495 221.919 226.869 223.915 226.532 225.873C226.3 227.219 225.739 228.49 225.357 229.805C224.788 231.771 224.631 233.857 224.893 235.89" stroke="#110809" stroke-width="0.5" stroke-miterlimit="10"/>
<path d="M260.709 139.223C258.935 143.588 258.224 148.372 258.643 153.059" stroke="#110809" stroke-width="0.5" stroke-miterlimit="10"/>
<path d="M275.144 157.357C275.548 154.03 275.832 150.689 275.997 147.34" stroke="#110809" stroke-width="0.5" stroke-miterlimit="10"/>
<path d="M247.488 151.138C246.866 148.417 246.597 145.614 246.679 142.818" stroke="#110809" stroke-width="0.5" stroke-miterlimit="10"/>
<path d="M257.228 116.805C256.846 116.67 256.412 116.835 256.12 117.119C255.828 117.403 255.663 117.784 255.528 118.165" fill="white"/>
<path d="M257.228 116.805C256.846 116.67 256.412 116.835 256.12 117.119C255.828 117.403 255.663 117.784 255.528 118.165" stroke="black" stroke-width="0.5" stroke-miterlimit="10"/>
<path d="M246.559 119.474C246.559 119.571 246.634 119.646 246.716 119.698C247.098 119.975 247.585 120.109 248.049 120.049C248.513 119.997 248.962 119.758 249.262 119.392" fill="white"/>
<path d="M246.559 119.474C246.559 119.571 246.634 119.646 246.716 119.698C247.098 119.975 247.585 120.109 248.049 120.049C248.513 119.997 248.962 119.758 249.262 119.392" stroke="black" stroke-width="0.5" stroke-miterlimit="10"/>
<path d="M252.548 123.473C252.406 123.353 252.204 123.368 252.024 123.39C250.654 123.607 249.404 124.534 248.027 124.377C247.944 124.37 247.869 124.355 247.794 124.34C248.019 124.542 248.184 124.796 248.289 125.08C248.423 125.424 248.476 125.805 248.476 126.186C248.498 126.283 248.521 126.388 248.536 126.485L248.625 126.627C249.352 125.977 250.19 125.453 251.104 125.102C251.673 124.885 252.324 124.676 252.608 124.138C252.721 123.921 252.743 123.622 252.556 123.473H252.548Z" fill="#110809"/>
<path d="M245.781 212.919C245.264 212.037 244.755 211.162 244.238 210.28" stroke="#110809" stroke-width="0.5" stroke-miterlimit="10"/>
<path d="M172.666 137.899C172.434 137.735 172.201 137.57 171.954 137.413C169.229 135.664 166.062 134.67 162.851 134.251C164.385 136.576 164.685 139.551 166.212 141.883C167.043 143.154 168.211 144.163 169.506 144.956C170.771 145.726 172.164 146.114 173.422 146.854C173.811 147.086 174.238 147.236 174.665 147.385C175.541 147.699 176.424 148.006 177.3 148.319C177.405 148.357 177.517 148.394 177.629 148.372C177.876 148.327 177.966 148.02 177.996 147.774C178.498 143.79 175.765 140.112 172.673 137.899H172.666Z" fill="#F8D12E"/>
<path d="M180.452 130.514C181.56 128.129 183.274 126.014 185.453 124.452C187.482 122.994 189.9 122.007 191.569 120.139C191.532 120.176 192.183 122.022 192.221 122.254C192.37 123.129 192.378 124.026 192.251 124.908C192.019 126.537 191.24 128.189 190.461 129.617C188.694 132.869 185.617 135.41 182.945 137.892C181.889 138.879 180.788 139.91 180.302 141.271C180.249 141.42 180.145 141.607 179.995 141.57C179.89 141.547 179.845 141.435 179.808 141.338C178.542 137.757 178.894 133.87 180.452 130.514Z" fill="#F8D12E"/>
<path d="M181.478 134.595C178.475 146.839 177.285 159.524 177.959 172.112" stroke="#110809" stroke-width="0.5" stroke-miterlimit="10"/>
<path d="M187.085 162.515C181.313 161.737 175.346 162.163 169.686 163.509C169.244 168.764 171.58 173.996 173.571 179.206H186.246C188.552 174.52 189.428 167.777 188.882 162.814C188.283 162.702 187.684 162.604 187.085 162.515Z" fill="#00E5FF"/>
<path d="M180.692 147.49C181.44 146.07 182.571 144.859 183.963 144.066C184.966 143.498 186.074 143.147 187.175 142.796C187.924 142.556 188.665 142.325 189.414 142.086C189.855 141.944 190.873 141.39 191.33 141.495C191.779 141.6 191.375 143.035 191.233 143.439C191.053 143.954 190.903 144.47 190.724 144.986C190.514 145.591 190.559 146.152 190.387 146.75C190.02 148.073 189.092 149.239 188.043 150.099C186.786 151.123 185.266 151.781 183.724 152.289C182.713 152.625 181.68 152.894 180.662 153.193C180.31 153.298 179.726 153.694 179.359 153.612C178.767 153.478 179.329 152.536 179.464 152.147C179.636 151.639 179.658 151.1 179.718 150.57C179.846 149.501 180.182 148.454 180.692 147.497V147.49Z" fill="#F8D12E"/>
<path d="M178.213 155.129C179.269 152.805 181.096 151.332 183.087 149.732" stroke="#110809" stroke-width="0.5" stroke-miterlimit="10"/>
<path d="M178.445 151.953C178.355 150.771 178.048 149.673 177.674 148.551C177.345 147.55 177.075 146.63 176.506 145.726C174.881 143.125 172.104 141.495 169.431 139.978" stroke="#110809" stroke-width="0.5" stroke-miterlimit="10"/>
<path d="M171.685 165.408C171.865 168.054 172.366 170.678 173.167 173.204" stroke="#110809" stroke-width="0.5" stroke-miterlimit="10"/>
<path d="M173.699 174.527C173.991 175.297 174.283 176.067 174.582 176.837" stroke="#110809" stroke-width="0.5" stroke-miterlimit="10"/>
<path d="M181.665 179.842L173.085 261.918" stroke="#EDBF34" stroke-width="2" stroke-miterlimit="10"/>
<path d="M283.469 179.842L292.056 261.918" stroke="#EDBF34" stroke-width="2" stroke-miterlimit="10"/>
<path d="M298 178.549H166.766V180.32H298V178.549Z" fill="#EDBF34"/>
<path d="M264.752 176.157C266.159 175.798 267.38 174.759 267.949 173.421" stroke="#110809" stroke-width="0.5" stroke-miterlimit="10"/>
<path d="M268.36 171.746C268.503 171.118 268.652 170.491 268.795 169.87" stroke="#110809" stroke-width="0.5" stroke-miterlimit="10"/>
<path d="M183.05 28.4946C175.57 26.6931 167.889 25.7289 160.2 25.6392" stroke="#110809" stroke-width="0.5" stroke-miterlimit="10"/>
<path d="M71.2657 36C66.8935 40.3505 63.1426 45.3288 60.2153 50.7557" stroke="#110809" stroke-width="0.5" stroke-miterlimit="10"/>
<path d="M249.187 82.5093C251.126 87.5923 252.519 92.8846 253.335 98.2667" stroke="#110809" stroke-width="0.5" stroke-miterlimit="10"/>
<path d="M150.819 118.36C151.044 117.141 152.219 116.334 153.44 116.566C153.545 116.588 153.649 116.618 153.747 116.656C153.777 115.751 153.709 114.854 153.56 113.979C153.462 114.032 153.372 114.077 153.268 114.114C152.1 114.525 150.812 113.912 150.4 112.746C149.988 111.58 150.602 110.294 151.77 109.883C151.883 109.846 151.995 109.823 152.107 109.801C151.68 109.009 151.171 108.261 150.595 107.566C150.535 107.663 150.475 107.76 150.4 107.85C149.592 108.792 148.177 108.904 147.233 108.097C146.29 107.289 146.178 105.877 146.986 104.935C147.069 104.837 147.158 104.755 147.256 104.681C146.492 104.21 145.676 103.813 144.808 103.499C144.808 103.619 144.8 103.731 144.778 103.851C144.553 105.069 143.378 105.869 142.157 105.645C140.937 105.421 140.128 104.247 140.361 103.029C140.383 102.901 140.42 102.789 140.465 102.67C139.544 102.647 138.639 102.715 137.755 102.872C137.808 102.976 137.867 103.081 137.905 103.193C138.317 104.359 137.703 105.645 136.535 106.056C135.367 106.467 134.079 105.854 133.667 104.688C133.63 104.576 133.608 104.456 133.585 104.344C132.791 104.778 132.043 105.293 131.354 105.869C131.451 105.929 131.541 105.989 131.631 106.056C132.574 106.863 132.687 108.276 131.878 109.218C131.07 110.16 129.655 110.272 128.711 109.465C128.629 109.39 128.554 109.308 128.479 109.225C128.022 109.98 127.633 110.795 127.326 111.647C127.424 111.647 127.528 111.647 127.626 111.67C128.846 111.894 129.647 113.068 129.422 114.286C129.198 115.504 128.022 116.312 126.802 116.08C126.705 116.065 126.608 116.028 126.518 115.998C126.503 116.895 126.57 117.784 126.727 118.644C126.81 118.607 126.885 118.562 126.974 118.532C128.142 118.121 129.43 118.734 129.842 119.9C130.254 121.066 129.64 122.351 128.472 122.763C128.389 122.793 128.299 122.807 128.21 122.822C128.636 123.592 129.138 124.325 129.7 124.998C129.744 124.93 129.782 124.863 129.842 124.796C130.65 123.854 132.065 123.742 133.009 124.549C133.952 125.356 134.064 126.769 133.256 127.711C133.203 127.778 133.136 127.823 133.076 127.883C133.817 128.332 134.611 128.713 135.449 129.019C135.449 128.944 135.449 128.87 135.472 128.787C135.696 127.569 136.872 126.769 138.092 126.993C139.312 127.218 140.113 128.391 139.889 129.61C139.874 129.692 139.844 129.767 139.821 129.841C140.712 129.864 141.588 129.797 142.442 129.655C142.404 129.58 142.367 129.52 142.345 129.438C141.933 128.272 142.547 126.986 143.715 126.575C144.882 126.164 146.17 126.777 146.582 127.943C146.612 128.025 146.627 128.107 146.642 128.19C147.413 127.771 148.147 127.278 148.828 126.709C148.761 126.665 148.686 126.62 148.618 126.567C147.675 125.76 147.563 124.347 148.371 123.405C149.18 122.464 150.595 122.351 151.538 123.159C151.613 123.219 151.673 123.293 151.733 123.368C152.197 122.621 152.586 121.821 152.901 120.976C152.811 120.976 152.714 120.976 152.624 120.954C151.403 120.729 150.595 119.556 150.827 118.337L150.819 118.36ZM146.515 119.107C144.942 122.621 140.802 124.213 137.284 122.643C133.765 121.073 132.17 116.94 133.742 113.426C135.315 109.913 139.455 108.321 142.973 109.891C146.492 111.46 148.087 115.594 146.515 119.107Z" fill="#EDBF34"/>
<path d="M145.032 116.259C145.032 118.958 142.839 121.148 140.136 121.148C137.433 121.148 135.24 118.958 135.24 116.259C135.24 113.561 137.433 111.371 140.136 111.371C142.839 111.371 145.032 113.561 145.032 116.259Z" stroke="#222221" stroke-width="0.5" stroke-miterlimit="10"/>
<path d="M149.03 116.259C149.03 121.163 145.047 125.147 140.128 125.147C135.209 125.147 131.227 121.17 131.227 116.259C131.227 111.348 135.209 107.372 140.128 107.372C145.047 107.372 149.03 111.348 149.03 116.259Z" stroke="#222221" stroke-width="0.5" stroke-miterlimit="10"/>
<path d="M171.228 99.9863C171.453 98.7679 172.628 97.9606 173.848 98.1923C173.953 98.2147 174.058 98.2446 174.155 98.282C174.185 97.3775 174.118 96.4805 173.968 95.6059C173.871 95.6583 173.781 95.7031 173.676 95.7405C172.508 96.1516 171.221 95.5387 170.809 94.3725C170.397 93.2064 171.011 91.9207 172.179 91.5096C172.291 91.4722 172.404 91.4498 172.516 91.4274C172.089 90.635 171.58 89.8875 171.004 89.1923C170.944 89.2895 170.884 89.3867 170.809 89.4764C170 90.4183 168.585 90.5304 167.642 89.7231C166.699 88.9158 166.586 87.503 167.395 86.5611C167.477 86.464 167.567 86.3817 167.664 86.307C166.901 85.8361 166.085 85.4399 165.216 85.1259C165.216 85.2455 165.209 85.3577 165.186 85.4773C164.962 86.6957 163.786 87.4955 162.566 87.2713C161.346 87.047 160.537 85.8734 160.769 84.655C160.792 84.5279 160.829 84.4158 160.874 84.2962C159.953 84.2738 159.047 84.3411 158.164 84.498C158.216 84.6027 158.276 84.7073 158.314 84.8195C158.725 85.9856 158.111 87.2713 156.944 87.6824C155.776 88.0935 154.488 87.4806 154.076 86.3145C154.039 86.2023 154.016 86.0827 153.994 85.9706C153.2 86.4042 152.452 86.9199 151.763 87.4955C151.853 87.5553 151.95 87.6151 152.04 87.6824C152.983 88.4897 153.095 89.9025 152.287 90.8443C151.478 91.7862 150.063 91.8983 149.12 91.091C149.038 91.0163 148.963 90.934 148.888 90.8518C148.431 91.6068 148.042 92.4216 147.735 93.2737C147.832 93.2737 147.937 93.2737 148.034 93.2961C149.255 93.5204 150.056 94.694 149.831 95.9124C149.607 97.1308 148.431 97.9307 147.211 97.7064C147.114 97.6915 147.016 97.6541 146.926 97.6242C146.911 98.5212 146.979 99.4107 147.136 100.27C147.218 100.233 147.293 100.188 147.383 100.158C148.551 99.7471 149.839 100.36 150.25 101.526C150.662 102.692 150.048 103.978 148.88 104.389C148.798 104.419 148.708 104.434 148.618 104.449C149.045 105.219 149.547 105.951 150.108 106.624C150.153 106.557 150.191 106.49 150.25 106.422C151.059 105.48 152.474 105.368 153.417 106.176C154.361 106.983 154.473 108.396 153.664 109.338C153.612 109.405 153.545 109.45 153.485 109.509C154.226 109.958 155.019 110.339 155.858 110.646C155.858 110.571 155.858 110.496 155.88 110.421C156.105 109.203 157.28 108.403 158.501 108.627C159.721 108.852 160.522 110.025 160.298 111.244C160.283 111.326 160.253 111.401 160.23 111.475C161.121 111.498 161.997 111.431 162.851 111.289C162.813 111.214 162.776 111.154 162.753 111.072C162.341 109.906 162.955 108.62 164.123 108.209C165.291 107.798 166.579 108.411 166.991 109.577C167.021 109.659 167.036 109.741 167.051 109.823C167.822 109.405 168.555 108.911 169.237 108.343C169.169 108.299 169.094 108.254 169.027 108.201C168.084 107.394 167.971 105.981 168.78 105.039C169.589 104.098 171.004 103.985 171.947 104.793C172.022 104.853 172.082 104.927 172.142 105.002C172.606 104.255 172.995 103.455 173.309 102.61C173.22 102.61 173.122 102.61 173.032 102.588C171.812 102.363 171.004 101.19 171.236 99.9714L171.228 99.9863ZM166.923 100.734C165.351 104.247 161.211 105.839 157.692 104.269C154.173 102.7 152.579 98.566 154.151 95.0528C155.723 91.5395 159.863 89.9473 163.382 91.5171C166.901 93.0868 168.495 97.2205 166.923 100.734Z" fill="#EDBF34"/>
<path d="M165.441 97.8931C165.441 100.592 163.247 102.782 160.545 102.782C157.842 102.782 155.648 100.592 155.648 97.8931C155.648 95.1946 157.842 93.0044 160.545 93.0044C163.247 93.0044 165.441 95.1946 165.441 97.8931Z" stroke="#222221" stroke-width="0.5" stroke-miterlimit="10"/>
<path d="M166.843 104.179C170.319 100.708 170.319 95.0803 166.843 91.6094C163.366 88.1385 157.73 88.1385 154.254 91.6094C150.778 95.0803 150.778 100.708 154.254 104.179C157.73 107.65 163.366 107.65 166.843 104.179Z" stroke="#222221" stroke-width="0.5" stroke-miterlimit="10"/>
<path d="M19.0612 64.0309C21.1799 61.7211 24.5789 60.5027 27.7532 59.7926C37.8528 57.5351 48.2967 57.9313 58.5086 59.06C62.1096 59.4637 67.1632 59.0675 69.6937 61.9902C72.1568 64.8308 72.6209 68.8523 72.3963 72.4403C72.299 73.9877 71.7974 75.5649 70.7268 76.6862C68.9824 78.5175 66.2049 78.7941 63.6744 78.9212C64.161 83.8248 63.8466 86.9643 66.8412 90.8813C62.5663 89.4759 61.6005 87.2185 60.0433 82.9951C59.5791 81.7318 59.2273 80.4312 58.9578 79.1155C58.8829 78.7343 39.148 79.4744 37.2838 79.4818C31.2271 79.5043 25.4848 79.6986 19.6826 77.7476C16.3735 76.6338 16.5307 68.9869 17.5339 66.4454C17.9008 65.5259 18.4248 64.7261 19.0687 64.0235L19.0612 64.0309Z" fill="#EDBF34"/>
<path d="M25.0581 72.1266C25.6795 71.0726 26.3234 69.9962 27.2816 69.2262C28.2325 68.4563 29.5801 68.0527 30.7106 68.5311C32.3127 69.2038 32.9715 71.3641 34.6336 71.8574C37.4411 72.6872 39.7545 68.1349 42.562 68.9721C44.209 69.4654 44.9802 71.6481 46.6796 71.9397C49.0604 72.3583 50.6775 68.7478 53.0733 69.0468C54.4808 69.2262 55.3193 70.654 56.4647 71.4837C58.8231 73.188 62.7386 71.6407 63.2926 68.7927" stroke="#222221" stroke-width="0.5" stroke-miterlimit="10"/>
<path d="M287.489 106.579C287.489 110.631 280.144 121.35 280.144 121.35C280.144 121.35 272.8 110.631 272.8 106.579C272.8 102.528 276.086 99.2461 280.144 99.2461C284.202 99.2461 287.489 102.528 287.489 106.579Z" fill="#E0F7FA"/>
<path d="M283.116 106.071C283.116 107.708 281.784 109.038 280.144 109.038C278.505 109.038 277.172 107.708 277.172 106.071C277.172 104.434 278.505 103.103 280.144 103.103C281.784 103.103 283.116 104.434 283.116 106.071Z" fill="#110809"/>
<path d="M276.154 121.2H282.877" stroke="#110809" stroke-width="0.5" stroke-miterlimit="10"/>
<path d="M180.406 55.3375C180.406 59.4188 173.01 70.2128 173.01 70.2128C173.01 70.2128 165.613 59.4188 165.613 55.3375C165.613 51.2561 168.922 47.9521 173.01 47.9521C177.097 47.9521 180.406 51.2561 180.406 55.3375Z" fill="#E0F7FA"/>
<path d="M175.997 54.8216C175.997 56.4735 174.657 57.8116 173.002 57.8116C171.347 57.8116 170.007 56.4735 170.007 54.8216C170.007 53.1696 171.347 51.8315 173.002 51.8315C174.657 51.8315 175.997 53.1696 175.997 54.8216Z" fill="#110809"/>
<path d="M168.735 70.3472H176.229" stroke="#110809" stroke-width="0.5" stroke-miterlimit="10"/>
<path d="M165.448 70.3472H167.312" stroke="#110809" stroke-width="0.5" stroke-miterlimit="10"/>
<path d="M23.3959 102.662C23.3959 106.714 16.0515 117.433 16.0515 117.433C16.0515 117.433 8.70703 106.714 8.70703 102.662C8.70703 98.6106 11.9937 95.3291 16.0515 95.3291C20.1093 95.3291 23.3959 98.6106 23.3959 102.662Z" fill="#E0F7FA"/>
<path d="M19.0235 102.146C19.0235 103.783 17.6909 105.114 16.0513 105.114C14.4117 105.114 13.0791 103.783 13.0791 102.146C13.0791 100.509 14.4117 99.1787 16.0513 99.1787C17.6909 99.1787 19.0235 100.509 19.0235 102.146Z" fill="#110809"/>
<path d="M10.7661 117.455H19.9448" stroke="#110809" stroke-width="0.5" stroke-miterlimit="10"/>
<path d="M11.6719 119.129H14.3895" stroke="#110809" stroke-width="0.5" stroke-miterlimit="10"/>
</g>
<defs>
<clipPath id="clip0_144_4202">
<rect width="298" height="262" fill="white"/>
</clipPath>
</defs>
</svg>
