<svg width="309" height="255" viewBox="0 0 309 255" fill="none" xmlns="http://www.w3.org/2000/svg">
<path d="M69.2666 145.528C69.3097 145.217 69.2235 144.877 68.9434 144.588C64.6412 140.074 67.708 133.693 70.818 129.519C71.7373 128.282 69.6688 127.088 68.7638 128.31C65.1152 133.208 62.4434 140.255 66.6091 145.536H69.2666V145.528Z" fill="#27007F"/>
<path d="M112.361 132.55H38.4472L29.541 88.9839H103.462L112.361 132.55Z" fill="#651FFF"/>
<path d="M114.157 132.644H36.8311L28.0327 89.0059H105.365L114.157 132.644Z" stroke="#3A434B" stroke-width="0.5" stroke-miterlimit="10"/>
<path d="M80.7946 148.031C80.0764 145.883 75.2714 144.219 69.4393 144.219C63.6072 144.219 58.795 145.883 58.084 148.031H80.7946Z" fill="black"/>
<path d="M47.5327 112.561C48.5095 114.399 50.5421 115.614 52.6107 115.6C54.6792 115.585 56.6974 114.341 57.6455 112.489" stroke="black" stroke-width="0.5" stroke-miterlimit="10"/>
<path d="M87.6104 111.599C88.5872 113.436 90.6198 114.652 92.6883 114.637C94.7568 114.623 96.7751 113.378 97.7231 111.526" stroke="black" stroke-width="0.5" stroke-miterlimit="10"/>
<path d="M70.6743 120.265C72.6782 121.994 75.939 121.987 77.9357 120.251" stroke="black" stroke-width="0.5" stroke-miterlimit="10"/>
<path d="M133.779 232.913C127.408 232.964 121.037 233.166 114.667 233.521C110.601 233.745 100.862 235.112 99.6841 241.725C97.8239 252.15 110.012 253.813 114.896 253.857C153.638 254.19 192.387 254.32 231.129 254.371C243.001 254.385 254.874 254.392 266.746 254.399C272.909 254.399 279.078 254.616 285.226 254.146C290.125 253.77 296.682 254.682 300.525 251.202C302.579 249.343 303.771 246.615 303.721 243.895C303.707 242.962 303.541 242.007 303.067 241.189C302.579 240.336 301.796 239.685 300.97 239.128C297.393 236.69 293.041 235.785 288.746 235.452C284.551 235.127 280.594 234.613 276.435 234.223C266.064 233.26 255.606 233.174 245.199 233.174C213.834 233.174 182.267 234.215 150.938 233.145C145.22 232.949 139.496 232.877 133.772 232.92L133.779 232.913Z" fill="#ECECFE"/>
<path d="M277.563 177.794C278.683 182.764 279.811 187.727 280.932 192.697C281.513 195.272 282.102 197.884 281.994 200.525C281.908 202.753 281.327 204.93 280.946 207.13C279.811 213.677 280.45 220.528 282.785 226.742" stroke="#323232" stroke-width="0.5" stroke-miterlimit="10" stroke-linecap="round"/>
<path d="M281.951 196.148C281.018 193.847 279.919 191.612 278.676 189.463C277.412 187.278 276.062 185.014 275.609 182.511C275.071 179.53 274.532 176.6 273.641 173.699C272.65 170.48 270.711 167.644 269.835 164.316C268.937 160.923 268.535 157.393 268.678 153.877C268.765 151.808 269.045 149.695 270.043 147.887C271.041 146.078 272.88 144.631 274.927 144.595C276.744 144.559 278.446 145.637 279.56 147.077C280.673 148.516 281.262 150.303 281.671 152.083C282.318 154.911 282.555 157.812 282.792 160.706C283.201 165.684 283.603 170.654 284.013 175.631C284.185 177.736 284.487 179.632 284.278 181.715C284.041 184.052 284.602 186.28 284.508 188.53C284.408 191.011 283 193.941 281.944 196.141L281.951 196.148Z" fill="black"/>
<path d="M284.846 178.561C282.856 176.803 279.94 174.539 279.452 173.2C278.195 169.793 279.344 164.678 280.766 161.574C282.763 157.234 285.636 155.02 286.146 150.035C286.677 144.798 284.472 139.9 284.903 134.662C285.248 130.539 287.266 126.314 290.944 124.469C291.841 124.02 292.847 123.717 293.845 123.811C295.591 123.977 297.049 125.352 297.803 126.943C298.557 128.535 298.744 130.343 298.894 132.101C299.857 143.373 300.798 152.097 294.326 161.712C290.477 167.427 287.862 173.989 286.728 180.804C286.799 180.384 285.966 179.545 284.846 178.554V178.561Z" fill="#00C853"/>
<path d="M281.966 225.527C285.413 219.103 285.622 212.99 286.835 206.037C288.193 198.268 289.917 190.447 287.611 182.656C286.484 178.843 284.444 175.24 284.156 171.276C283.769 165.843 286.699 160.8 289.529 156.156" stroke="#323232" stroke-width="0.5" stroke-miterlimit="10" stroke-linecap="round"/>
<path d="M297.552 173.07C299.268 170.986 301.38 168.736 304.066 168.823C307.463 168.939 309.575 173.07 308.871 176.419C308.167 179.769 305.589 182.359 303.032 184.609C300.475 186.859 297.71 189.123 296.402 192.285C295.627 194.151 295.497 196.119 294.463 197.833C293.328 199.714 292.28 201.574 291.526 203.643C291.36 204.091 291.188 204.576 290.822 204.88C290.405 202.644 288.976 200.742 288.193 198.607C284.803 189.376 292.079 179.718 297.559 173.07H297.552Z" fill="#F8D12E"/>
<path d="M294.521 184.674C291.123 190.223 290.786 197.074 290.757 203.592C290.728 210.11 290.858 216.874 288.2 222.821" stroke="#323232" stroke-width="0.5" stroke-miterlimit="10" stroke-linecap="round"/>
<path d="M275.343 238.976H290.448C292.868 236.82 294.657 233.644 295.339 229.889L296.876 213.836H268.233L270.337 229.13C270.898 233.203 272.758 236.668 275.343 238.976Z" fill="#00E5FF"/>
<path d="M293.378 221.779C293.321 226.142 292.919 228.876 292.215 231.56" stroke="#222221" stroke-width="0.5" stroke-miterlimit="10"/>
<path d="M293.658 217.417C293.594 218.213 293.536 219.016 293.472 219.812" stroke="#222221" stroke-width="0.5" stroke-miterlimit="10"/>
<path d="M268.161 238.81H295.131" stroke="#222221" stroke-width="0.5" stroke-miterlimit="10"/>
<path d="M84.9028 149.818H37.6284V235.923H84.9028V149.818Z" fill="#651FFF"/>
<path d="M195.835 147.706H30.9775V150.983H195.835V147.706Z" fill="#27007F"/>
<path d="M37.6284 167.116H84.8956" stroke="black" stroke-width="0.5" stroke-miterlimit="10"/>
<path d="M37.6284 183.263H84.8956" stroke="black" stroke-width="0.5" stroke-miterlimit="10"/>
<path d="M37.6284 199.411H84.8956" stroke="black" stroke-width="0.5" stroke-miterlimit="10"/>
<path d="M37.6284 215.55H84.8956" stroke="black" stroke-width="0.5" stroke-miterlimit="10"/>
<path d="M61.4957 175.189C62.531 175.189 63.3703 174.344 63.3703 173.301C63.3703 172.258 62.531 171.413 61.4957 171.413C60.4604 171.413 59.6211 172.258 59.6211 173.301C59.6211 174.344 60.4604 175.189 61.4957 175.189Z" fill="#222221"/>
<path d="M63.3703 190.375C63.3703 191.416 62.53 192.263 61.4957 192.263C60.4614 192.263 59.6211 191.416 59.6211 190.375C59.6211 189.333 60.4614 188.486 61.4957 188.486C62.53 188.486 63.3703 189.333 63.3703 190.375Z" fill="#222221"/>
<path d="M63.3703 207.441C63.3703 208.483 62.53 209.329 61.4957 209.329C60.4614 209.329 59.6211 208.483 59.6211 207.441C59.6211 206.399 60.4614 205.553 61.4957 205.553C62.53 205.553 63.3703 206.399 63.3703 207.441Z" fill="#222221"/>
<path d="M255.923 51.7119C265.395 51.7119 273.074 43.9772 273.074 34.436C273.074 24.8948 265.395 17.1602 255.923 17.1602C246.45 17.1602 238.771 24.8948 238.771 34.436C238.771 43.9772 246.45 51.7119 255.923 51.7119Z" fill="#ECECFE"/>
<path d="M250.837 22.6006L255.923 34.4362L266.021 31.9403" stroke="#3A434B" stroke-width="0.5" stroke-miterlimit="10"/>
<path d="M255.922 17.5073V19.7211" stroke="#3A434B" stroke-width="0.5" stroke-miterlimit="10"/>
<path d="M255.922 49.1436V51.3573" stroke="#3A434B" stroke-width="0.5" stroke-miterlimit="10"/>
<path d="M247.519 19.772L248.625 21.6963" stroke="#3A434B" stroke-width="0.5" stroke-miterlimit="10"/>
<path d="M263.227 47.1689L264.326 49.0933" stroke="#3A434B" stroke-width="0.5" stroke-miterlimit="10"/>
<path d="M241.371 25.9717L243.274 27.0786" stroke="#3A434B" stroke-width="0.5" stroke-miterlimit="10"/>
<path d="M268.571 41.7861L270.481 42.893" stroke="#3A434B" stroke-width="0.5" stroke-miterlimit="10"/>
<path d="M239.116 34.436H241.321" stroke="#3A434B" stroke-width="0.5" stroke-miterlimit="10"/>
<path d="M270.531 34.436H272.729" stroke="#3A434B" stroke-width="0.5" stroke-miterlimit="10"/>
<path d="M241.371 42.893L243.274 41.7861" stroke="#3A434B" stroke-width="0.5" stroke-miterlimit="10"/>
<path d="M268.571 27.0786L270.481 25.9717" stroke="#3A434B" stroke-width="0.5" stroke-miterlimit="10"/>
<path d="M247.519 49.0933L248.625 47.1689" stroke="#3A434B" stroke-width="0.5" stroke-miterlimit="10"/>
<path d="M263.227 21.6963L264.326 19.772" stroke="#3A434B" stroke-width="0.5" stroke-miterlimit="10"/>
<path d="M255.922 35.9483C256.752 35.9483 257.424 35.2714 257.424 34.4363C257.424 33.6013 256.752 32.9243 255.922 32.9243C255.093 32.9243 254.421 33.6013 254.421 34.4363C254.421 35.2714 255.093 35.9483 255.922 35.9483Z" fill="black"/>
<path d="M255.923 54.6202C266.99 54.6202 275.961 45.5835 275.961 34.4361C275.961 23.2887 266.99 14.252 255.923 14.252C244.855 14.252 235.884 23.2887 235.884 34.4361C235.884 45.5835 244.855 54.6202 255.923 54.6202Z" stroke="black" stroke-width="0.5" stroke-miterlimit="10"/>
<path d="M134.806 22.7085H56.2163V75.5562H134.806V22.7085Z" fill="white" stroke="#3A434B" stroke-width="0.5" stroke-miterlimit="10"/>
<path d="M134.978 24.7271V21.7465C134.978 20.7916 134.095 20.0103 133.003 20.0103H58.0049C56.9132 20.0103 56.0298 20.7843 56.0298 21.7465V24.7271H134.978Z" fill="#27007F"/>
<path d="M139.611 31.2603H101.2V55.6114H139.611V31.2603Z" fill="#00E5FF"/>
<path d="M139.611 31.2603C139.611 31.2603 121.806 42.2856 120.405 43.4358L101.2 31.2603" stroke="#3A434B" stroke-width="0.5" stroke-miterlimit="10"/>
<path d="M129.29 40.0137H90.8789V64.3648H129.29V40.0137Z" fill="#F8D12E"/>
<path d="M129.29 40.0137C129.29 40.0137 111.485 51.039 110.085 52.1893L90.8789 40.0137" stroke="#3A434B" stroke-width="0.5" stroke-miterlimit="10"/>
<path d="M297.358 64.5098H258.946V88.8609H297.358V64.5098Z" fill="#F8D12E"/>
<path d="M297.358 64.5098C297.358 64.5098 279.553 75.5351 278.152 76.6854L258.946 64.5098" stroke="#3A434B" stroke-width="0.5" stroke-miterlimit="10"/>
<path d="M79.071 51.9794L75.1853 49.3461L75.0201 54.0629L72.9588 49.8235L70.4737 53.8242L70.7969 49.1146L66.6598 51.3283L69.2742 47.4145L64.5913 47.2408L68.8002 45.1718L64.8283 42.6687L69.504 42.9942L67.3062 38.8272L71.1991 41.4605L71.3643 36.7437L73.4184 40.983L75.9035 36.9824L75.5875 41.692L79.7246 39.4783L77.103 43.3921L81.7859 43.5657L77.577 45.6348L81.5489 48.1379L76.8732 47.8124L79.071 51.9794Z" fill="#00E5FF"/>
<path d="M207.829 49.2881H158.178V96.0082H207.829V49.2881Z" fill="white" stroke="#3A434B" stroke-width="0.5" stroke-miterlimit="10"/>
<path d="M207.987 51.0679V48.4346C207.987 47.5882 207.24 46.9009 206.321 46.9009H159.686C158.767 46.9009 158.02 47.5882 158.02 48.4346V51.0679H207.98H207.987Z" fill="#27007F"/>
<path d="M202.917 60.299C202.917 62.2668 201.329 63.8656 199.376 63.8656C197.422 63.8656 195.835 62.2668 195.835 60.299C195.835 58.3312 197.422 56.7324 199.376 56.7324C201.329 56.7324 202.917 58.3312 202.917 60.299Z" fill="#CF6161"/>
<path d="M199.376 72.6122C201.331 72.6122 202.917 71.0154 202.917 69.0456C202.917 67.0758 201.331 65.479 199.376 65.479C197.42 65.479 195.835 67.0758 195.835 69.0456C195.835 71.0154 197.42 72.6122 199.376 72.6122Z" fill="#CF6161"/>
<path d="M199.376 81.3588C201.331 81.3588 202.917 79.7619 202.917 77.7922C202.917 75.8224 201.331 74.2256 199.376 74.2256C197.42 74.2256 195.835 75.8224 195.835 77.7922C195.835 79.7619 197.42 81.3588 199.376 81.3588Z" fill="#CF6161"/>
<path d="M199.376 90.1122C201.331 90.1122 202.917 88.5154 202.917 86.5456C202.917 84.5758 201.331 82.979 199.376 82.979C197.42 82.979 195.835 84.5758 195.835 86.5456C195.835 88.5154 197.42 90.1122 199.376 90.1122Z" fill="#CF6161"/>
<path d="M163.141 59.8867H190.218" stroke="#3A434B" stroke-width="0.5" stroke-miterlimit="10"/>
<path d="M163.141 69.0454H190.218" stroke="#3A434B" stroke-width="0.5" stroke-miterlimit="10"/>
<path d="M163.141 78.2046H190.218" stroke="#3A434B" stroke-width="0.5" stroke-miterlimit="10"/>
<path d="M163.141 87.3633H190.218" stroke="#3A434B" stroke-width="0.5" stroke-miterlimit="10"/>
<path d="M125.914 171.457V227.212" stroke="black" stroke-miterlimit="10"/>
<path d="M135.129 237.08L125.914 226.366L115.5 237.08" stroke="black" stroke-miterlimit="10"/>
<path d="M148.639 235.453L125.807 226.12L103.707 235.453" stroke="black" stroke-miterlimit="10"/>
<path d="M144.983 235.626C144.983 237.073 146.147 238.245 147.583 238.245C149.02 238.245 150.183 237.073 150.183 235.626C150.183 234.179 149.02 233.007 147.583 233.007C146.147 233.007 144.983 234.179 144.983 235.626Z" fill="#222221"/>
<path d="M101.796 235.626C101.796 236.878 102.801 237.891 104.044 237.891C105.287 237.891 106.292 236.878 106.292 235.626C106.292 234.375 105.287 233.362 104.044 233.362C102.801 233.362 101.796 234.375 101.796 235.626Z" fill="#222221"/>
<path d="M113.094 236.9C113.094 238.607 114.466 239.989 116.161 239.989C117.856 239.989 119.227 238.607 119.227 236.9C119.227 235.192 117.856 233.811 116.161 233.811C114.466 233.811 113.094 235.192 113.094 236.9Z" fill="#222221"/>
<path d="M132.271 237.659C132.271 239.214 133.527 240.48 135.072 240.48C136.616 240.48 137.873 239.214 137.873 237.659C137.873 236.103 136.616 234.837 135.072 234.837C133.527 234.837 132.271 236.103 132.271 237.659Z" fill="#222221"/>
<path d="M115.945 168.035C117.123 163.947 117.683 159.621 118.387 155.403C120.197 144.508 123.681 132.239 135.725 129.323C141.838 127.847 150.507 128.419 155.398 132.774C159.686 136.587 160.641 142.721 160.799 148.183C161.28 164.729 159.449 186.91 137.765 192.155C132.953 193.319 127.803 193.355 122.754 193.319C114.48 193.261 106.227 193.695 97.9821 192.849C94.9943 192.545 89.8158 192.314 87.6036 190.136C83.1218 185.738 95.4755 184.595 97.7666 184.146C104.489 182.822 109.833 180.833 113.374 174.408C114.487 172.39 115.306 170.249 115.938 168.035H115.945Z" fill="#00E5FF"/>
<path d="M140.681 188.197C146.556 185.795 151.979 181.187 153.789 175.074" stroke="#222221" stroke-width="0.5" stroke-miterlimit="10"/>
<path d="M128.658 134.843C125.362 138.222 123.781 142.468 122.28 146.954" stroke="#222221" stroke-width="0.5" stroke-miterlimit="10"/>
<path d="M155.886 168.737C155.606 169.721 155.326 170.705 155.046 171.688" stroke="#222221" stroke-width="0.5" stroke-miterlimit="10"/>
<path d="M190.168 149.493V235.923" stroke="black" stroke-width="2" stroke-miterlimit="10"/>
<path d="M206.788 139.393C206.766 139.459 206.737 139.524 206.709 139.581C206.192 140.703 205.488 141.737 204.64 142.634C204.935 143.025 205.323 143.343 205.754 143.56C205.387 144.863 204.482 145.601 203.879 146.7C204.949 147.366 206.105 148.14 207.291 148.632C209.079 149.37 211.061 149.464 212.993 149.355C214.925 149.247 216.843 148.957 218.775 148.965C220.535 148.972 222.287 149.232 224.054 149.283C227.344 149.377 230.655 148.4 233.37 146.534C232.637 145.839 232.106 144.928 231.861 143.944C231.955 144.327 233.449 143.712 233.585 143.56C232.127 143.032 231.215 141.303 230.648 139.943C229.757 137.809 229.427 135.523 228.593 133.374C226.963 129.193 221.763 126.907 217.511 127.066C214.818 127.167 211.88 128.18 210.063 130.271C208.512 132.05 207.944 134.402 207.334 136.63C207.068 137.606 207.161 138.482 206.802 139.386L206.788 139.393Z" fill="black"/>
<path d="M222.553 208.07C217.877 207.245 213.058 207.274 208.382 208.113C205.258 208.678 202.536 209.9 199.619 211.014C196.208 212.316 192.811 213.279 189.291 214.255C185.348 215.348 181.506 216.766 177.756 218.401C175.487 219.392 173.188 220.354 170.919 221.367C168.757 222.336 166.573 223.313 164.699 224.76C161.79 227.002 160.878 229.317 161.108 232.833C161.323 236.226 163.083 238.968 165.92 240.791C169.245 242.933 173.526 243.309 177.368 242.933C182.899 242.39 188.616 240.241 193.974 242.282C198.987 244.184 205.186 245.711 210.544 246.195C214.781 246.579 219.062 246.195 223.271 245.703C230.906 244.814 238.469 242.716 246.104 242.687C254.687 242.651 266.581 242.983 273.124 236.393C276.205 233.289 276.895 228.688 274.438 224.948C272.908 222.611 270.955 220.962 268.577 219.529C258.967 213.72 246.958 214.393 236.077 211.709C231.933 210.681 227.918 209.162 223.738 208.294C223.343 208.215 222.948 208.135 222.553 208.07Z" fill="#27007F"/>
<path d="M207.47 163.383C207.47 163.383 200.596 164.215 199.986 164.323C198.047 164.671 196.143 166.002 194.499 167.08C190.534 169.691 187.381 173.366 184.544 177.143C181.958 180.579 179.653 184.189 177.634 187.987C176.715 189.723 175.379 191.25 174.395 192.979C173.957 193.753 173.627 194.505 173.131 195.243C172.98 195.468 171.931 197.79 171.924 197.79C175.063 197.725 178.209 197.963 181.283 198.593C181.972 198.73 182.662 198.89 183.359 198.969C184.113 199.049 184.874 199.034 185.635 199.063C186.404 199.092 187.151 199.208 187.912 199.302C188.789 199.403 188.875 199.107 189.464 198.434C190.39 197.37 191.302 196.292 192.222 195.214C194.197 192.914 195.878 190.215 198.039 188.117C200.302 185.918 202.579 183.842 204.36 181.201C205.631 179.306 206.22 177.447 206.737 175.493C207.032 174.386 207.305 173.243 207.671 172.05C208.626 168.91 208.784 166.566 207.47 163.39V163.383Z" fill="#651FFF"/>
<path d="M226.985 165.329C226.999 165.047 227.164 164.678 227.013 164.446C226.719 163.998 225.993 163.991 225.555 163.745C225.124 163.499 224.744 163.18 224.42 162.804C223.796 162.088 223.393 161.191 223.199 160.265C222.718 158.03 222.69 155.476 222.79 153.197C222.804 152.908 222.934 152.647 223.135 152.445C225.053 150.47 225.821 147.315 226.029 144.646C226.123 143.409 226.065 142.186 226.087 140.949C226.108 139.35 226.051 137.751 225.893 136.153C225.85 135.726 225.799 135.27 225.562 134.908C224.916 133.91 222.927 133.599 221.95 132.846C220.556 131.768 218.969 132.897 217.382 133.28C215.55 133.729 213.683 134.011 211.808 134.12C211.485 134.141 211.147 134.156 210.846 134.286C209.302 134.973 209.409 138.236 209.273 139.618C208.914 143.293 209.452 147.163 211.054 150.52C211.413 151.273 211.916 151.945 212.354 152.647C213.051 153.754 212.742 155.418 212.577 156.633C212.376 158.153 211.988 159.773 211.176 161.097C210.609 162.03 209.682 162.739 208.634 163.036C208.224 163.152 207.808 163.209 207.405 163.347C207.276 163.39 207.154 163.441 207.068 163.549C206.917 163.73 207.032 163.868 207.132 164.027C209.395 167.695 210.458 171.833 211.226 176.051C211.449 177.266 212.835 188.884 212.333 188.906C215.586 188.783 218.883 188.378 221.504 186.504C222.855 185.542 223.867 184.153 225.218 183.213C225.699 182.88 226.202 182.641 226.719 182.446C226.353 179.183 226.13 175.906 226.094 172.629C226.08 171.138 226.015 169.612 226.288 168.158C226.46 167.261 226.841 166.385 226.97 165.495C226.977 165.445 226.985 165.387 226.985 165.336V165.329Z" fill="white" stroke="#222221" stroke-width="0.5" stroke-miterlimit="10"/>
<path d="M259.406 194.223C257.589 190.577 255.125 187.517 253.136 183.936C250.421 179.031 247.849 176.188 244.466 171.767C242.642 169.387 240.15 167.535 237.399 166.392C234.21 165.076 230.576 164.728 227.164 164.28C227.674 164.728 228.04 165.329 228.234 165.98C228.435 166.667 228.256 167.318 228.227 168.02C228.155 169.763 228.134 171.507 228.162 173.251C228.184 174.994 228.256 176.73 228.371 178.474C228.399 178.922 228.909 183.661 228.83 183.683C229.656 183.451 230.518 183.27 231.387 183.031C232.716 182.67 233.082 183.27 233.678 184.24C235.438 187.141 237.212 190.237 239.324 192.892C240.387 194.23 241.593 195.453 242.506 196.9C243.195 197.992 243.475 199.36 244.905 199.562C247.914 200.004 250.959 200.126 253.99 199.931C256.533 199.772 258.975 199.381 261.438 198.766C260.576 197.609 260.325 196.133 259.722 194.853C259.621 194.643 259.521 194.433 259.42 194.23L259.406 194.223Z" fill="#651FFF"/>
<path d="M236.114 184.428C235.948 183.719 235.683 183.068 235.28 182.547C233.7 180.5 231.222 179.017 230.518 176.354C229.915 174.061 230.389 171.124 231.194 168.946C231.51 168.092 232.63 167.289 233.628 166.58C234.088 166.248 233.93 165.524 233.37 165.416C232.738 165.293 232.084 165.141 231.783 165.011C230.655 164.888 229.534 164.743 228.428 164.468C227.94 164.345 227.373 164.388 226.848 164.186C224.313 166.79 220.068 167.68 216.606 167.485C213.144 167.297 209.754 165.691 207.485 163.072C206.156 163.585 204.834 163.716 203.427 163.904C204.353 164.62 204.877 165.966 205.165 167.109C206.141 170.95 205.904 175.117 204.346 178.771C203.656 180.384 202.873 181.592 201.423 182.59C200.087 183.509 198.887 183.907 199.153 186.005C199.354 189.998 199.548 193.977 199.749 197.971C199.706 200.322 200.238 202.97 199.95 205.393C199.886 205.95 199.117 211.268 198.916 211.34C200.568 210.797 202.349 211.347 204.023 211.796C214.329 214.523 225.218 213.112 235.783 211.687C236.279 204.829 236.451 197.942 236.315 191.069C236.279 189.174 236.609 186.519 236.121 184.428H236.114Z" fill="#651FFF"/>
<path d="M173.907 197.949C172.729 200.3 172.284 203.36 172.808 205.936C173.21 207.904 174.381 209.785 176.169 210.674C176.421 210.797 176.672 210.899 176.931 210.985C178.489 211.492 180.227 211.354 181.886 211.195C186.763 210.725 191.633 210.197 196.495 209.611C201.444 209.01 206.644 208.287 211.392 206.768C212.85 206.298 214.911 205.538 215.924 204.323C217.015 203.013 217.008 200.821 217.202 199.208C217.597 195.858 218.646 192.328 218.344 188.949C218.272 188.19 217.87 187.191 217.13 187.358C216.635 187.466 216.426 188.059 216.312 188.559C215.802 190.693 215.299 192.827 214.789 194.968C214.473 196.292 214.15 197.652 213.41 198.795C211.456 201.812 206.888 201.168 203.829 201.081C199.907 200.973 191.137 199.873 187.295 199.092" fill="white"/>
<path d="M173.907 197.949C172.729 200.3 172.284 203.36 172.808 205.936C173.21 207.904 174.381 209.785 176.169 210.674C176.421 210.797 176.672 210.899 176.931 210.985C178.489 211.492 180.227 211.354 181.886 211.195C186.763 210.725 191.633 210.197 196.495 209.611C201.444 209.01 206.644 208.287 211.392 206.768C212.85 206.298 214.911 205.538 215.924 204.323C217.015 203.013 217.008 200.821 217.202 199.208C217.597 195.858 218.646 192.328 218.344 188.949C218.272 188.19 217.87 187.191 217.13 187.358C216.635 187.466 216.426 188.059 216.312 188.559C215.802 190.693 215.299 192.827 214.789 194.968C214.473 196.292 214.15 197.652 213.41 198.795C211.456 201.812 206.888 201.168 203.829 201.081C199.907 200.973 191.137 199.873 187.295 199.092" stroke="#222221" stroke-width="0.5" stroke-miterlimit="10"/>
<path d="M259.801 198.998C260.074 199.222 260.232 199.562 260.354 199.895C261.539 203.02 261.266 206.696 258.759 208.996C258.429 209.3 258.077 209.575 257.704 209.821C253.854 212.382 249.516 212.309 245.106 211.579C242.398 211.13 239.705 210.646 237.011 210.125C231.682 209.097 226.381 207.933 221.109 206.638C218.071 205.893 216.994 204.699 216.936 201.516C216.857 197.081 216.319 191.908 217.719 187.625C219.192 189 219.666 191.141 219.845 193.16C220.018 195.178 219.975 197.255 220.7 199.143C221.82 202.051 228.198 201.161 230.533 201.096C234.562 200.988 242.326 199.888 246.276 199.107" fill="white"/>
<path d="M259.801 198.998C260.074 199.222 260.232 199.562 260.354 199.895C261.539 203.02 261.266 206.696 258.759 208.996C258.429 209.3 258.077 209.575 257.704 209.821C253.854 212.382 249.516 212.309 245.106 211.579C242.398 211.13 239.705 210.646 237.011 210.125C231.682 209.097 226.381 207.933 221.109 206.638C218.071 205.893 216.994 204.699 216.936 201.516C216.857 197.081 216.319 191.908 217.719 187.625C219.192 189 219.666 191.141 219.845 193.16C220.018 195.178 219.975 197.255 220.7 199.143C221.82 202.051 228.198 201.161 230.533 201.096C234.562 200.988 242.326 199.888 246.276 199.107" stroke="#222221" stroke-width="0.5" stroke-miterlimit="10"/>
<path d="M219.824 135.747C220.226 135.545 220.65 135.393 221.102 135.313C222.072 135.147 223.07 135.364 224.054 135.429C225.038 135.487 226.13 135.342 226.798 134.604C228.4 132.853 225.218 130.495 223.939 129.764C222.086 128.708 219.946 128.267 217.827 128.042C215.529 127.797 213.238 128.932 211.449 130.314C209.251 132.007 208.368 135.096 208.404 137.78C208.404 137.954 208.418 138.142 208.519 138.279C208.634 138.431 208.835 138.496 209.022 138.54C211.859 139.22 214.954 138.735 217.454 137.223C218.251 136.746 219.012 136.152 219.838 135.747H219.824Z" fill="black"/>
<path d="M215.112 234.179C209.237 233.34 203.254 233.651 197.35 233.138C194.197 232.863 191.159 231.973 188.107 231.184C185.7 230.562 182.152 230.056 179.703 230.432C178.884 230.555 178.08 230.808 177.254 230.794C176.428 230.786 175.537 230.461 175.142 229.723C174.747 228.985 174.977 228.023 175.509 227.372C176.04 226.721 176.816 226.323 177.584 225.997C182.504 223.906 188.236 223.935 192.797 221.143C193.256 220.861 193.716 220.542 194.24 220.405C196.208 219.884 198.823 222.206 200.101 223.537C200.941 224.413 202.234 224.637 203.434 224.782C206.874 225.187 210.343 225.303 213.798 225.129C215.759 225.028 215.033 228.891 215.055 230.237C215.055 230.483 215.019 234.165 215.112 234.179Z" fill="white" stroke="#222221" stroke-width="0.5" stroke-miterlimit="10"/>
<path d="M266.215 220.889C262.308 220.933 258.602 222.032 254.852 220.716C251.039 219.377 247.11 217.439 243.03 218.828C239.698 219.956 236.638 222.908 232.946 222.655C231.474 222.553 230.109 221.909 228.709 221.446C225.685 220.441 223.983 221.794 221.203 222.763C219.594 223.32 217.913 223.675 216.218 223.819C214.006 224 212.462 223.204 211.974 225.881C211.334 229.39 210.853 233 210.178 236.538C210.042 237.254 209.905 237.97 209.761 238.686C209.625 239.634 209.474 240.582 209.302 241.529C210.803 241.819 212.311 242.101 213.819 242.369C223.293 244.047 232.838 245.638 242.477 245.834C250.945 246 261.331 245.747 269.109 242.079C274.891 239.352 279.237 232.964 275.617 226.612C274.977 225.483 274.108 224.507 273.254 223.53C271.451 221.483 268.872 220.868 266.215 220.897V220.889Z" fill="#27007F"/>
<path d="M230.482 250.638C236.738 250.052 243.059 250.681 249.329 250.45C255.707 250.211 262.394 247.382 268.685 249.48C269.404 249.719 270.143 250.016 270.89 249.9C271.637 249.784 272.348 249.053 272.133 248.323C272.054 248.069 271.882 247.852 271.709 247.65C269.921 245.516 268.197 244.532 265.741 243.295C263.184 242.39 260.368 242.506 257.926 241.218C255.341 239.858 252.669 237.847 249.825 238.513C248.826 238.744 247.936 239.294 247.002 239.714C243.641 241.226 241.076 240.14 237.751 239.981C237.291 239.96 231.165 239.815 231.158 239.938L230.482 250.638Z" fill="white" stroke="#222221" stroke-width="0.5" stroke-miterlimit="10"/>
<path d="M236.932 248.713C237.428 245.573 238.721 241.84 238.548 238.672C237.356 238.57 236.156 238.462 234.964 238.361C234.253 238.295 233.52 238.23 232.867 237.927C232.048 237.543 231.445 236.834 230.806 236.19C225.95 231.271 219.141 228.84 212.397 229.802C210.76 230.034 209.115 230.403 207.47 230.215C205.143 229.954 202.672 228.674 200.532 227.762C197.846 226.612 195.145 225.519 192.365 224.593C189.837 223.754 187.237 223.024 184.58 222.915C182.655 222.835 180.737 223.089 178.82 223.241C176.521 223.429 174.216 223.487 171.917 223.407C170 223.342 167.981 222.915 166.15 223.704C164.886 224.246 163.895 225.288 163.097 226.424C161.223 229.093 160.289 232.464 160.749 235.698C161.208 238.932 163.126 241.978 165.949 243.584C167.651 244.553 169.597 244.98 171.522 245.335C180.945 247.071 190.656 247.613 200.166 248.937C211.93 250.58 223.925 252.135 235.783 252.62C235.955 252.62 236.156 252.62 236.264 252.489C236.329 252.41 236.343 252.309 236.357 252.215C236.544 251.043 236.724 249.878 236.911 248.706L236.932 248.713Z" fill="#27007F"/>
<path d="M215.895 148.075C216.434 148.552 217.152 148.82 217.87 148.813C218.588 148.805 219.299 148.523 219.831 148.039" stroke="#2D2B3F" stroke-width="0.75" stroke-miterlimit="10"/>
<path d="M207.75 230.179C211.6 230.034 215.471 229.441 219.278 230.012C223.408 230.635 227.315 232.653 230.216 235.662C230.755 236.227 231.279 236.827 231.955 237.211C232.479 237.507 233.068 237.659 233.657 237.775C235.086 238.057 237.428 238.44 238.886 238.361C238.376 240.531 237.952 242.434 237.693 244.648C237.499 246.348 237.356 248.12 236.537 249.625" stroke="#222221" stroke-width="0.5" stroke-miterlimit="10"/>
<path d="M242.764 243.888C243.174 243.598 243.791 243.678 244.114 244.054C244.438 244.43 244.43 245.06 244.086 245.421" stroke="#060085" stroke-width="0.5" stroke-miterlimit="10"/>
<path d="M257.359 220.275C251.735 219.573 245.723 219.211 240.136 220.275C235.539 221.15 230.921 221.895 226.281 222.51C222.876 222.959 219.472 223.342 216.053 223.653C214.236 223.82 212.972 223.335 212.412 225.115C211.916 226.684 211.701 228.413 211.349 230.02" stroke="#222221" stroke-width="0.5" stroke-miterlimit="10"/>
<path d="M272.858 230.28C273.476 230.475 273.957 231.047 274.051 231.683C274.144 232.327 273.857 233.014 273.325 233.383" stroke="#222221" stroke-width="0.5" stroke-miterlimit="10"/>
<path d="M165.187 231.43C164.448 231.676 163.859 232.32 163.672 233.08C163.485 233.839 163.708 234.693 164.247 235.257" stroke="#222221" stroke-width="0.5" stroke-miterlimit="10"/>
<path d="M258.946 204.713C259.183 205.379 258.953 206.189 258.407 206.631" stroke="#222221" stroke-width="0.5" stroke-miterlimit="10"/>
<path d="M227.013 164.171C224.83 166.045 221.31 167.355 219.694 167.412C217.073 167.514 214.444 167.391 211.909 166.718" stroke="#222221" stroke-width="0.5" stroke-miterlimit="10"/>
<path d="M236.903 189.709H236.673C236.458 187.416 236.041 185.115 235.833 182.822" stroke="#222221" stroke-width="0.5" stroke-miterlimit="10"/>
<path d="M199.347 188.429C199.727 185.976 200.108 183.524 200.489 181.064" stroke="#222221" stroke-width="0.5" stroke-miterlimit="10"/>
<path d="M220.039 142.034C220.197 142.186 220.391 142.287 220.585 142.374C221.871 142.945 223.451 142.764 224.578 141.925" stroke="black" stroke-width="0.5" stroke-miterlimit="10"/>
<path d="M215.378 142.034C215.22 142.186 215.026 142.287 214.832 142.374C213.546 142.945 211.966 142.764 210.838 141.925" stroke="black" stroke-width="0.5" stroke-miterlimit="10"/>
<path d="M222.711 153.385C222.761 153.096 222.847 152.806 222.977 152.531C222.61 152.756 222.23 152.944 221.82 153.074C220.951 153.356 220.046 153.457 219.141 153.559C218.38 153.645 217.619 153.725 216.85 153.797C218.71 154.419 220.714 154.608 222.661 154.383C222.632 154.05 222.661 153.718 222.711 153.385Z" fill="black"/>
<path d="M187.668 223.27C182.353 223.096 176.119 223.82 171.099 225.592" stroke="#222221" stroke-width="0.5" stroke-miterlimit="10"/>
<path d="M174.646 206.334C174.761 207.463 175.659 208.475 176.758 208.714" stroke="black" stroke-width="0.5" stroke-miterlimit="10"/>
<path d="M189.751 174.025C186.835 176.904 184.25 180.138 182.073 183.625" stroke="black" stroke-width="0.5" stroke-miterlimit="10"/>
<path d="M181.448 184.978C180.55 186.41 179.645 187.85 178.748 189.282" stroke="black" stroke-width="0.5" stroke-miterlimit="10"/>
<path d="M208.354 164.287L209.294 164.982" stroke="#222221" stroke-width="0.5" stroke-miterlimit="10"/>
<path d="M227.056 133.801C226.712 134.568 225.893 135.017 225.074 135.198C224.255 135.378 223.408 135.342 222.582 135.443C221.196 135.61 219.853 136.152 218.739 136.992C217.813 137.693 217.044 138.59 216.082 139.234C213.618 140.869 210.487 139.473 207.887 139.017" stroke="black" stroke-width="0.5" stroke-miterlimit="10"/>
<path d="M23.6158 181.288C25.0667 178.517 26.9772 175.754 28.9452 173.323C30.3098 171.637 31.9043 170.009 33.9584 169.358C36.0126 168.707 38.6198 169.351 39.5894 171.29C41.9452 175.992 36.1922 185.318 33.9656 189.275C31.854 193.029 29.1391 196.292 26.2518 199.309C24.6357 200.995 22.9551 202.543 21.2816 204.185C21.1379 204.322 20.944 204.474 20.7716 204.373C20.6423 204.293 20.6064 204.105 20.5921 203.946C19.9097 198.325 19.1556 192.212 21.1451 186.764C21.7915 184.999 22.6462 183.147 23.6158 181.295V181.288Z" fill="#F8D12E"/>
<path d="M19.3422 213.496C19.5505 211.484 19.3782 209.452 18.9759 207.477C18.6887 206.073 18.5378 204.322 17.9489 203.027C16.577 200.018 14.2715 197.529 13.3881 194.317C12.1599 189.861 11.2118 185.1 8.23112 181.584C7.58471 180.825 6.82337 180.116 5.90403 179.747C4.40292 179.139 2.54986 179.544 1.4366 180.731C0.000121508 182.25 -0.0788846 184.579 0.0360333 186.663C0.265869 190.924 1.24985 194.766 2.52832 198.795C3.58413 202.13 5.69574 205.458 8.74107 207.259C10.5582 208.337 12.598 208.8 14.5229 209.589C16.4621 210.378 18.1715 211.557 19.3422 213.488V213.496Z" fill="#00C853"/>
<path d="M32.5794 197.819C34.7413 196.075 37.1187 194.534 38.6485 192.227C39.3309 191.199 39.8193 190.056 40.5519 189.065C41.2845 188.074 42.3331 187.22 43.5613 187.155C44.5955 187.105 45.5939 187.626 46.3193 188.363C48.4525 190.527 48.8116 193.782 47.7702 196.567C47.332 197.739 46.6569 198.803 45.9746 199.844C44.8972 201.487 43.8558 203.223 42.6204 204.742C41.737 205.835 40.4369 206.79 39.374 207.716C36.6949 210.06 33.427 211.68 29.9866 212.534C29.2324 212.534 28.3706 213.192 27.7601 213.532C26.7473 214.096 25.7059 214.603 24.6716 215.124C24.3269 215.297 23.9678 215.478 23.7451 215.796C23.781 214.842 23.8169 213.887 23.8529 212.932C23.9031 211.644 23.9534 210.334 24.4059 209.134C24.7363 208.236 25.0523 207.216 25.5263 206.384C25.9286 205.675 26.5606 205.14 27.0059 204.453C28.3777 202.355 29.649 200.387 31.538 198.701C31.8756 198.398 32.2275 198.101 32.5866 197.812L32.5794 197.819Z" fill="#F8D12E"/>
<path d="M21.8203 228.109C22.0573 224.297 22.2943 220.455 23.264 216.766C24.2264 213.069 25.9789 209.488 28.8159 206.949C32.6944 203.469 38.426 202.036 41.1409 197.573" stroke="#1C0C03" stroke-width="0.5" stroke-miterlimit="10"/>
<path d="M26.1799 186.236C25.9932 187.401 25.5622 188.515 25.1385 189.622C23.3285 194.375 21.6909 199.244 21.1379 204.301C20.6926 208.374 20.9655 212.49 20.7141 216.578C20.6423 217.771 20.5202 218.965 20.4053 220.159C20.276 221.483 20.1467 222.799 20.0103 224.123" stroke="#1C0C03" stroke-width="0.5" stroke-miterlimit="10"/>
<path d="M9.021 196.697C9.32266 199.396 10.9459 201.754 12.6912 203.823C15.7437 207.426 19.4283 210.739 19.3852 215.811C19.3636 218.321 18.7603 220.781 18.5664 223.284" stroke="#1C0C03" stroke-width="0.5" stroke-miterlimit="10"/>
<path d="M12.2677 243.186C12.2677 243.186 30.5612 243.294 30.5684 243.186L31.732 223.928H10.8169C10.8169 223.928 12.2677 243.15 12.2677 243.186Z" fill="#00E5FF"/>
<path d="M12.1744 229.903C12.5981 229.73 13.0147 229.52 13.2804 229.187C13.6611 228.71 14.0561 228.21 14.6092 227.95C15.0329 227.755 15.5142 227.718 15.9882 227.682C17.4606 227.566 18.933 227.378 20.3982 227.176C21.7556 226.988 22.9407 226.713 24.0612 225.859C24.5065 225.519 24.9231 225.092 25.038 224.542C25.1529 223.993 24.8441 223.327 24.2982 223.24C24.1833 223.219 24.0684 223.226 23.9534 223.24C22.9192 223.291 10.8672 224.506 10.8169 223.928C11.0036 226.026 11.2407 228.131 11.3628 230.236C11.6141 230.12 11.8943 230.019 12.1744 229.903Z" fill="#1C0C03"/>
<path d="M32.5867 220.426L10.7236 220.455C10.5369 220.455 10.3573 220.477 10.1777 220.506V225.599C10.3573 225.628 10.5369 225.65 10.7236 225.65L32.1271 225.606L32.5795 220.426H32.5867Z" fill="#00E5FF"/>
<path d="M30.3744 228.362C30.2954 230.728 30.1589 233.086 29.9722 235.445" stroke="#222221" stroke-width="0.5" stroke-miterlimit="10"/>
<path d="M30.0296 236.299C29.9937 236.805 29.9578 237.304 29.9219 237.811" stroke="#222221" stroke-width="0.5" stroke-miterlimit="10"/>
<path d="M38.3901 174.553C38.2393 178.134 36.5658 181.454 34.9282 184.638" stroke="#222221" stroke-width="0.5" stroke-miterlimit="10"/>
<path d="M34.0663 186.678C33.6497 187.445 33.2331 188.204 32.8237 188.971" stroke="#222221" stroke-width="0.5" stroke-miterlimit="10"/>
<path d="M186.95 8.20387C182.72 1.76521 174.302 0 167.859 0C156.375 0 147.059 6.10588 147.059 13.6297C147.059 17.5291 149.609 20.7846 152.654 22.926C154.019 23.8882 157.208 24.6695 157.689 26.2032C158.299 28.142 157.495 31.3903 156.863 33.264C156.317 34.899 155.376 36.4327 153.99 37.4455C155.915 36.042 157.869 35.4343 159.449 33.4521C161.108 31.3686 161.941 28.9667 162.235 26.3262C164.275 26.7675 165.59 27.2594 167.852 27.2594C177.096 27.2594 194.987 20.4518 186.943 8.20387H186.95Z" fill="#ECECFE"/>
<path d="M153.502 15.8363C152.863 14.8813 153.272 13.514 154.105 12.7255C154.938 11.9369 156.073 11.5897 157.172 11.2641C157.502 11.1628 157.862 11.0688 158.185 11.1845C158.465 11.2858 158.673 11.5318 158.838 11.785C159.664 13.0655 159.7 14.8162 158.939 16.1329C158.623 16.6827 157.862 17.1747 157.416 16.7189C157.294 16.5959 157.23 16.415 157.194 16.2414C156.842 14.6571 158.106 13.1668 159.47 12.3059C160.605 11.5897 161.934 11.0833 163.263 11.2135C164.591 11.3437 165.906 12.248 166.236 13.5502C166.567 14.8596 165.611 16.4295 164.268 16.4729C164.096 16.4729 163.909 16.4512 163.794 16.3282C163.686 16.2125 163.665 16.0316 163.672 15.8725C163.686 14.5051 164.606 13.2681 165.755 12.5446C166.904 11.8212 168.269 11.5173 169.605 11.3003C170.467 11.1556 171.415 11.0615 172.14 11.5463C173.117 12.2046 173.225 13.5864 173.16 14.7656C173.131 15.2937 173.081 15.8435 172.808 16.3065C172.542 16.7623 171.996 17.1023 171.487 16.9649C170.962 16.8202 170.661 16.2269 170.696 15.6844C170.725 15.1418 171.02 14.6498 171.343 14.2158C173.548 11.2713 177.821 10.1211 181.19 11.568" stroke="#222221" stroke-width="0.5" stroke-miterlimit="10"/>
<path d="M40.9182 67.6206C40.5735 66.398 40.3436 64.7268 40.4226 63.1208C44.5453 60.6538 47.4326 56.1033 47.4111 51.126C47.4111 49.6864 47.2531 48.2612 46.8149 46.8866C45.005 41.1787 39.5895 37.1997 33.6425 37.1997C26.0076 37.1997 19.8164 43.4358 19.8164 51.126C19.8164 58.8163 26.0076 65.0524 33.6425 65.0524C34.5187 65.0524 35.3806 64.9511 36.2209 64.7774C36.4292 65.7686 36.7381 66.7307 37.1977 67.6423C38.5624 70.348 41.2199 72.4677 44.2221 72.7643C42.4193 71.7153 41.4856 69.639 40.9182 67.6206Z" fill="#ECECFE"/>
<path d="M23.3931 53.5278C23.7019 54.2946 24.6643 54.6274 25.4688 54.461C26.2732 54.2946 26.9412 53.7376 27.5229 53.1516C28.55 52.1098 29.4622 50.6919 29.1318 49.2595C29.0743 49.0063 28.9307 48.7169 28.6721 48.6807C28.5213 48.659 28.3704 48.7241 28.2412 48.8109C27.2428 49.4403 26.9268 50.88 27.4224 51.9507C27.918 53.0214 29.0959 53.687 30.2666 53.7304C31.4373 53.7738 32.5937 53.2674 33.4915 52.5077C34.3821 51.7554 35.0644 50.7136 35.2296 49.5633C35.323 48.8977 34.9998 47.9934 34.339 48.073C34.0661 48.1092 33.8434 48.3118 33.6782 48.5288C32.7014 49.802 33.0462 51.8494 34.3103 52.8333C35.5744 53.8172 37.5208 53.687 38.7346 52.6452C39.9484 51.5962 40.3866 49.7804 39.9125 48.2394C39.8694 48.0875 39.812 47.9428 39.7042 47.827C39.4385 47.5304 38.9285 47.5955 38.6341 47.8632C38.3396 48.1309 38.2175 48.5433 38.1528 48.9412C37.9517 50.2 38.2318 51.5745 39.0865 52.5222C39.9341 53.4699 41.3849 53.8968 42.5413 53.3759" stroke="#222221" stroke-width="0.5" stroke-miterlimit="10"/>
<path d="M212.799 25.6245C213.065 24.3078 213.669 23.0056 214.459 21.8553C215.665 20.1118 217.899 18.5058 220.212 19.005C222.18 19.4318 223.322 21.2404 223.523 22.955C223.724 24.6695 223.228 26.3841 223.106 28.0987C222.833 32.0848 227.746 37.2141 223.027 40.2887C220.772 41.7573 218.596 40.636 217.985 38.3788C217.533 36.7077 218.308 34.7544 217.145 33.3509C216.649 32.7504 215.881 32.367 215.22 31.8967C212.893 30.2473 212.34 27.9106 212.799 25.6245Z" stroke="black" stroke-width="0.5" stroke-miterlimit="10"/>
<path d="M24.485 128.115C24.8226 126.856 24.4707 125.453 23.6303 124.462C21.8778 122.378 19.4861 123.116 17.6402 124.635C16.6778 125.431 16.2684 126.61 15.6364 127.645C14.6165 129.323 12.8424 130.271 11.6861 131.812C11.2336 132.412 10.7667 133.085 10.7811 133.845C10.8026 134.959 11.9303 135.805 13.0363 135.863C14.1424 135.921 15.1911 135.378 16.1104 134.749C17.0297 134.12 17.8844 133.389 18.9115 132.969C20.0248 132.514 21.3607 132.311 22.4165 131.645C23.6447 130.871 24.1187 129.461 24.485 128.122V128.115Z" stroke="black" stroke-width="0.5" stroke-miterlimit="10"/>
<path d="M13.0651 125.822C14.1678 125.822 15.0618 124.921 15.0618 123.81C15.0618 122.7 14.1678 121.799 13.0651 121.799C11.9623 121.799 11.0684 122.7 11.0684 123.81C11.0684 124.921 11.9623 125.822 13.0651 125.822Z" fill="black"/>
<path d="M39.6829 14.8308C42.089 15.2938 44.4089 18.2382 42.0531 20.1842C39.805 22.0435 36.458 21.4937 34.5475 24.033C34.1309 24.59 33.8364 25.2339 33.4055 25.7765C32.9817 26.3263 32.3569 26.7893 31.6674 26.7748C30.8701 26.7604 30.2093 26.102 29.843 25.3858C28.3563 22.4703 30.8486 18.2671 33.1326 16.4874C34.6624 15.2938 36.6017 14.6499 38.5409 14.7005C38.9216 14.7078 39.3022 14.7512 39.6757 14.8235L39.6829 14.8308Z" stroke="black" stroke-width="0.5" stroke-miterlimit="10"/>
<path d="M38.505 28.4679C39.4293 28.4679 40.1785 27.7133 40.1785 26.7823C40.1785 25.8514 39.4293 25.0967 38.505 25.0967C37.5808 25.0967 36.8315 25.8514 36.8315 26.7823C36.8315 27.7133 37.5808 28.4679 38.505 28.4679Z" fill="black"/>
<path d="M255.47 98.1787C258.17 98.1787 260.361 100.385 260.361 103.105C260.361 105.826 258.17 108.032 255.47 108.032" stroke="black" stroke-width="0.5" stroke-miterlimit="10"/>
<path d="M252.101 100.646C252.101 102.006 251.01 103.105 249.659 103.105C248.309 103.105 247.217 102.006 247.217 100.646C247.217 99.2857 248.309 98.186 249.659 98.186C251.01 98.186 252.101 99.2857 252.101 100.646Z" fill="black"/>
<path d="M141.033 97.0141L137.191 96.5366L137.385 100.754L133.19 100.639V105.066L128.996 104.943L129.592 108.756" stroke="black" stroke-width="0.5" stroke-miterlimit="10"/>
<path d="M270.984 127.124L267.141 126.646L267.335 130.864L263.141 130.748V135.169L258.946 135.053L259.535 138.865" stroke="black" stroke-width="0.5" stroke-miterlimit="10"/>
<path d="M237.801 66.2388L224.772 80.1651" stroke="black" stroke-width="0.5" stroke-miterlimit="10"/>
<path d="M234.246 73.0029L229.606 78.1756" stroke="black" stroke-width="0.5" stroke-miterlimit="10"/>
<path d="M178.97 172.694L170.15 182.113" stroke="black" stroke-width="0.5" stroke-miterlimit="10"/>
<path d="M179.703 169.373L174.345 175.045" stroke="black" stroke-width="0.5" stroke-miterlimit="10"/>
<path d="M19.6943 75.998C21.5977 75.998 23.1419 77.5535 23.1419 79.4706C23.1419 81.3877 21.5977 82.9431 19.6943 82.9431" fill="black"/>
<path d="M189.694 116.692C189.45 116.533 189.126 116.656 188.868 116.786C185.377 118.558 182.332 121.22 180.105 124.454C180.105 123.492 179.919 112.185 179.287 112.358C178.418 112.597 177.915 113.494 177.548 114.319C176.083 117.61 175.25 121.148 174.431 124.657C173.771 123.159 173.584 121.56 172.988 120.034C172.313 118.312 171.731 116.547 170.969 114.861C169.77 112.221 168.003 109.667 165.389 108.452C165.238 110.513 165.827 112.546 166.488 114.507C167.227 116.721 168.362 118.79 169.08 121.011C169.806 123.246 169.871 125.547 170.883 127.717C169.21 125.388 167.464 123 165.008 121.546C164.247 121.097 163.141 120.808 162.602 121.51C162.2 122.031 162.387 122.79 162.681 123.376C163.651 125.344 165.496 126.726 166.66 128.585C167.565 130.032 168.319 131.341 169.44 132.709C170.905 134.503 171.903 136.681 172.313 138.967C172.356 139.22 172.399 139.487 172.557 139.69C172.693 139.871 172.909 139.979 173.11 140.088C174.022 140.544 174.697 141.195 175.53 140.442C176.263 139.784 176.751 138.258 177.247 137.389C178.489 135.234 179.797 133.121 181.147 131.038C183.761 127.001 186.548 123.087 189.263 119.122C189.687 118.508 190.132 117.784 189.938 117.061C189.895 116.916 189.823 116.764 189.701 116.677L189.694 116.692Z" fill="#00C853"/>
<path d="M182.44 126.046C178.77 130.3 176.148 135.48 174.891 140.971" stroke="#222221" stroke-width="0.5" stroke-miterlimit="10"/>
<path d="M170.897 121.076C173.713 127.912 173.957 135.523 173.655 142.917" stroke="#222221" stroke-width="0.5" stroke-miterlimit="10"/>
<path d="M177.311 123.774C177.046 125.518 176.78 127.254 176.507 128.998" stroke="#222221" stroke-width="0.5" stroke-miterlimit="10"/>
<path d="M167.78 127.051C168.491 128.028 169.073 129.099 169.511 130.22" stroke="#222221" stroke-width="0.5" stroke-miterlimit="10"/>
<path d="M167.903 147.742C167.903 147.742 182.375 147.829 182.382 147.742L183.302 132.499H166.753C166.753 132.499 167.895 147.713 167.903 147.742Z" fill="#F8D12E"/>
<path d="M180.788 136.015C180.723 137.889 180.615 139.755 180.472 141.622" stroke="#222221" stroke-width="0.5" stroke-miterlimit="10"/>
<path d="M180.285 144.862C180.256 145.26 180.457 143.09 180.429 143.488" stroke="#222221" stroke-width="0.5" stroke-miterlimit="10"/>
<path d="M8.32471 243.577H39.5752" stroke="black" stroke-width="0.5" stroke-miterlimit="10"/>
<path d="M41.8091 243.577H45.903" stroke="black" stroke-width="0.5" stroke-miterlimit="10"/>
<path d="M35.481 236.089H95.0085" stroke="black" stroke-width="0.5" stroke-miterlimit="10"/>
</svg>
