<svg width="287" height="271" viewBox="0 0 287 271" fill="none" xmlns="http://www.w3.org/2000/svg">
<g clip-path="url(#clip0_144_4627)">
<path d="M85.6335 37.7998C84.7298 37.2777 83.7865 36.8482 82.8235 36.5177C82.8235 36.6103 82.8235 36.7028 82.8037 36.7953C82.553 38.2425 81.1744 39.2338 79.7364 39.0025C78.2918 38.7712 77.3287 37.4099 77.5794 35.9626C77.5992 35.8635 77.6321 35.7644 77.6585 35.6719C76.6163 35.6719 75.5741 35.7776 74.5517 35.9759C74.5978 36.0618 74.644 36.1477 74.6836 36.2402C75.1849 37.6081 74.4791 39.1478 73.1005 39.6699C71.7218 40.192 70.1981 39.5113 69.6968 38.1368C69.6572 38.031 69.6374 37.9187 69.611 37.813C68.7073 38.3284 67.8366 38.943 67.0318 39.6435C67.1242 39.7029 67.2165 39.7558 67.3089 39.8285C68.4303 40.7537 68.582 42.4256 67.6453 43.5688C66.702 44.712 65.0331 44.8839 63.9052 43.9587C63.8062 43.8794 63.7271 43.7869 63.6413 43.6944C63.0872 44.6261 62.6321 45.5909 62.2825 46.5822C62.4078 46.5822 62.5331 46.5822 62.6585 46.602C64.1031 46.8333 65.0661 48.1946 64.8155 49.6418C64.5648 51.0891 63.1862 52.0803 61.7482 51.849C61.6096 51.8292 61.4843 51.7829 61.3524 51.7433C61.3326 52.8138 61.4184 53.8778 61.6162 54.9285C61.735 54.8624 61.8537 54.7963 61.979 54.7434C63.3577 54.2214 64.8814 54.902 65.3827 56.2766C65.8841 57.6445 65.1783 59.1842 63.7996 59.7063C63.6611 59.7591 63.516 59.7922 63.3775 59.8186C63.892 60.7372 64.5054 61.6095 65.2112 62.4289C65.2838 62.31 65.3564 62.191 65.4487 62.0787C66.392 60.9354 68.0609 60.7636 69.1888 61.6888C70.3102 62.6139 70.4619 64.2858 69.5252 65.4291C69.4263 65.548 69.3208 65.6472 69.2086 65.7397C70.1387 66.2815 71.115 66.7177 72.1176 67.0547C72.1176 66.9159 72.1176 66.7772 72.1506 66.6384C72.4012 65.1912 73.7799 64.1999 75.2179 64.4312C76.6625 64.6625 77.6256 66.0238 77.3749 67.471C77.3485 67.6164 77.3089 67.7486 77.2627 67.8808C78.3314 67.8808 79.3934 67.7618 80.4422 67.5503C80.3828 67.438 80.3169 67.3257 80.2707 67.2001C79.7694 65.8322 80.4752 64.2924 81.8538 63.7704C83.2324 63.2483 84.7562 63.929 85.2575 65.3035C85.3037 65.4291 85.3301 65.5546 85.3565 65.6802C86.2667 65.1515 87.1375 64.5303 87.9488 63.81C87.8499 63.7506 87.7443 63.6911 87.652 63.6118C86.5306 62.6866 86.3789 61.0147 87.3156 59.8715C88.2588 58.7283 89.9277 58.5564 91.0557 59.4816C91.148 59.5543 91.2206 59.6468 91.2998 59.7261C91.8407 58.8009 92.2826 57.8361 92.619 56.8515C92.5135 56.8515 92.4079 56.8515 92.2958 56.8317C90.8512 56.6004 89.8881 55.2391 90.1388 53.7919C90.3895 52.3446 91.7681 51.3534 93.2061 51.5847C93.3116 51.6045 93.4106 51.6375 93.5095 51.664C93.5161 50.6199 93.4238 49.5824 93.2325 48.5581C93.1467 48.6043 93.0676 48.6506 92.9752 48.6902C91.5966 49.2123 90.0728 48.5316 89.5715 47.1571C89.0702 45.7892 89.776 44.2495 91.1546 43.7274C91.247 43.6944 91.3459 43.6745 91.4383 43.6481C90.937 42.7626 90.3367 41.9167 89.6573 41.1303C89.6045 41.203 89.5649 41.2823 89.5056 41.355C88.5623 42.4983 86.8934 42.6701 85.7654 41.7449C84.6441 40.8197 84.4923 39.1478 85.4356 38.0046C85.5016 37.9253 85.5741 37.8658 85.6401 37.7998H85.6335ZM84.3538 43.3573C88.9383 47.1241 89.5451 53.9438 85.7127 58.5895C81.8802 63.2351 75.0596 63.9488 70.4817 60.1821C65.9039 56.4153 65.2904 49.5956 69.1229 44.9499C72.9553 40.3043 79.776 39.5906 84.3538 43.3573Z" fill="#F8D12E"/>
<path d="M67.5662 59.2703C71.6098 64.656 79.3209 65.6671 84.7629 61.5369C90.1983 57.4067 91.3328 49.6618 87.2893 44.2826C83.2457 38.8969 75.5346 37.8792 70.0926 42.016C64.6573 46.1462 63.5227 53.8911 67.5662 59.2769V59.2703ZM72.5003 45.2144C76.1547 42.4389 81.3328 43.1196 84.0505 46.7409C86.7682 50.3557 86.0096 55.5564 82.3552 58.3319C78.7009 61.1074 73.5227 60.4267 70.805 56.812C68.0874 53.1972 68.8459 47.9965 72.5003 45.2144Z" fill="#F8D12E"/>
<path d="M71.6231 44.0513C75.9239 40.7802 82.0255 41.5864 85.2181 45.8421C88.4108 50.0979 87.5203 56.2238 83.2195 59.4883C78.9186 62.7594 72.817 61.9532 69.6244 57.6974C66.4252 53.4417 67.3223 47.3158 71.6231 44.0513Z" stroke="#2D2D2D" stroke-width="0.5" stroke-miterlimit="10" stroke-linecap="round"/>
<path d="M112.547 33.861C111.821 33.438 111.069 33.0944 110.297 32.8301C110.297 32.9028 110.297 32.9755 110.284 33.0548C110.08 34.2178 108.978 35.0108 107.824 34.8258C106.669 34.6407 105.891 33.5504 106.096 32.3873C106.109 32.308 106.135 32.2287 106.162 32.1494C105.324 32.1494 104.493 32.2287 103.675 32.3939C103.708 32.4666 103.754 32.5327 103.78 32.6054C104.183 33.7024 103.615 34.9381 102.514 35.3544C101.412 35.7774 100.192 35.2289 99.7829 34.1253C99.7499 34.0394 99.7367 33.9535 99.7169 33.861C98.9913 34.2773 98.2987 34.7663 97.6456 35.328C97.7182 35.3743 97.7974 35.4139 97.8633 35.4734C98.767 36.2135 98.8858 37.555 98.1272 38.467C97.3752 39.3789 96.0295 39.5177 95.1324 38.7775C95.0533 38.7115 94.9873 38.6388 94.9214 38.5661C94.4794 39.3128 94.1166 40.086 93.833 40.8856C93.9319 40.8856 94.0309 40.8856 94.1364 40.9054C95.2908 41.0905 96.0691 42.1808 95.8646 43.3439C95.6602 44.5069 94.5586 45.2999 93.4042 45.1149C93.2921 45.0951 93.1931 45.062 93.0876 45.029C93.0744 45.8881 93.1404 46.7406 93.2987 47.5798C93.391 47.5269 93.4834 47.4741 93.5889 47.4344C94.6905 47.0115 95.9108 47.56 96.3198 48.6636C96.7222 49.7605 96.1549 50.9963 95.0533 51.4126C94.9412 51.4523 94.829 51.4787 94.7169 51.5051C95.1324 52.2387 95.6206 52.9391 96.1879 53.5934C96.2472 53.4942 96.3 53.4017 96.3792 53.3092C97.1311 52.3973 98.4768 52.2585 99.3739 52.9986C100.278 53.7387 100.396 55.0802 99.6443 55.9922C99.5652 56.0847 99.4794 56.164 99.3937 56.2433C100.139 56.6794 100.924 57.0297 101.722 57.3006C101.722 57.1883 101.722 57.0759 101.749 56.9636C101.953 55.8005 103.055 55.0075 104.209 55.1926C105.363 55.3776 106.142 56.468 105.937 57.631C105.917 57.7434 105.884 57.8491 105.845 57.9615C106.702 57.9615 107.553 57.8689 108.391 57.6971C108.338 57.6046 108.292 57.5121 108.253 57.413C107.85 56.316 108.417 55.0802 109.519 54.6639C110.621 54.241 111.841 54.7895 112.25 55.8931C112.29 55.9922 112.309 56.0979 112.329 56.197C113.061 55.7741 113.754 55.2719 114.407 54.6969C114.328 54.6441 114.242 54.5978 114.169 54.5384C113.266 53.7982 113.147 52.4567 113.906 51.5448C114.658 50.6328 116.003 50.4941 116.9 51.2342C116.973 51.2937 117.032 51.3664 117.098 51.4324C117.534 50.6923 117.883 49.9191 118.16 49.1261C118.075 49.1261 117.989 49.1262 117.903 49.1129C116.749 48.9279 115.97 47.8375 116.175 46.6745C116.379 45.5114 117.481 44.7184 118.635 44.9034C118.721 44.9167 118.8 44.9431 118.879 44.9695C118.886 44.1303 118.813 43.2976 118.655 42.4782C118.589 42.5112 118.523 42.5509 118.444 42.5839C117.342 43.0069 116.122 42.4584 115.713 41.3548C115.311 40.2578 115.878 39.022 116.98 38.6057C117.052 38.5793 117.131 38.5661 117.21 38.5463C116.808 37.8326 116.333 37.1585 115.786 36.5307C115.746 36.5902 115.713 36.6563 115.667 36.7091C114.915 37.6211 113.569 37.7599 112.672 37.0197C111.768 36.2796 111.65 34.9381 112.408 34.0262C112.461 33.9667 112.52 33.9138 112.573 33.861H112.547ZM111.518 38.315C115.192 41.335 115.68 46.8 112.606 50.5271C109.532 54.2542 104.07 54.8225 100.396 51.8025C96.7222 48.7825 96.234 43.3174 99.3079 39.5904C102.382 35.8633 107.844 35.295 111.518 38.315Z" fill="#F8D12E"/>
<path d="M98.0678 51.0691C101.307 55.3843 107.494 56.1971 111.848 52.8864C116.208 49.5756 117.111 43.3704 113.873 39.0552C110.634 34.74 104.446 33.9271 100.093 37.2379C95.7327 40.5487 94.829 46.7539 98.0678 51.0691ZM102.019 39.8019C104.948 37.5749 109.097 38.1234 111.28 41.0245C113.457 43.9255 112.85 48.0887 109.921 50.3157C106.993 52.5427 102.844 51.9942 100.66 49.0932C98.4834 46.1922 99.0902 42.0223 102.019 39.8019Z" fill="#F8D12E"/>
<path d="M101.32 38.87C104.763 36.2531 109.657 36.8941 112.217 40.3106C114.783 43.7205 114.064 48.6304 110.614 51.2473C107.171 53.8642 102.276 53.2232 99.7167 49.8133C97.1508 46.4034 97.8698 41.4935 101.32 38.8766V38.87Z" stroke="#2D2D2D" stroke-width="0.5" stroke-miterlimit="10" stroke-linecap="round"/>
<path d="M81.6562 127.97C80.7195 128.254 80.0269 129.582 80.0269 129.582C80.0269 129.582 79.3343 128.267 78.391 127.996C75.6733 127.223 74.4596 129.675 75.4952 131.941C76.4978 134.129 80.0401 136.759 80.0401 136.759C80.0401 136.759 83.5691 134.069 84.5586 131.862C85.5876 129.576 84.3673 127.144 81.6496 127.963L81.6562 127.97Z" fill="#FADDD4"/>
<path d="M68.866 125.406C68.2657 125.584 67.8238 126.437 67.8238 126.437C67.8238 126.437 67.3818 125.597 66.7815 125.426C65.0467 124.93 64.2683 126.503 64.9346 127.95C65.5744 129.344 67.8369 131.029 67.8369 131.029C67.8369 131.029 70.0929 129.311 70.7261 127.904C71.3858 126.443 70.6008 124.89 68.866 125.412V125.406Z" fill="#FADDD4"/>
<path d="M77.0126 112.744C76.0759 113.028 75.3833 114.357 75.3833 114.357C75.3833 114.357 74.6907 113.042 73.7474 112.771C71.0297 111.998 69.816 114.449 70.8516 116.716C71.8543 118.903 75.3965 121.533 75.3965 121.533C75.3965 121.533 78.9256 118.844 79.915 116.637C80.944 114.35 79.7237 111.918 77.006 112.738L77.0126 112.744Z" fill="#FADDD4"/>
<path d="M267.053 166.893L258.847 178.08" stroke="black" stroke-width="0.5" stroke-miterlimit="10"/>
<path d="M259.896 180.532L263.035 176.27" stroke="black" stroke-width="0.5" stroke-miterlimit="10"/>
<path d="M58.4697 218.966L58.8853 215.722L61.7217 216.957L62.5067 213.6L65.4552 215.001L66.1083 211.638L69.1822 212.893L69.9276 209.556" stroke="black" stroke-width="0.5" stroke-miterlimit="10"/>
<path d="M179.156 124.322C179.592 125.677 178.939 127.283 177.362 127.739C175.977 128.135 175.087 128.162 173.998 129.404C173.279 130.223 172.831 131.439 171.92 132.027C171.109 132.549 169.948 132.649 169.4 131.69C169.057 131.096 169.156 130.329 169.453 129.708C169.75 129.087 170.218 128.571 170.627 128.016C171.313 127.091 171.848 126.06 172.501 125.108C173.154 124.157 173.959 123.265 175.007 122.782C176.056 122.3 177.382 122.307 178.279 123.033C178.714 123.39 179.005 123.84 179.156 124.315V124.322Z" stroke="black" stroke-width="0.5" stroke-miterlimit="10"/>
<path d="M181.076 117.654C181.076 118.474 180.416 119.134 179.598 119.134C178.78 119.134 178.121 118.474 178.121 117.654C178.121 116.835 178.78 116.174 179.598 116.174C180.416 116.174 181.076 116.835 181.076 117.654Z" fill="black"/>
<path d="M67.7179 229.87C68.7999 229.87 69.677 228.991 69.677 227.907C69.677 226.823 68.7999 225.944 67.7179 225.944C66.6359 225.944 65.7588 226.823 65.7588 227.907C65.7588 228.991 66.6359 229.87 67.7179 229.87Z" fill="black"/>
<path d="M256.07 51.5579C255.423 52.3047 254.302 52.384 253.556 51.7364C252.811 51.0888 252.732 49.9653 253.378 49.2186C254.025 48.4719 255.146 48.3926 255.891 49.0402C256.637 49.6878 256.716 50.8112 256.07 51.5579Z" fill="black"/>
<path d="M52.7709 62.8386C51.2933 62.8386 50.0928 61.6359 50.0928 60.1556C50.0928 58.6754 51.2933 57.4727 52.7709 57.4727" fill="black"/>
<path d="M90.4619 76.7686C92.3814 76.7686 93.9382 78.3281 93.9382 80.2511C93.9382 82.1742 92.3814 83.7337 90.4619 83.7337" stroke="black" stroke-width="0.5" stroke-miterlimit="10"/>
<path d="M173.471 180.453L172.112 176.224L176.426 176.508L175.318 171.948L180.001 171.743L178.497 167.706" stroke="black" stroke-width="0.5" stroke-miterlimit="10"/>
<path d="M21.4513 227.63C21.6624 227.398 21.8933 227.174 22.1439 226.956C23.3774 225.859 24.8023 224.973 25.9038 223.744C26.8207 222.72 27.4936 221.471 27.8366 220.129C28.1664 218.847 28.2785 217.36 29.3141 216.541C30.0595 215.953 31.1545 215.906 32.0186 216.316C34.3669 217.433 34.3142 221.001 33.4435 223.09C32.9817 224.206 32.1902 225.151 31.6361 226.215C29.9144 229.5 29.2878 234.773 24.5978 235.282C22.5925 235.5 20.8445 234.522 20.1782 232.586C19.5054 230.63 20.1584 229.017 21.4513 227.623V227.63Z" stroke="black" stroke-width="0.5" stroke-miterlimit="10"/>
<path d="M179.539 216.508C179.374 213.607 181.036 210.884 181.122 207.976C181.168 206.423 180.753 204.897 180.502 203.37C180.251 201.837 180.166 200.198 180.825 198.791C181.485 197.383 183.081 196.319 184.578 196.722C186.181 197.159 186.973 198.963 187.27 200.602C187.593 202.425 187.573 204.302 187.217 206.119C186.755 208.432 185.739 210.673 185.852 213.032C185.931 214.73 186.597 216.369 186.564 218.067C186.524 219.997 184.862 222.475 182.718 221.794C180.805 221.186 179.651 218.312 179.552 216.508H179.539Z" stroke="black" stroke-width="0.5" stroke-miterlimit="10"/>
<path d="M206.109 42.0157C206.109 35.9956 194.638 31.1187 180.489 31.1187C166.34 31.1187 154.869 35.9956 154.869 42.0157C154.869 46.516 160.429 49.0536 163.945 50.3356C171.966 53.2631 182.646 53.5671 191.01 51.9546C195.766 51.0361 206.116 48.5117 206.116 42.0157H206.109Z" fill="#F8D12E"/>
<path d="M187.896 45.7495C187.811 45.7495 187.725 45.7363 187.646 45.7032C187.369 45.6041 187.171 45.3464 187.045 44.9102C186.683 43.6877 186.9 42.3 187.652 41.1105C187.89 40.7338 188.167 40.3968 188.477 40.106C187.916 39.5575 187.184 39.1874 186.399 39.1015C185.555 39.009 184.638 39.2139 183.51 39.7359C183.173 39.8945 182.837 40.073 182.507 40.2844C183.061 41.5863 182.547 43.2516 181.828 44.4212C181.59 44.8111 181.161 45.2671 180.68 45.3662C180.442 45.4191 180.218 45.3662 180.027 45.2407C179.75 45.049 179.598 44.7054 179.585 44.2098C179.526 42.518 180.667 41.1171 182.039 40.1589C181.966 40.0333 181.874 39.9144 181.775 39.7954C181.188 39.1478 180.198 38.8372 178.853 38.8636C177.256 38.8967 175.832 39.3064 174.743 40.0465C174.664 40.0994 174.585 40.1523 174.512 40.2117C174.875 40.747 175.106 41.388 175.146 42.0422C175.205 42.941 174.915 43.7406 174.334 44.2957C173.971 44.6393 173.431 44.8177 172.989 44.745C172.692 44.6988 172.461 44.5402 172.329 44.2891C172.197 44.0446 172.197 43.7604 172.217 43.5357C172.309 42.2735 172.969 41.0444 174.018 40.1457C173.872 39.9738 173.708 39.8218 173.529 39.6897C172.283 38.7843 170.37 38.7249 168.661 39.5377C167.118 40.2712 165.884 41.5334 164.664 42.8683L164.394 42.6238C165.647 41.2625 166.9 39.9738 168.503 39.2073C170.33 38.335 172.388 38.4077 173.741 39.3923C173.945 39.5377 174.13 39.7161 174.301 39.9144C174.38 39.8549 174.466 39.7954 174.552 39.7359C175.7 38.9562 177.19 38.5266 178.859 38.4936C180.317 38.4671 181.399 38.8174 182.059 39.5443C182.177 39.6699 182.276 39.8086 182.362 39.9474C182.698 39.7359 183.041 39.5509 183.378 39.3923C184.572 38.8438 185.548 38.6324 186.458 38.7249C187.336 38.8174 188.154 39.2337 188.774 39.8483C189.38 39.3527 190.093 39.0222 190.838 38.9033C192.098 38.6984 193.437 39.1015 194.519 40.0003C195.601 40.899 196.241 42.148 196.28 43.4234L195.917 43.4366C195.884 42.2669 195.291 41.1171 194.288 40.2844C193.286 39.4518 192.052 39.0817 190.898 39.2667C190.225 39.3725 189.578 39.6699 189.024 40.1192C189.308 40.4629 189.539 40.8527 189.691 41.2823C190.172 42.6568 189.809 44.2692 188.78 45.3001C188.497 45.5843 188.2 45.7297 187.929 45.7297L187.896 45.7495ZM188.721 40.3769C188.437 40.6479 188.18 40.9585 187.962 41.3087C187.27 42.4123 187.065 43.6877 187.395 44.8111C187.487 45.1217 187.613 45.3067 187.771 45.3662C188.041 45.4653 188.365 45.1878 188.49 45.0622C189.42 44.1305 189.756 42.67 189.315 41.4211C189.183 41.0378 188.978 40.6875 188.721 40.3769ZM182.19 40.4959C180.924 41.388 179.882 42.67 179.935 44.2032C179.941 44.4543 180 44.7913 180.225 44.9433C180.337 45.0226 180.456 45.0424 180.594 45.016C180.937 44.9433 181.3 44.5732 181.504 44.2362C182.164 43.1723 182.646 41.6656 182.184 40.4959H182.19ZM174.215 40.4496C173.252 41.2889 172.646 42.4189 172.56 43.5754C172.547 43.7604 172.547 43.9653 172.632 44.1305C172.712 44.2758 172.843 44.3684 173.035 44.4014C173.358 44.4543 173.8 44.3023 174.07 44.0446C174.572 43.5688 174.822 42.8683 174.77 42.0819C174.73 41.5004 174.532 40.9254 174.215 40.4562V40.4496Z" fill="#222540"/>
<path d="M181.557 48.6968C181.432 52.034 181.313 55.4637 182.408 58.6225C184.183 63.7571 189.334 67.5238 194.757 67.6626C193.272 67.2199 191.973 66.2947 190.832 65.244C188.549 63.1425 186.768 60.4331 186.01 57.4198C185.258 54.4064 185.581 51.0758 187.158 48.3994" fill="#F8D12E"/>
<path d="M160.587 252.51C160.66 252.748 160.739 252.992 160.93 253.171C161.141 253.369 161.445 253.448 161.735 253.514C164.235 254.089 166.762 254.545 169.295 254.869C168.49 248.419 168.754 241.791 166.194 235.626C165.818 234.714 165.363 233.802 164.638 233.075C163.43 231.879 161.564 231.35 159.882 231.555C158.549 231.713 155.911 232.658 155.541 233.987C155.139 235.447 156.636 238.606 157.039 240.132C158.134 244.269 159.314 248.399 160.587 252.503V252.51Z" fill="white" stroke="black" stroke-width="0.5" stroke-miterlimit="10"/>
<path d="M179.209 260.751C176.544 260.427 173.872 260.143 171.194 259.898C168.938 259.687 166.669 259.574 164.42 259.27C162.824 259.059 161.174 258.768 159.651 258.187C158.688 257.823 159.308 255.524 159.446 254.883C159.776 253.356 159.763 251.684 159.703 250.131C162.269 250.092 164.842 250.045 167.408 249.946C167.883 249.926 168.371 249.913 168.826 250.072C169.42 250.283 169.868 250.772 170.337 251.202C172.21 252.953 183.787 256.845 183.14 260.083C182.962 260.969 181.748 261.068 180.851 260.956C180.31 260.89 179.763 260.817 179.222 260.751H179.209Z" fill="#161111"/>
<path d="M128.536 253.494C128.51 253.726 128.477 253.97 128.318 254.149C128.147 254.347 127.85 254.413 127.573 254.479C125.172 255.008 122.725 255.404 120.244 255.682C119.796 249.272 118.246 242.67 119.618 236.577C119.822 235.678 120.099 234.78 120.686 234.073C121.663 232.903 123.437 232.414 125.165 232.652C126.537 232.837 129.367 233.828 129.994 235.163C130.68 236.623 129.789 239.743 129.684 241.256C129.393 245.36 129.004 249.444 128.523 253.508L128.536 253.494Z" fill="white" stroke="black" stroke-width="0.5" stroke-miterlimit="10"/>
<path d="M129.42 70.7553C129.453 70.98 129.486 71.198 129.519 71.4227C130.073 74.8524 128.754 78.4341 129.433 81.9828C129.915 84.4939 132.052 89.4964 135.139 89.8268C135.924 89.9127 136.709 88.8686 137.144 88.3334C138.576 86.5756 139.723 84.5072 139.967 82.2471C140.086 81.1567 139.994 80.0532 139.895 78.9628C139.756 77.39 139.624 75.8172 139.486 74.2445C139.42 73.5043 139.36 72.7642 139.202 72.0439C138.925 70.7354 138.345 69.4799 137.461 68.482C135.627 66.4202 132.955 66.255 130.363 66.2021C130.073 66.2021 129.756 66.2021 129.512 66.3607C129.037 66.6647 129.037 67.3454 129.09 67.9071C129.176 68.8587 129.281 69.8103 129.413 70.7487L129.42 70.7553Z" fill="white" stroke="black" stroke-width="0.5" stroke-miterlimit="10"/>
<path d="M135.456 74.2177C133.82 74.7133 129.552 75.3742 129.552 75.3742C129.592 74.5349 129.717 72.9886 129.644 72.1493C129.638 72.037 129.532 71.3167 129.433 70.6823C129.347 70.1404 129.262 69.658 129.235 69.6646C129.611 69.5655 130.007 69.3871 130.304 69.1293C130.482 68.9707 130.607 68.7527 130.792 68.5874C131.96 67.5169 133.675 67.2724 135.126 67.8539C135.977 68.1909 136.702 68.7857 137.263 69.506C137.6 69.9355 137.877 70.4179 138.101 70.9136C138.338 71.4356 138.655 72.1163 138.688 72.6978C138.688 72.6978 138.708 72.8564 138.741 73.1009C137.659 73.504 136.564 73.8873 135.456 74.2177Z" fill="black"/>
<path d="M140.719 63.889C141.392 61.8074 143.701 62.6599 144.209 64.378C144.466 65.2569 144.228 66.268 143.602 66.9354C143.147 67.4245 142.434 67.7284 141.801 67.5368" fill="white"/>
<path d="M140.719 63.889C141.392 61.8074 143.701 62.6599 144.209 64.378C144.466 65.2569 144.228 66.268 143.602 66.9354C143.147 67.4245 142.434 67.7284 141.801 67.5368" stroke="black" stroke-width="0.5" stroke-miterlimit="10"/>
<path d="M140.376 56.5272C139.077 55.8334 135.554 58.3181 134.083 58.5031C132.639 58.8269 130.376 59.1904 129.36 60.2609C127.203 62.521 127.599 66.4463 128.958 69.202C129.189 69.6646 129.657 70.8342 129.934 71.2704C132.118 74.7463 136.155 75.0503 138.18 74.5613C140.601 73.9732 141.913 71.951 142.329 69.1161C142.401 68.6072 142.421 66.9485 142.428 66.4331C142.474 63.2743 141.742 57.2608 140.376 56.5272Z" fill="white" stroke="black" stroke-width="0.5" stroke-miterlimit="10"/>
<path d="M139.908 54.6044C138.549 53.7916 136.973 53.4083 135.33 53.2035C134.163 53.0581 132.969 52.9788 131.814 53.1969C130.225 53.4942 128.747 54.3665 127.725 55.6155C126.273 57.3799 125.845 59.7787 126.234 61.9925C126.511 63.5587 127.105 66.017 128.741 66.7175C129.743 67.147 130.409 66.7637 130.581 65.7064C130.779 64.4838 130.555 63.1754 130.693 61.9264C130.713 61.7612 130.733 61.5894 130.845 61.4639C130.97 61.3251 131.175 61.292 131.359 61.2656C134.143 60.8559 136.551 59.5607 138.774 57.8755C139.229 58.4571 139.895 58.8602 140.621 58.9923C141.016 59.065 141.643 59.1113 142.012 58.9263C142.421 58.7148 142.613 58.2192 142.573 57.7632C142.533 57.3072 142.296 56.8909 142.026 56.5208C141.419 55.7014 140.706 55.0802 139.915 54.6044H139.908Z" fill="black"/>
<path d="M139.229 56.5738C140.409 55.6751 141.966 56.8315 142.421 57.9219C142.942 59.1973 142.824 60.6842 142.744 62.0257C142.698 62.812 142.744 63.7438 142.639 64.5632C142.58 64.0676 142.52 63.572 142.434 63.0764C142.283 62.1843 142.052 60.9683 141.478 60.1026C141.32 59.607 141.036 59.1378 140.581 58.8867C140.251 58.7017 139.862 58.6488 139.539 58.4506C139.255 58.2787 139.037 58.0012 138.945 57.684C138.826 57.2941 138.912 56.8117 139.235 56.5672L139.229 56.5738Z" fill="black"/>
<path d="M130.046 68.0987C129.4 69.037 128.279 69.1626 127.474 68.3762C125.838 66.777 126.524 62.6732 129.42 63.4993C130.211 63.724 130.706 64.4839 131.135 65.1844" fill="white"/>
<path d="M130.046 68.0987C129.4 69.037 128.279 69.1626 127.474 68.3762C125.838 66.777 126.524 62.6732 129.42 63.4993C130.211 63.724 130.706 64.4839 131.135 65.1844" stroke="black" stroke-width="0.5" stroke-miterlimit="10"/>
<path d="M114.499 177.235C114.222 167.216 114.011 157.542 115.594 147.583C116.273 143.314 119.796 128.591 125.139 127.785C125.462 127.738 125.719 127.765 125.95 127.818C126.227 126.318 126.801 124.91 127.599 123.628C129.928 119.874 134.163 117.139 138.49 116.108C143.292 114.971 149.143 115.625 151.254 121.163C152.335 124.005 152.085 126.892 153.371 129.635C157.012 137.386 157.481 145.092 158.562 153.63C159.842 163.714 161.175 173.798 162.553 183.869C165.179 203.014 167.982 222.125 170.97 241.216C168.985 241.692 166.979 242.069 164.954 242.3C161.432 242.696 157.89 242.597 154.374 242.188C150.937 224.828 147.269 207.52 143.358 190.266C141.399 181.629 139.934 177.235 137.909 169.034C137.692 171.135 137.467 173.236 137.23 175.338C136.392 182.779 135.746 190.246 134.677 197.661C132.5 212.708 131.827 228.052 132.428 243.331C129.103 243.463 122.533 243.212 119.354 242.981C118.879 242.948 115.337 242.478 115.297 242.036C114.215 230.008 114.255 220.341 114.004 207.712C113.813 198.216 114.763 186.546 114.505 177.235H114.499Z" fill="#F8D12E"/>
<path d="M134.697 68.7925C134.789 69.5326 135.871 70.0943 137.184 70.0547L134.697 68.7925Z" fill="white"/>
<path d="M134.697 68.7925C134.789 69.5326 135.871 70.0943 137.184 70.0547" stroke="black" stroke-width="0.5" stroke-miterlimit="10"/>
<path d="M108.595 87.0117C108.978 86.2782 109.446 85.5711 109.994 84.8971C112.903 81.3484 117.249 79.9607 121.669 79.5245C124.182 79.2734 126.728 79.4849 129.156 78.7051C129.228 79.4122 129.327 80.1259 129.604 80.7801C130.469 82.8088 132.969 83.2714 135.139 83.2516C137.335 83.2318 139.657 81.3814 139.829 78.9364C142.316 79.3461 144.875 79.2007 147.362 79.6038C149.334 79.9276 151.372 80.6677 152.791 82.1282C154.387 83.7803 155.805 85.7826 156.979 87.7518C157.309 88.3069 157.626 88.8621 157.942 89.4238C162.639 97.77 165.014 106.394 162.098 115.692C161.471 117.681 160.627 119.796 158.833 120.859C158.048 121.322 157.144 121.527 156.234 121.527C157.467 121.527 156.946 128.241 157.738 138.94C143.714 138.444 129.69 138.114 115.66 137.949C116.115 134.314 116.57 130.673 117.019 127.038C117.395 124.031 118.206 121.923 116.207 119.584C112.058 114.74 109.03 108.832 107.612 102.587C106.873 99.323 106.616 95.8999 106.986 92.5693C107.203 90.5868 107.685 88.7167 108.582 87.0051L108.595 87.0117Z" fill="#651FFF"/>
<path d="M140.779 112.196C139.585 111.139 138.437 110.088 137.315 108.951C136.359 107.98 135.337 106.909 134.09 106.295C130.468 106.156 126.801 106.156 123.391 107.339C119.34 108.74 115.468 112.506 115.323 117.033C115.198 121.005 119.914 121.685 122.909 121.613C125.442 121.553 127.922 120.912 130.376 120.284C134.829 119.135 139.281 117.991 143.734 116.842C144.314 116.69 144.901 116.557 145.482 116.419C143.885 115.051 142.355 113.597 140.779 112.203V112.196Z" fill="white" stroke="#222221" stroke-width="0.5" stroke-miterlimit="10"/>
<path d="M163.312 110.682C161.827 108.977 159.73 107.788 157.48 107.504C154.103 107.081 150.508 107.471 147.085 107.266C143.127 107.028 139.176 106.797 135.218 106.618C135.864 107.12 136.464 107.689 137.045 108.264C138.193 109.413 139.321 110.537 140.548 111.601C142.5 113.299 144.367 115.116 146.359 116.775C148.523 116.286 150.699 115.857 152.863 115.407C154.855 114.991 156.972 114.793 158.602 115.262C159.697 115.579 160.528 116.174 161.201 117.086C161.458 117.436 161.867 117.832 161.953 118.269C162.085 118.929 161.63 119.676 161.603 120.337C161.603 120.423 161.603 120.522 161.643 120.595C161.728 120.753 161.946 120.793 162.124 120.786C163.951 120.747 164.479 117.839 164.301 116.392C164.4 117.185 164.552 117.971 164.644 118.764C164.69 119.167 164.433 120.278 164.75 120.562C164.881 120.681 165.079 120.515 165.159 120.357C165.607 119.544 165.581 118.5 165.594 117.595C165.647 115.044 164.98 112.572 163.305 110.656L163.312 110.682Z" fill="white" stroke="#222221" stroke-width="0.5" stroke-miterlimit="10"/>
<path d="M164.334 117.158C164.328 116.299 164.143 115.639 163.958 114.806C163.833 114.231 163.602 114.066 163.332 113.55" fill="white"/>
<path d="M164.334 117.158C164.328 116.299 164.143 115.639 163.958 114.806C163.833 114.231 163.602 114.066 163.332 113.55" stroke="#222221" stroke-width="0.5" stroke-miterlimit="10"/>
<path d="M162.17 120.833C163.127 119.148 163.358 117.066 162.797 115.216C162.626 114.654 162.467 114.443 162.243 113.901" fill="white"/>
<path d="M162.17 120.833C163.127 119.148 163.358 117.066 162.797 115.216C162.626 114.654 162.467 114.443 162.243 113.901" stroke="#222221" stroke-width="0.5" stroke-miterlimit="10"/>
<path d="M141.372 118.104C141.715 118.335 142.065 118.566 142.421 118.784C143.641 119.544 144.921 120.047 146.214 120.648C150.291 122.564 154.473 122.386 158.714 121.302C163.087 120.185 162.052 115.361 159.545 112.731C157.857 110.967 155.574 109.903 153.285 109.057C147.856 107.055 142.177 106.638 136.636 105.171C131.557 103.823 125.66 102.535 120.772 105.191C119.769 105.733 118.958 106.599 118.404 107.597C118.114 108.119 117.843 108.674 117.691 109.255C117.586 109.665 117.566 110.022 117.579 110.438C117.592 110.742 117.711 111.04 117.606 111.33C118.338 110.722 118.747 110.2 119.624 109.744C120.66 109.209 121.689 108.667 122.724 108.132C122.83 108.079 122.942 108.02 123.067 108.02C123.173 108.02 123.265 108.066 123.364 108.112C128.655 110.577 133.965 113.055 138.8 116.326C139.664 116.908 140.515 117.522 141.379 118.104H141.372Z" fill="white" stroke="#222221" stroke-width="0.5" stroke-miterlimit="10"/>
<path d="M123.265 108.026C122.771 107.88 122.276 107.728 121.781 107.583" stroke="#222221" stroke-width="0.5" stroke-miterlimit="10"/>
<path d="M116.94 117.39C116.933 118.091 117.375 118.778 118.021 119.049L116.94 117.39Z" fill="white"/>
<path d="M116.94 117.39C116.933 118.091 117.375 118.778 118.021 119.049" stroke="#222221" stroke-width="0.5" stroke-miterlimit="10"/>
<path d="M160.462 118.659C159.908 119.405 159.077 119.934 158.167 120.113L160.462 118.659Z" fill="white"/>
<path d="M160.462 118.659C159.908 119.405 159.077 119.934 158.167 120.113" stroke="#222221" stroke-width="0.5" stroke-miterlimit="10"/>
<path d="M157.256 120.456C156.801 120.542 156.346 120.621 155.891 120.707L157.256 120.456Z" fill="white"/>
<path d="M157.256 120.456C156.801 120.542 156.346 120.621 155.891 120.707" stroke="#222221" stroke-width="0.5" stroke-miterlimit="10"/>
<path d="M129.862 259.918C129.802 259.938 129.737 259.944 129.671 259.957C129.156 259.964 128.642 259.977 128.127 260.004C127.995 260.004 127.863 260.01 127.738 260.024C127.124 260.05 126.511 260.083 125.897 260.129C121.122 260.473 116.234 261.253 111.524 261.339C109.875 261.372 108.147 261.325 106.649 260.797C102.79 259.429 107.494 257.638 109.024 256.845C110.627 256.012 112.025 255.233 113.74 254.532C115.917 253.647 118.008 252.563 119.974 251.281C122.725 251.889 125.554 252.14 128.371 252.014C129.816 251.948 131.966 259.297 129.862 259.911V259.918Z" fill="#161111"/>
<path d="M150.819 107.121C150.462 102.257 149.625 97.01 148.015 92.4106" stroke="black" stroke-width="0.5" stroke-miterlimit="10"/>
<path d="M122.823 104.074C122.118 100.202 121.412 96.3227 120.706 92.4502" stroke="black" stroke-width="0.5" stroke-miterlimit="10"/>
<path d="M137.672 170.805C138.246 163.251 138.826 155.691 139.4 148.138" stroke="#131834" stroke-width="0.5" stroke-miterlimit="10"/>
<path d="M128.147 64.9464C128.727 64.8539 129.348 65.0323 129.796 65.4156C130.245 65.7989 130.508 66.387 130.508 66.9751" fill="white"/>
<path d="M128.147 64.9464C128.727 64.8539 129.348 65.0323 129.796 65.4156C130.245 65.7989 130.508 66.387 130.508 66.9751" stroke="black" stroke-width="0.5" stroke-miterlimit="10"/>
<path d="M153.404 188.845C153.932 190.471 155.106 192.216 156.814 192.196C157.923 192.183 158.912 191.363 159.4 190.365C159.888 189.367 159.961 188.218 159.921 187.107C159.631 179.111 151.135 181.794 153.411 188.845H153.404Z" fill="black"/>
<path d="M122.58 190.544C122.375 191.456 122.263 192.421 122.54 193.313C122.817 194.205 123.549 195.005 124.473 195.117C125.357 195.229 126.201 194.714 126.861 194.119C128.147 192.963 129.064 191.39 129.433 189.698C129.671 188.628 129.684 187.458 129.176 186.486C126.478 181.299 123.147 188.053 122.573 190.551L122.58 190.544Z" fill="black"/>
<path d="M116.326 147.702L116.28 146.037C119.849 145.938 122.078 145.369 122.896 142.759C123.239 141.669 123.081 140.473 122.487 139.633C121.96 138.887 121.063 138.365 120.04 138.206C119.097 138.061 118.041 138.219 116.993 138.655L116.353 137.116C117.685 136.56 119.044 136.369 120.291 136.56C121.755 136.785 123.055 137.552 123.84 138.669C124.743 139.944 124.981 141.662 124.48 143.261C123.14 147.524 118.701 147.643 116.32 147.709L116.326 147.702Z" fill="#00E5FF"/>
<path d="M118.596 149.414H107.065L106.511 133.871H119.15L118.596 149.414Z" fill="#00E5FF"/>
<path d="M117.639 136.653V143.466" stroke="black" stroke-width="0.5" stroke-miterlimit="10"/>
<path d="M117.541 144.616V146.149V144.616Z" fill="#5F76E8"/>
<path d="M117.541 144.616V146.149" stroke="black" stroke-width="0.5" stroke-miterlimit="10"/>
<path d="M162.593 147.98L162.553 146.77C165.482 146.698 167.309 146.288 167.989 144.385C168.272 143.592 168.14 142.72 167.652 142.112C167.217 141.57 166.485 141.193 165.64 141.074C164.862 140.968 163.998 141.081 163.14 141.398L162.613 140.281C163.708 139.878 164.822 139.739 165.845 139.878C167.052 140.043 168.114 140.598 168.76 141.411C169.499 142.336 169.697 143.585 169.288 144.748C168.187 147.848 164.545 147.933 162.586 147.98H162.593Z" fill="black"/>
<path d="M151.755 138.438L152.059 144.246C152.177 146.559 153.741 148.502 155.924 149.414H161.445C163.635 148.509 165.192 146.559 165.311 144.246L165.614 138.438H151.749H151.755Z" fill="black"/>
<path d="M163.576 141.292C163.549 141.834 163.589 142.376 163.563 142.912C163.49 144.458 162.857 145.971 161.801 147.095" stroke="#651FFF" stroke-width="0.5" stroke-miterlimit="10"/>
<path d="M137.593 146.605L137.566 144.385C137.566 144.577 135.423 144.266 135.238 144.22C134.011 143.916 133.107 142.68 132.995 141.418C132.883 140.222 133.661 139.277 134.816 139.125C135.033 139.098 137.111 139.026 137.025 139.356C137.058 139.237 137.573 137.301 137.573 137.301C135.607 136.422 132.421 137.129 131.247 138.992C130.548 140.103 130.541 141.471 130.897 142.7C131.933 146.248 135.64 146.552 137.599 146.612L137.593 146.605Z" fill="#00E5FF"/>
<path d="M149.657 135.503L149.354 144.246C149.235 146.559 147.672 148.502 145.488 149.414H139.967C137.777 148.509 136.221 146.559 136.102 144.246L135.798 135.503H149.664H149.657Z" fill="#00E5FF"/>
<path d="M145.034 147.378C146.102 147.022 146.9 146.077 147.316 145.026C147.725 143.975 147.798 142.819 147.778 141.695" stroke="black" stroke-width="0.5" stroke-miterlimit="10"/>
<path d="M147.863 138.391C147.725 139.092 147.678 139.812 147.738 140.526" stroke="black" stroke-width="0.5" stroke-miterlimit="10"/>
<path d="M204.354 239.729C204.005 235.857 203.939 231.846 205.245 228.185C205.753 226.771 206.491 225.383 207.685 224.471C208.879 223.559 210.608 223.235 211.907 223.982C213.18 224.715 213.761 226.242 214.005 227.696C214.908 232.989 214.196 233.412 213.932 238.771C213.833 240.826 212.474 247.772 212.105 249.794C211.729 251.882 210.542 254.208 208.371 254.869C206.795 255.351 205.377 254.942 204.974 253.276C204.552 251.545 205.027 249.549 205.04 247.792C205.06 245.102 204.592 242.406 204.348 239.729H204.354Z" fill="white" stroke="#222221" stroke-width="0.5" stroke-miterlimit="10"/>
<path d="M187.824 257.717C188.2 257.38 188.675 257.195 189.143 257.01C192.237 255.807 195.383 254.737 198.457 253.488C200.674 252.582 203.094 251.822 204.532 249.774C204.598 249.675 204.658 249.595 204.717 249.516C207.369 249.8 210.106 249.747 212.488 248.723C212.751 252.245 212.982 255.787 212.6 259.296C212.587 259.429 212.56 259.574 212.455 259.653C212.369 259.713 212.257 259.719 212.151 259.719C212.098 259.719 212.046 259.719 211.993 259.719C209.671 259.726 207.356 259.911 205.027 259.924C202.626 259.937 200.225 259.878 197.824 259.937C195.641 259.997 193.299 260.367 191.162 260.288C190.073 260.248 185.865 259.468 187.824 257.71V257.717Z" fill="black"/>
<path d="M247.032 237.542C245.403 234.013 243.998 230.26 243.998 226.367C243.998 224.861 244.229 223.308 245.053 222.045C245.871 220.783 247.389 219.898 248.866 220.162C250.311 220.426 251.373 221.669 252.092 222.951C254.717 227.629 254.084 223.175 255.634 228.317C256.228 230.286 257.382 242.379 257.718 244.408C258.061 246.503 257.718 249.093 255.898 250.448C254.579 251.433 253.101 251.525 252.164 250.098C251.188 248.604 250.964 246.569 250.39 244.904C249.506 242.359 248.16 239.98 247.032 237.542Z" fill="white" stroke="#222221" stroke-width="0.5" stroke-miterlimit="10"/>
<path d="M226.162 171.446C226.894 167.501 226.182 163.793 227.105 159.749C229.506 149.182 227.917 140.321 224.948 129.787C224.216 127.183 223.194 124.566 221.294 122.643C219.401 120.714 216.459 119.623 213.919 120.535C209.44 122.148 209.506 126.622 208.847 130.421C208.108 134.69 205.891 138.371 204.691 142.475C203.543 146.394 203.266 150.702 202.692 154.766C201.36 164.203 200.265 173.666 199.394 183.156C197.633 202.412 196.828 221.755 196.986 241.091C204.124 241.903 214.935 240.873 222.118 240.985C222.593 225.211 223.965 205.029 224.44 189.255C224.658 182.092 224.895 178.219 226.149 171.459L226.162 171.446Z" fill="#651FFF"/>
<path d="M241.993 240.099C248.457 239.372 254.889 237.971 260.984 235.665C260.311 231.119 259.638 226.572 258.946 222.026C255.173 197.277 249.407 172.688 248.754 147.649C248.642 143.36 246.973 138.642 244.737 134.981C242.475 131.28 239.928 127.765 239.895 123.231C239.889 122.319 239.856 121.222 239.064 120.766C238.715 120.562 238.293 120.548 237.89 120.535C234.348 120.429 229.671 119.63 226.478 121.632C224.526 122.861 220.502 127.051 220.205 129.265C219.981 130.937 220.43 132.615 220.845 134.247C224.216 147.365 224.968 160.634 226.175 173.97C226.446 176.977 226.742 179.99 227.092 183.01C229.341 202.234 231.591 221.451 233.833 240.674C236.558 240.588 239.282 240.403 241.986 240.099H241.993Z" fill="#651FFF"/>
<path d="M209.4 127.077C219.064 128.307 230.027 127.818 239.737 126.958" stroke="#222540" stroke-width="0.75" stroke-miterlimit="10"/>
<path d="M235.693 125.756C226.96 125.974 216.637 126.205 207.916 125.71C207.435 125.683 208.662 111.363 208.451 109.975C207.692 104.953 206.604 99.7787 206.722 94.6969C206.815 90.9764 208.734 88.1613 212.25 86.7603C213.8 86.1391 215.674 86.6744 217.329 86.9057C218.035 87.0048 218.879 86.2118 219.612 86.2845C220.535 86.3704 221.459 86.4761 222.375 86.6215C224.282 86.9321 226.208 87.1964 228.16 87.0246C228.358 87.0048 229.928 86.6942 230.133 86.681C232.54 86.4894 238.094 87.5995 240.12 88.9807C244.44 91.9214 242.659 100.149 242.613 104.649C242.534 111.627 242.204 118.599 241.617 125.551C239.645 125.637 237.666 125.703 235.693 125.756Z" fill="#00E5FF"/>
<path d="M204.064 97.3532C203.292 99.0647 202.039 100.571 200.265 101.179C199.697 101.371 199.071 101.457 198.504 101.265C197.692 100.988 197.164 100.221 196.703 99.4942C194.697 96.3685 192.666 93.1833 189.948 90.6193C187.963 88.7425 184.434 85.8216 181.67 88.1544C180.964 88.7491 180.509 89.5818 180.186 90.4409C179.255 92.8991 179.374 95.7209 180.423 98.1263C181.525 100.671 182.857 103.215 184.183 105.666C185.792 108.647 187.719 111.535 190.41 113.583C194.124 116.412 199.124 117.37 203.682 116.372C208.24 115.374 212.31 112.506 215.008 108.693C217.705 104.88 219.051 100.182 219.058 95.5094C219.058 93.7252 218.866 91.9145 218.147 90.2823C216.986 87.6389 214.638 85.5838 211.657 86.3635C209.942 86.8129 208.372 87.8108 207.244 89.1721C206.267 90.3417 205.634 91.7493 205.159 93.1899C204.717 94.5248 204.645 96.091 204.077 97.3465L204.064 97.3532Z" fill="#00E5FF"/>
<path d="M237.461 87.5533C238.635 87.93 239.803 88.3133 240.944 88.7692C246.544 91.0227 246.38 97.9812 246.788 103.056C247.013 105.852 248.226 109.533 247.369 112.202C247.481 111.852 249.223 111.178 249.585 110.973C253.101 108.971 256.657 106.817 260.496 105.468C262.066 104.92 263.748 104.484 265.384 104.794C268.312 105.349 268.979 108.132 269.599 110.643C270.667 115.004 266.063 118.09 262.864 120.238C259.447 122.538 255.878 124.613 252.197 126.456C249.803 127.653 247.31 128.769 244.645 129.034C242.527 129.245 240.357 128.888 238.411 128.023C232.91 125.564 232.62 117.502 231.828 112.315C231.155 107.887 230.726 103.578 230.561 99.1112C230.496 97.2477 230.865 95.6683 231.069 93.818C231.234 92.3509 231.248 90.8707 231.393 89.4036C231.531 88.0027 231.366 86.6876 231.248 85.2734C233.233 86.2449 235.35 86.8859 237.461 87.5599V87.5533Z" fill="#00E5FF"/>
<path d="M216.617 74.2178C216.874 74.5416 217.191 74.8125 217.567 75.0174C218.332 75.4271 218.484 75.8699 218.536 76.7289C218.642 78.2753 218.55 79.7886 218.437 81.3151C221.617 80.793 224.902 81.2887 228.114 81.0706C228.009 80.456 227.969 79.8084 228.015 79.1145C228.292 75.1958 229.658 69.7043 227.903 65.997C225.43 60.7501 216.722 58.9658 215.37 65.997C215.087 67.4839 215.192 69.0236 215.37 70.5237C215.522 71.8256 215.819 73.253 216.61 74.231L216.617 74.2178Z" fill="white" stroke="black" stroke-width="0.5" stroke-miterlimit="10"/>
<path d="M228.959 81.3875C228.748 80.6804 228.655 79.9402 228.695 79.2001C225.166 79.1472 221.637 78.9622 218.121 78.645C217.653 80.3698 218.042 82.3391 217.118 83.8656C216.604 84.7181 215.727 85.3128 214.796 85.6696C213.866 86.0265 212.87 86.1785 211.881 86.3239C212.079 86.2908 213.18 87.4803 213.332 87.6654C213.682 88.0883 213.926 88.465 214.381 88.8152C215.304 89.5157 216.38 89.9849 217.435 90.4342C219.665 91.3792 222.099 91.8352 224.519 91.7229C226.584 91.6303 228.629 91.1215 230.509 90.269C232.198 89.5025 233.688 88.5046 235.298 87.6521C235.641 87.4737 235.575 86.9715 235.199 86.879C233.622 86.5089 232.125 85.7754 230.957 84.652C230.027 83.7599 229.315 82.6166 228.952 81.3809L228.959 81.3875Z" fill="#00E5FF"/>
<path d="M235.06 53.6064C234.038 52.0072 231.762 51.5314 229.994 51.756C229.09 51.8684 228.206 52.1525 227.428 52.6217C226.669 53.0711 225.858 53.7187 225.621 54.6108C225.35 55.6285 225.779 56.8048 226.287 57.6837C224.334 57.1748 221.491 57.5846 219.578 58.1397C217.685 58.6815 215.884 59.8578 215.04 61.6421C214.763 62.2302 214.598 62.8646 214.242 63.4065C214.024 63.7435 213.727 64.0409 213.582 64.4176C212.989 65.9309 215.443 65.5872 216.28 65.6004L220.522 65.6401C221.036 65.6401 221.584 65.6401 222.019 65.3625C222.474 65.0784 222.718 64.5431 223.16 64.2391C223.516 63.988 224.005 63.9087 224.394 64.107C225.568 64.7083 224.519 66.6578 224.394 67.5367C224.381 67.6424 224.367 67.7547 224.427 67.8473C224.499 67.9662 224.651 67.9992 224.783 68.0323C225.561 68.2305 226.247 68.7856 226.604 69.5059C226.907 70.1139 226.979 70.8078 227.138 71.4686C227.395 72.5656 227.89 73.5965 228.378 74.6142C228.411 74.6869 228.444 74.7529 228.51 74.7992C228.754 74.9842 229.038 74.6208 229.143 74.3366C229.552 73.2661 230.179 72.374 230.931 71.5215C231.617 70.7351 231.94 69.6381 232.197 68.6204C232.468 67.5631 232.58 66.367 232.481 65.1907C232.296 63.1025 231.353 61.1266 229.862 59.686C231.386 59.7521 232.896 59.4547 234.117 58.437C235.482 57.2938 236.082 55.1857 235.073 53.613L235.06 53.6064Z" fill="black"/>
<path d="M220.568 75.5659C220.357 75.5659 220.146 75.5659 219.935 75.5659C219.315 75.546 218.701 75.4932 218.088 75.394C218.147 75.4007 218.253 75.6121 218.279 75.6584C218.332 75.7575 218.358 75.8434 218.372 75.9558C218.418 76.2135 218.464 76.458 218.484 76.7223C218.53 77.4096 218.563 78.0968 218.583 78.7841C218.754 78.4669 218.926 78.1761 219.15 77.8854C219.394 77.5682 219.651 77.2642 219.928 76.9734C220.456 76.4183 221.036 75.8765 221.722 75.5064C221.597 75.4998 221.459 75.5328 221.327 75.5394C221.175 75.546 221.017 75.5593 220.865 75.5593C220.766 75.5593 220.667 75.5593 220.575 75.5593L220.568 75.5659Z" fill="#262626"/>
<path d="M224.302 68.0523C224.618 66.7174 226.056 66.6646 226.769 66.8826C229.15 67.5897 228.992 70.471 226.888 71.4027C226.353 71.6406 225.687 71.6076 225.232 71.2375" fill="white"/>
<path d="M224.302 68.0523C224.618 66.7174 226.056 66.6646 226.769 66.8826C229.15 67.5897 228.992 70.471 226.888 71.4027C226.353 71.6406 225.687 71.6076 225.232 71.2375" stroke="black" stroke-width="0.5" stroke-miterlimit="10"/>
<path d="M216.663 71.938C216.795 72.5988 217.448 73.1209 218.121 73.0944C218.793 73.068 219.414 72.5063 219.493 71.8389L216.656 71.938H216.663Z" fill="white" stroke="black" stroke-width="0.5" stroke-miterlimit="10"/>
<path d="M283.682 106.222C285.344 105.416 287.132 104.048 286.795 101.946C286.696 101.345 286.38 100.783 285.931 100.374C285.74 100.195 285.522 100.043 285.278 99.9506C284.803 99.7655 284.256 99.825 283.781 100.003C282.633 100.433 281.696 101.299 280.535 101.768C279.374 102.237 278.101 102.561 276.855 102.33C275.212 102.032 276.551 101.285 277.283 100.783C277.785 100.44 278.543 99.9374 278.53 99.2369C278.51 98.3315 277.679 98.4835 277.184 98.9593C276.314 99.792 275.212 100.38 274.031 100.631C273.326 100.783 272.587 100.816 271.94 101.133C271.089 101.55 270.529 102.382 269.79 102.977C268.451 104.068 266.729 104.642 265.337 105.687C264.308 106.46 264.698 108.132 265.364 109.07C266.05 110.041 267.237 110.782 268.279 110.081C269.506 109.255 270.878 108.502 272.33 108.185C273.207 107.993 274.117 107.973 275.014 107.947C278.009 107.874 280.733 107.616 283.504 106.314C283.57 106.281 283.629 106.255 283.695 106.222H283.682Z" fill="white" stroke="black" stroke-width="0.5" stroke-miterlimit="10"/>
<path d="M183.246 81.4867C181.795 79.8214 179.644 79.2002 177.633 78.513C177.23 78.3742 176.821 78.2354 176.485 77.9711C176.386 77.8984 176.293 77.8059 176.175 77.7728C175.858 77.6869 175.568 78.057 175.607 78.3808C175.66 78.7905 176.102 79.2135 176.392 79.4844C176.782 79.8479 179.684 80.7268 178.055 81.2092C176.834 81.5726 175.515 81.3413 174.295 80.9779C173.074 80.6144 171.881 80.1254 170.621 79.947C169.427 79.7818 168.318 80.1452 167.791 81.2951C166.993 83.0331 168.569 84.9693 170.08 85.6499C172.237 86.628 174.71 86.7337 177.019 87.117C178.022 87.2822 179.479 87.5135 180.06 88.4453C180.759 89.5621 180.713 91.1216 181.247 92.3243C181.406 92.6812 181.617 93.038 181.953 93.2363C182.283 93.4345 182.685 93.461 183.068 93.4147C184.011 93.3024 184.902 92.7473 185.416 91.9477C186.333 90.5269 185.476 88.1545 185.225 86.5751C184.935 84.7578 184.486 82.8943 183.239 81.4735L183.246 81.4867Z" fill="white" stroke="black" stroke-width="0.5" stroke-miterlimit="10"/>
<path d="M227.217 67.9067C226.749 67.8208 226.254 67.9067 225.839 68.138C225.423 68.3692 225.107 68.7657 224.948 69.2151" fill="white"/>
<path d="M227.217 67.9067C226.749 67.8208 226.254 67.9067 225.839 68.138C225.423 68.3692 225.107 68.7657 224.948 69.2151" stroke="black" stroke-width="0.5" stroke-miterlimit="10"/>
<path d="M285.562 100.221C283.708 101.873 281.4 103.003 278.959 103.453L285.562 100.221Z" fill="white"/>
<path d="M285.562 100.221C283.708 101.873 281.4 103.003 278.959 103.453" stroke="black" stroke-width="0.5" stroke-miterlimit="10"/>
<path d="M286.591 101.451C284.632 103.374 281.967 104.411 279.302 105.039L286.591 101.451Z" fill="white"/>
<path d="M286.591 101.451C284.632 103.374 281.967 104.411 279.302 105.039" stroke="black" stroke-width="0.5" stroke-miterlimit="10"/>
<path d="M286.815 102.957C284.652 104.457 282.059 105.898 279.467 106.36L286.815 102.957Z" fill="white"/>
<path d="M286.815 102.957C284.652 104.457 282.059 105.898 279.467 106.36" stroke="black" stroke-width="0.5" stroke-miterlimit="10"/>
<path d="M174.856 82.399C172.666 82.2404 170.674 81.1302 168.563 80.5222C168.49 80.5024 168.371 80.5487 168.418 80.6081" fill="white"/>
<path d="M174.856 82.399C172.666 82.2404 170.674 81.1302 168.563 80.5222C168.49 80.5024 168.371 80.5487 168.418 80.6081" stroke="black" stroke-width="0.5" stroke-miterlimit="10"/>
<path d="M167.883 83.4893C169.928 84.573 172.257 85.1281 174.572 85.0819L167.883 83.4893Z" fill="white"/>
<path d="M167.883 83.4893C169.928 84.573 172.257 85.1281 174.572 85.0819" stroke="black" stroke-width="0.5" stroke-miterlimit="10"/>
<path d="M167.679 81.8501C169.803 82.762 172.045 83.3964 174.334 83.7269L167.679 81.8501Z" fill="white"/>
<path d="M167.679 81.8501C169.803 82.762 172.045 83.3964 174.334 83.7269" stroke="black" stroke-width="0.5" stroke-miterlimit="10"/>
<path d="M226.175 171.413C225.568 167.653 223.735 150.867 223.134 147.107C222.91 145.733 222.659 144.286 221.762 143.222" stroke="#222540" stroke-width="0.5" stroke-miterlimit="10"/>
<path d="M237.105 137.122C237.501 138.212 238.002 139.29 238.78 140.149C239.559 141.014 240.641 141.649 241.795 141.682" stroke="#222540" stroke-width="0.5" stroke-miterlimit="10"/>
<path d="M212.487 136.527C212.639 136.541 212.646 136.752 212.606 136.897C212.29 137.961 211.425 138.787 210.449 139.316C209.473 139.838 208.378 140.096 207.303 140.347" stroke="#222540" stroke-width="0.75" stroke-miterlimit="10"/>
<path d="M248.029 111.634C247.732 112.281 247.125 112.724 246.624 113.233C246.122 113.742 245.694 114.456 245.885 115.143" stroke="#222540" stroke-width="0.75" stroke-miterlimit="10"/>
<path d="M237.547 260.129C237.791 259.686 238.18 259.349 238.563 259.019C241.102 256.838 243.734 254.756 246.234 252.536C248.042 250.93 250.08 249.391 250.759 246.972C250.792 246.86 250.819 246.76 250.845 246.668C253.457 246.033 256.043 245.055 257.963 243.278C259.394 246.509 260.799 249.761 261.61 253.197C261.643 253.329 261.67 253.474 261.591 253.587C261.531 253.673 261.426 253.712 261.327 253.752C261.281 253.772 261.228 253.785 261.182 253.805C258.978 254.604 256.841 255.563 254.631 256.362C252.356 257.188 250.054 257.948 247.791 258.827C245.733 259.627 243.635 260.77 241.577 261.424C240.529 261.755 236.267 262.455 237.547 260.136V260.129Z" fill="black"/>
<path d="M235.812 126.311C234.288 125.194 234.156 123 234.203 121.11C234.341 115.341 234.506 107.352 235.007 101.603" stroke="black" stroke-width="0.5" stroke-miterlimit="10"/>
<path d="M208.325 114.502C208.602 108.667 208.84 103.777 209.117 97.9414" stroke="black" stroke-width="0.5" stroke-miterlimit="10"/>
<path d="M201.221 190.722C201.109 192.017 202.065 193.319 203.332 193.597" stroke="#222540" stroke-width="0.5" stroke-miterlimit="10"/>
<path d="M232.956 192.493C234.269 192.652 235.614 192.533 236.887 192.156" stroke="#222540" stroke-width="0.5" stroke-miterlimit="10"/>
<mask id="mask0_144_4627" style="mask-type:luminance" maskUnits="userSpaceOnUse" x="196" y="120" width="33" height="122">
<path d="M226.162 171.446C226.894 167.501 226.182 163.793 227.105 159.749C229.506 149.182 227.917 140.321 224.948 129.787C224.216 127.183 223.194 124.566 221.294 122.643C219.401 120.714 216.459 119.623 213.919 120.535C209.44 122.148 209.506 126.622 208.847 130.421C208.108 134.69 205.891 138.371 204.691 142.475C203.543 146.394 203.266 150.702 202.692 154.766C201.36 164.203 200.265 173.666 199.394 183.156C197.633 202.412 196.828 221.755 196.986 241.091C204.124 241.903 214.935 240.873 222.118 240.985C222.593 225.211 223.965 205.029 224.44 189.255C224.658 182.092 224.895 178.219 226.149 171.459L226.162 171.446Z" fill="white"/>
</mask>
<g mask="url(#mask0_144_4627)">
<path d="M193.938 235.672C204.315 236.439 214.75 236.346 225.106 235.408" stroke="#222540" stroke-width="2" stroke-miterlimit="10"/>
<path d="M226.92 230.755C215.238 232.546 203.299 232.692 191.577 231.198" stroke="#222540" stroke-width="2" stroke-miterlimit="10"/>
</g>
<mask id="mask1_144_4627" style="mask-type:luminance" maskUnits="userSpaceOnUse" x="220" y="120" width="41" height="121">
<path d="M241.993 240.099C248.457 239.372 254.889 237.971 260.984 235.665C260.311 231.119 259.638 226.572 258.946 222.026C255.173 197.277 249.407 172.688 248.754 147.649C248.642 143.36 246.973 138.642 244.737 134.981C242.475 131.28 239.928 127.765 239.895 123.231C239.889 122.319 239.856 121.222 239.064 120.766C238.715 120.562 238.293 120.548 237.89 120.535C234.348 120.429 229.671 119.63 226.478 121.632C224.526 122.861 220.502 127.051 220.205 129.265C219.981 130.937 220.43 132.615 220.845 134.247C224.216 147.365 224.968 160.634 226.175 173.97C226.446 176.977 226.742 179.99 227.092 183.01C229.341 202.234 231.591 221.451 233.833 240.674C236.558 240.588 239.282 240.403 241.986 240.099H241.993Z" fill="white"/>
</mask>
<g mask="url(#mask1_144_4627)">
<path d="M230.1 237.079C242.099 237.297 255.456 234.218 265.681 227.92" stroke="#222540" stroke-width="2" stroke-miterlimit="10"/>
<path d="M231.169 232.671C240.081 232.744 254.355 230.319 262.455 226.592" stroke="#222540" stroke-width="2" stroke-miterlimit="10"/>
</g>
<path d="M68.9844 187.537L71.6295 186.05L68.9844 187.537Z" fill="white"/>
<path d="M68.9844 187.537L71.6295 186.05" stroke="#222221" stroke-width="0.5" stroke-miterlimit="10"/>
<path d="M87.3287 180.532C87.5134 181.332 87.3287 182.211 86.8208 182.858L87.3287 180.532Z" fill="white"/>
<path d="M87.3287 180.532C87.5134 181.332 87.3287 182.211 86.8208 182.858" stroke="#222221" stroke-width="0.5" stroke-miterlimit="10"/>
<path d="M273.636 152.104L275.285 265.211" stroke="#651FFF" stroke-width="3" stroke-miterlimit="10"/>
<path d="M112.25 152.104L107.256 265.211" stroke="#651FFF" stroke-width="3" stroke-miterlimit="10"/>
<path d="M281.063 149.143H102.078V153.346H281.063V149.143Z" fill="#651FFF"/>
<path d="M50.0596 187.292V245.201" stroke="black" stroke-miterlimit="10"/>
<path d="M59.6774 255.451L50.06 244.322L39.1826 255.451" stroke="black" stroke-miterlimit="10"/>
<path d="M73.7935 253.759L49.9478 244.064L26.8672 253.759" stroke="black" stroke-miterlimit="10"/>
<path d="M69.9678 253.931C69.9678 255.431 71.1815 256.647 72.6789 256.647C74.1762 256.647 75.39 255.431 75.39 253.931C75.39 252.431 74.1762 251.215 72.6789 251.215C71.1815 251.215 69.9678 252.431 69.9678 253.931Z" fill="#222221"/>
<path d="M24.875 253.93C24.875 255.226 25.9238 256.276 27.2167 256.276C28.5096 256.276 29.5584 255.226 29.5584 253.93C29.5584 252.635 28.5096 251.584 27.2167 251.584C25.9238 251.584 24.875 252.635 24.875 253.93Z" fill="#222221"/>
<path d="M36.6758 255.259C36.6758 257.03 38.1072 258.464 39.875 258.464C41.6428 258.464 43.0742 257.03 43.0742 255.259C43.0742 253.488 41.6428 252.054 39.875 252.054C38.1072 252.054 36.6758 253.488 36.6758 255.259Z" fill="#222221"/>
<path d="M56.7021 256.052C56.7021 257.671 58.0082 258.979 59.6243 258.979C61.2404 258.979 62.5465 257.671 62.5465 256.052C62.5465 254.433 61.2404 253.125 59.6243 253.125C58.0082 253.125 56.7021 254.433 56.7021 256.052Z" fill="#222221"/>
<path d="M86.7946 182.812C88.0941 178.854 88.7339 174.677 88.7735 170.514C88.7999 167.494 88.2986 164.058 85.8183 162.34C84.3935 161.355 82.5795 161.15 80.8513 161.011C71.6362 160.265 61.8604 160.311 53.958 155.507C49.9013 153.042 46.6889 149.46 43.9052 145.66C42.4936 143.731 41.1809 141.728 39.8815 139.726C38.7271 137.942 36.6295 137.102 35.2574 135.397C33.417 133.104 32.2363 130.415 30.541 128.016C29.4526 126.476 28.3247 124.897 26.7416 123.866C24.8286 122.624 22.4407 122.326 20.1584 122.425C13.4961 122.723 6.97893 126.423 3.69395 132.305C-0.349602 139.534 -0.587069 147.563 0.659638 155.639C3.57522 174.519 16.2006 192.361 34.2416 198.533C39.1229 200.205 44.0833 200.919 49.2351 200.866C57.7905 200.78 66.4977 200.317 74.5386 197.403C76.9463 196.531 79.0307 195.896 80.6996 193.921C82.5004 191.793 83.9912 189.407 85.1785 186.883C85.7986 185.554 86.3395 184.193 86.7946 182.805V182.812Z" fill="#00E5FF"/>
<path d="M113.186 235.421C113.16 235.335 110.865 236.174 110.462 235.857C110.139 235.599 109.961 235.203 109.796 234.82C108.549 231.905 106.768 228.601 105.521 225.687C106.24 225.66 107.434 227.075 108.239 227.293C109.156 227.544 110.159 227.531 111.102 227.524C114.262 227.491 117.289 226.295 120.502 226.81C121.438 226.962 123.266 227.498 124.196 227.663C126.696 228.112 128.635 228.747 131.386 228.714C131.636 228.714 131.9 228.713 132.118 228.826C132.468 229.017 132.593 229.48 132.507 229.863C132.421 230.253 132.164 230.577 131.894 230.868C129.387 233.571 125.429 234.046 121.946 234.165C118.727 234.278 115.482 233.676 112.527 232.388C112.659 233.412 112.883 234.423 113.186 235.408V235.421Z" fill="#222221"/>
<path d="M79.2948 261.94C78.457 261.398 78.3581 262.059 78.0415 262.892C77.7446 263.658 77.5203 264.451 77.3686 265.264C76.1549 265 74.9742 264.597 73.8594 264.061C74.4267 259.72 75.2248 255.405 76.2407 251.142C76.2538 251.076 79.8159 253.125 80.1259 253.343C81.3198 254.195 82.428 255.16 83.4636 256.198C84.4795 257.215 85.5415 258.088 86.5111 259.165C87.6853 260.466 88.8528 261.762 90.027 263.064C91.2803 264.451 92.5072 265.674 94.1431 266.592C94.7302 266.923 95.3436 267.253 95.7658 267.762C96.2935 268.39 96.6827 269.685 96.1748 270.425C95.7856 270.994 94.9742 271.053 94.2816 270.987C91.5507 270.742 89.0046 269.553 86.5243 268.383C85.7658 268.026 84.994 267.663 84.3146 267.167C82.395 265.766 81.3396 263.414 79.4135 262.026C79.3739 262 79.3343 261.973 79.2948 261.947V261.94Z" fill="#222221"/>
<path d="M117.395 229.308C115.192 228.839 112.962 228.601 110.759 228.112C109.242 227.775 106.841 227.266 105.825 225.951C104.934 224.801 104.512 223.004 103.846 221.689C98.4568 211.023 92.375 200.708 85.6599 190.822C85.1916 190.128 84.7035 189.427 84.0042 188.965C83.0742 188.343 81.9066 188.244 80.7918 188.165C75.5082 187.808 70.2113 187.055 65.0332 185.931C60.4553 184.94 55.5081 183.704 51.5833 181.028C50.0859 180.004 48.1795 178.464 48.4236 176.442C48.9645 171.961 52.0714 170.375 54.6374 167.236C56.8801 164.487 60.4157 161.54 61.9791 162.175C65.6005 163.642 68.8063 163.351 72.6849 163.78C78.6216 164.435 91.933 166.668 96.4251 170.593C101.24 174.803 102.467 180.288 104.031 186.341C104.862 189.566 105.851 192.573 106.88 195.731C109.136 202.677 111.3 209.649 113.431 216.634C114.499 220.143 115.785 223.704 119.044 225.687C120.785 226.744 122.962 227.398 124.908 227.967C125.146 228.502 124.605 229.057 124.077 229.308C122.692 229.976 121.076 229.962 119.559 229.718C118.833 229.606 118.107 229.44 117.388 229.288L117.395 229.308Z" fill="white" stroke="#222221" stroke-width="0.5" stroke-miterlimit="10"/>
<path d="M54.6904 134.195C57.5467 138.583 59.1957 143.645 60.6469 148.68C61.0295 150.008 61.4121 151.37 62.2103 152.5C63.2723 154.006 64.9411 154.938 66.5309 155.87C70.4425 158.156 74.1958 160.701 77.7644 163.489C78.0085 163.681 78.2591 163.886 78.3581 164.177C78.5758 164.818 77.9425 165.419 77.3489 165.743C72.9755 168.148 67.4807 166.371 63.2129 163.8C57.5862 160.41 52.6786 155.546 50.1192 149.486C48.3843 145.376 47.7775 140.882 47.1904 136.455C46.9529 134.69 45.726 128.307 48.1996 128.161C50.5084 128.023 53.635 132.569 54.697 134.188L54.6904 134.195Z" fill="white" stroke="#222221" stroke-width="0.5" stroke-miterlimit="10"/>
<path d="M54.1098 190.035C52.8697 188.687 51.5373 186.791 50.97 185.039C50.1322 182.469 52.8565 184.59 53.9713 185.039C55.0795 185.482 56.2141 185.852 57.375 186.13C59.6969 186.685 62.098 186.896 64.4793 186.731C68.226 186.473 71.8408 185.337 75.4688 184.359C79.0968 183.387 82.8501 182.568 86.577 182.978C89.3739 183.288 92.1905 184.379 94.242 186.348C96.1153 188.145 96.9135 191.079 97.2829 193.597C97.8106 197.186 97.3818 200.847 96.8211 204.428C94.519 219.066 89.9345 233.161 86.8606 247.534C86.6232 248.644 86.3659 249.761 86.2142 250.891C86.1548 251.327 86.1153 251.77 86.0955 252.213C86.0031 254.4 86.4319 256.753 87.2828 258.775C87.8039 260.024 88.4438 261.854 89.387 262.773C89.9873 263.355 90.5876 263.936 91.1879 264.518C91.3791 264.703 91.5836 264.927 91.5572 265.192C91.5243 265.502 91.1747 265.694 90.8646 265.661C90.5546 265.628 90.2907 265.443 90.0401 265.264C89.5783 264.934 89.1232 264.603 88.6615 264.273C84.8488 261.524 80.9371 259.74 77.9886 255.841C77.4213 255.094 76.8936 254.295 76.6561 253.389C76.4912 252.761 76.478 252.107 76.4648 251.46C76.3593 246.721 76.2999 242.016 76.0954 237.291C75.9635 234.252 76.8408 198.725 77.164 198.745C71.4582 198.302 65.8315 196.835 60.6402 194.43C58.2457 193.32 55.8974 191.985 54.1098 190.035Z" fill="white" stroke="#222221" stroke-width="0.5" stroke-miterlimit="10"/>
<path d="M41.2665 140.222C43.3377 140.889 45.6267 140.698 47.3615 139.316C48.9908 138.021 49.8549 135.953 49.8879 133.898C49.9341 131.162 48.5554 128.862 46.4116 127.243C45.0858 126.245 43.6873 125.347 42.223 124.567C42.1966 123.43 42.1174 121.983 42.4802 120.893C42.7507 120.06 43.6807 119.736 44.3734 119.346C44.9538 119.022 45.5739 118.784 46.1016 118.368C48.6082 116.372 49.1623 113.617 49.6372 110.59C49.8285 109.354 49.3602 107.101 48.7995 105.984C48.252 104.894 47.7507 105.178 46.6161 104.735C44.5778 103.936 42.0251 103.394 39.8351 103.751C38.3047 104.002 36.9327 105.469 36.1345 106.757C34.2876 109.744 34.0501 113.689 34.4459 117.093C34.7427 119.69 34.7559 122.584 33.0738 124.58C31.5039 126.444 28.8588 127.018 27.0778 128.684C22.4933 132.979 25.3693 141.596 32.0118 140.803C34.1029 140.552 36.7612 138.966 38.7665 139.389C39.6306 139.568 40.4287 139.957 41.2731 140.222H41.2665Z" fill="white"/>
<path d="M41.2665 140.222C43.3377 140.889 45.6267 140.698 47.3615 139.316C48.9908 138.021 49.8549 135.953 49.8879 133.898C49.9341 131.162 48.5554 128.862 46.4116 127.243C45.0858 126.245 43.6873 125.347 42.223 124.567C42.1966 123.43 42.1174 121.983 42.4802 120.893C42.7507 120.06 43.6807 119.736 44.3734 119.346C44.9538 119.022 45.5739 118.784 46.1016 118.368C48.6082 116.372 49.1623 113.617 49.6372 110.59C49.8285 109.354 49.3602 107.101 48.7995 105.984C48.252 104.894 47.7507 105.178 46.6161 104.735C44.5778 103.936 42.0251 103.394 39.8351 103.751C38.3047 104.002 36.9327 105.469 36.1345 106.757C34.2876 109.744 34.0501 113.689 34.4459 117.093C34.7427 119.69 34.7559 122.584 33.0738 124.58C31.5039 126.444 28.8588 127.018 27.0778 128.684C22.4933 132.979 25.3693 141.596 32.0118 140.803C34.1029 140.552 36.7612 138.966 38.7665 139.389C39.6306 139.568 40.4287 139.957 41.2731 140.222H41.2665Z" stroke="#222221" stroke-width="0.5" stroke-miterlimit="10"/>
<path d="M30.6794 127.177C31.8602 128.261 33.3707 128.895 34.8747 129.45C36.3325 129.986 37.942 130.276 39.4987 130.111C40.508 129.999 41.8075 129.642 42.4737 128.823C43.2455 127.871 43.5753 126.404 43.5753 125.201C45.6267 125.736 48.1333 126.212 49.9144 127.455C51.8867 128.829 52.6716 131.796 53.4632 134.01C55.7125 140.255 56.5635 146.903 57.1242 153.485C57.1901 154.231 57.2627 155.024 57.698 155.639C57.9949 156.062 58.4368 156.353 58.8722 156.63C63.4171 159.472 68.7271 161.164 74.024 161.646L82.3156 162.406C78.0148 174.162 70.8511 186.81 61.5239 195.262C61.0358 195.705 60.5081 196.168 59.8616 196.273C57.4474 196.683 51.1677 193.075 48.8919 192.057C45.0661 190.339 41.4183 188.106 38.8127 184.749C37.3088 182.812 36.2072 180.579 35.376 178.266C33.2982 172.451 33.694 166.8 34.3404 160.794C32.5 155.309 30.6597 149.824 28.8259 144.339C29.4855 142.925 30.4684 141.702 31.1808 140.341C31.438 139.852 31.537 139.317 31.5436 138.768C31.5568 138.094 31.438 137.393 31.3061 136.733C31.1808 136.085 28.318 129.193 27.4868 129.893C28.5488 128.994 29.6108 128.096 30.6794 127.19V127.177Z" fill="#651FFF"/>
<path d="M35.2704 142.455C35.8707 146.751 36.0026 151.125 35.7058 155.414C35.587 157.073 35.343 158.943 34.1952 160.225C33.4234 161.084 32.2955 161.639 31.1411 161.646C30.4287 161.646 29.7295 161.461 29.0501 161.236C26.1675 160.284 24.5909 157.469 23.839 154.628C22.9089 151.119 21.8007 140.631 22.6384 137.796C23.43 135.107 25.7387 132.649 28.5422 132.635C30.8179 132.622 33.4828 134.016 34.0567 136.25C34.5778 138.285 34.9802 140.36 35.277 142.455H35.2704Z" fill="white" stroke="#222221" stroke-width="0.5" stroke-miterlimit="10"/>
<path d="M35.2178 129.074C35.4355 129.292 35.6597 129.49 35.9236 129.649C36.7547 130.157 37.8431 130.164 38.7864 130.171C38.6281 130.627 38.3313 130.944 38.0806 131.354C37.8036 131.81 37.355 132.127 37.0648 132.576C36.7877 132.999 36.5832 133.468 36.3853 133.931C36.227 134.288 36.0753 134.644 35.917 134.995C35.7521 135.378 36.016 135.979 36.0885 136.382C36.1875 136.938 36.2666 137.493 36.326 138.054C36.4381 139.112 36.4777 140.189 36.3788 141.246C34.2283 141.795 31.4777 141.411 29.2613 141.392C26.7019 141.365 24.1491 141.292 21.5964 141.18C21.4117 141.173 21.2072 141.154 21.095 141.008C21.0027 140.896 20.9961 140.737 20.9961 140.592C20.9961 139.112 21.0884 137.625 21.3259 136.164C21.5634 134.737 21.5964 133.277 21.9592 131.856C22.1241 131.208 22.3417 130.567 22.6979 130.005C23.9908 127.95 26.2864 127.025 28.4631 126.206C29.6241 125.77 30.7851 125.327 31.946 124.891C32.5133 126.278 33.5687 127.375 34.6043 128.433C34.8088 128.644 35.0067 128.869 35.2178 129.074Z" fill="#651FFF"/>
<path d="M42.4342 111.172C42.7113 110.352 43.0609 109.592 43.7271 109.037C44.4659 108.416 45.4554 108.099 46.4184 108.165C47.5398 108.244 48.6018 108.515 49.7496 108.568C49.9277 108.575 50.1388 108.568 50.2443 108.423C50.3037 108.343 50.3103 108.231 50.3169 108.132C50.4554 105.66 47.4606 103.42 45.4949 102.488C42.6915 101.153 39.4263 100.763 36.3986 101.497C35.5938 101.689 34.7957 101.96 34.0767 102.376C33.0411 102.971 32.1769 103.869 31.6162 104.927C31.425 105.284 31.2666 105.667 30.9632 105.931C30.4487 106.381 29.6967 106.361 29.0371 106.539C26.4051 107.259 27.289 110.22 25.6268 111.766C25.0793 112.275 24.2943 112.46 23.6875 112.903C22.9948 113.405 22.5727 114.238 22.4539 115.09C22.289 116.313 22.6518 117.278 23.3576 118.229C24.479 119.729 26.6888 119.888 28.4962 119.406C28.9975 119.273 29.5252 119.102 30.0199 119.24C30.7257 119.439 31.1149 120.172 31.5833 120.74C32.7112 122.128 34.6967 122.736 36.4118 122.254C38.1334 121.771 39.4989 120.238 39.8221 118.48C39.9606 117.72 39.921 116.934 40.0991 116.187C40.264 115.487 40.9303 114.826 41.2997 114.225C41.8538 113.319 42.078 112.209 42.421 111.191L42.4342 111.172Z" fill="#222221"/>
<path d="M45.4422 118.758L45.4093 118.831C44.5122 119.042 43.7734 119.63 43.1137 120.265C42.3683 119.875 41.6757 119.406 41.3591 118.718C41.214 118.408 41.0755 118.044 41.0425 117.714C42.2298 118.613 43.8987 119.009 45.4356 118.751L45.4422 118.758Z" fill="#222221"/>
<path d="M47.124 115.983C46.8602 116.63 46.1675 117.066 45.4749 117.027C44.7823 116.987 44.1425 116.472 43.9512 115.804" stroke="#222221" stroke-width="0.5" stroke-miterlimit="10"/>
<path d="M59.354 170.752L83.5032 167.501C83.6087 167.488 83.6417 167.329 83.5428 167.289L69.6839 160.866L45.1455 164.17L59.3474 170.759L59.354 170.752Z" fill="white" stroke="#222221" stroke-width="0.5" stroke-miterlimit="10"/>
<path d="M60.2975 168.743L72.9823 167.032L65.6603 164.078L52.9756 165.783L60.2975 168.743Z" fill="white" stroke="#222221" stroke-width="0.5" stroke-miterlimit="10"/>
<path d="M84.1562 166.866L90.6734 152.255L65.3171 155.467L59.354 170.759L83.3053 167.534C83.6681 167.488 83.9913 167.23 84.1496 166.873L84.1562 166.866Z" fill="black"/>
<path d="M55.297 144.259L49.2812 143.539C49.1954 143.407 49.1558 143.347 49.0635 143.208L52.8036 130.408C52.8366 130.289 52.9553 130.21 53.0806 130.223L59.0965 130.943C59.1823 131.076 59.2218 131.135 59.3142 131.274L55.5741 144.074C55.4685 144.14 55.4026 144.186 55.297 144.259Z" fill="#222221"/>
<path d="M33.1597 151.68C34.3603 150.788 36.9328 149.658 36.9328 149.658C37.3088 149.467 37.6782 149.268 38.0476 149.07C39.9144 148.072 41.7482 147.008 43.5292 145.872C44.5912 145.191 45.64 144.484 46.6426 143.717C47.4804 143.083 48.7997 142.27 49.0107 141.167C49.3472 139.402 49.611 137.076 50.9369 135.754C51.016 135.675 51.1611 135.602 51.2139 135.702C51.2337 135.735 51.2271 135.774 51.2271 135.814C51.1084 136.785 50.7192 137.889 51.9197 138.246C52.9619 138.563 54.1295 138.193 55.0134 137.618C56.115 136.898 56.9659 135.847 58.0015 135.027C58.1862 134.882 58.5095 134.77 58.6084 134.981C58.6414 135.061 58.6282 135.153 58.6084 135.239C58.4567 135.913 58.1862 136.567 57.7245 137.089C57.8234 137.4 57.7047 137.717 57.7575 138.114C58.0147 140.136 58.4039 141.028 56.9725 142.614C55.8445 143.863 54.4263 144.603 53.2456 145.72C51.2997 147.563 49.7165 149.718 47.896 151.68C45.8049 153.94 43.8458 156.326 41.6558 158.494C37.8695 162.24 32.7772 166.496 27.7507 162.029C25.6333 160.152 24.4856 157.397 23.8325 154.641" fill="white"/>
<path d="M33.1597 151.68C34.3603 150.788 36.9328 149.658 36.9328 149.658C37.3088 149.467 37.6782 149.268 38.0476 149.07C39.9144 148.072 41.7482 147.008 43.5292 145.872C44.5912 145.191 45.64 144.484 46.6426 143.717C47.4804 143.083 48.7997 142.27 49.0107 141.167C49.3471 139.402 49.611 137.076 50.9369 135.754C51.016 135.675 51.1611 135.602 51.2139 135.702C51.2337 135.735 51.2271 135.774 51.2271 135.814C51.1084 136.785 50.7192 137.889 51.9197 138.246C52.9619 138.563 54.1295 138.193 55.0134 137.618C56.115 136.898 56.9659 135.847 58.0015 135.027C58.1862 134.882 58.5095 134.77 58.6084 134.981C58.6414 135.061 58.6282 135.153 58.6084 135.239C58.4567 135.913 58.1862 136.567 57.7245 137.089C57.8234 137.4 57.7047 137.717 57.7575 138.114C58.0147 140.136 58.4039 141.028 56.9725 142.614C55.8445 143.863 54.4263 144.603 53.2456 145.72C51.2997 147.563 49.7165 149.718 47.896 151.68C45.8049 153.94 43.8458 156.326 41.6558 158.494C37.8695 162.24 32.7772 166.496 27.7507 162.029C25.6333 160.152 24.4856 157.397 23.8325 154.641" stroke="#222221" stroke-width="0.5" stroke-miterlimit="10"/>
<path d="M87.1242 158.533C86.6492 158.434 86.1611 158.381 85.6994 158.328C85.3827 158.295 85.0529 158.269 84.7363 158.328C84.4659 158.381 84.1228 158.487 84.0371 158.804C83.9843 158.996 84.0371 159.214 84.1756 159.346C84.0569 159.227 83.8392 159.333 83.7139 159.392C83.417 159.551 83.3115 159.947 83.5028 160.245C83.6215 160.43 83.826 160.509 84.0107 160.588C83.7864 160.496 83.3907 160.793 83.2719 160.978C83.1136 161.243 83.1664 161.639 83.3445 161.87C83.4764 162.049 83.6611 162.168 83.8458 162.274C83.6875 162.274 83.5292 162.313 83.4038 162.419C83.2851 162.525 83.2126 162.71 83.2521 162.868C83.2983 163.053 83.4698 163.166 83.6281 163.258C84.3141 163.661 85.1057 163.899 85.8643 164.084C86.359 164.203 87.6651 164.606 87.896 163.912C87.9817 163.641 87.896 163.318 87.6915 163.146C87.9223 163.106 88.1598 163.06 88.3445 162.908C88.7799 162.558 88.5292 162.148 88.2653 161.818C88.615 161.844 88.9778 161.652 89.0305 161.229C89.0767 160.873 88.859 160.516 88.5622 160.35C89.4725 160.311 89.1559 159.359 88.615 159.049C88.1466 158.784 87.6321 158.619 87.111 158.513L87.1242 158.533Z" fill="white" stroke="#222221" stroke-width="0.5" stroke-miterlimit="10"/>
<path d="M83.7339 162.273C85.6007 162.762 86.0294 162.974 87.7972 163.139" stroke="#222221" stroke-width="0.5" stroke-miterlimit="10"/>
<path d="M88.3578 161.837C87.5465 161.626 86.4515 161.269 85.6401 161.058C84.6902 160.807 84.4924 160.635 83.5425 160.536" stroke="#222221" stroke-width="0.5" stroke-miterlimit="10"/>
<path d="M88.6412 160.377C87.0844 160.053 85.5079 159.709 83.9775 159.28" stroke="#222221" stroke-width="0.5" stroke-miterlimit="10"/>
<path d="M30.6006 162.174C31.1613 162.531 31.8803 162.637 32.5201 162.452L30.6006 162.174Z" fill="white"/>
<path d="M30.6006 162.174C31.1613 162.531 31.8803 162.637 32.5201 162.452" stroke="#222221" stroke-width="0.5" stroke-miterlimit="10"/>
<path d="M33.7998 162.115C34.0373 161.983 34.3011 161.897 34.5716 161.857L33.7998 162.115Z" fill="white"/>
<path d="M33.7998 162.115C34.0373 161.983 34.3011 161.897 34.5716 161.857" stroke="#222221" stroke-width="0.5" stroke-miterlimit="10"/>
<path d="M56.8671 138.926C56.6955 139.072 56.524 139.21 56.3525 139.356L56.8671 138.926Z" fill="white"/>
<path d="M56.8671 138.926C56.6955 139.072 56.524 139.21 56.3525 139.356" stroke="#222221" stroke-width="0.5" stroke-miterlimit="10"/>
<path d="M57.0318 139.951C56.8867 140.037 56.7481 140.122 56.603 140.208L57.0318 139.951Z" fill="white"/>
<path d="M57.0318 139.951C56.8867 140.037 56.7481 140.122 56.603 140.208" stroke="#222221" stroke-width="0.5" stroke-miterlimit="10"/>
<path d="M57.5463 140.81L57.2891 141.068L57.5463 140.81Z" fill="white"/>
<path d="M57.5463 140.81L57.2891 141.068" stroke="#222221" stroke-width="0.5" stroke-miterlimit="10"/>
<path d="M97.6919 185.178C98.0811 186.037 98.3845 186.936 98.5824 187.861" stroke="black" stroke-width="0.5" stroke-miterlimit="10"/>
<path d="M6.8208 141.557C6.76143 156.002 12.1572 170.402 21.6889 181.233" stroke="black" stroke-width="0.5" stroke-miterlimit="10"/>
<path d="M25.0264 184.141C26.9261 186.262 29.1887 188.066 31.6821 189.447" stroke="black" stroke-width="0.5" stroke-miterlimit="10"/>
<path d="M31.1348 163.285C31.5371 163.701 32.1836 163.873 32.7377 163.708" stroke="black" stroke-width="0.5" stroke-miterlimit="10"/>
<path d="M36.1413 168.195C36.0291 169.49 35.9104 170.812 36.1809 172.081C36.7481 174.757 38.892 176.805 41.1281 178.385" stroke="black" stroke-width="0.5" stroke-miterlimit="10"/>
<path d="M42.731 179.369C43.3378 179.785 43.9975 180.116 44.6967 180.354" stroke="black" stroke-width="0.5" stroke-miterlimit="10"/>
<path d="M35.3563 141.464C35.0661 139.858 34.7824 138.252 34.4922 136.646" stroke="black" stroke-width="0.5" stroke-miterlimit="10"/>
<path d="M51.3589 135.721C50.8906 134.829 50.4024 133.944 49.8945 133.071" stroke="black" stroke-width="0.5" stroke-miterlimit="10"/>
<path d="M15.1915 65.7065L11.1413 70.22C10.9303 70.5703 10.8115 70.9866 10.8115 71.4227V95.1796C10.8115 96.488 11.8669 97.5454 13.173 97.5454L35.6467 97.4594C35.9436 97.4793 37.0979 97.5123 37.652 96.9638C38.6876 95.9263 42.3948 91.8292 42.3948 91.8292" stroke="#222221" stroke-width="0.5" stroke-miterlimit="10"/>
<path d="M39.3934 64.7549H17.9355C16.1905 64.7549 14.7759 66.1721 14.7759 67.9203V90.0779C14.7759 91.8261 16.1905 93.2433 17.9355 93.2433H39.3934C41.1384 93.2433 42.5531 91.8261 42.5531 90.0779V67.9203C42.5531 66.1721 41.1384 64.7549 39.3934 64.7549Z" stroke="#222221" stroke-width="0.5" stroke-miterlimit="10"/>
<path d="M15.442 92.3315L11.3589 96.6666" stroke="#222221" stroke-width="0.5" stroke-miterlimit="10"/>
<path d="M41.2735 84.5269C41.2999 86.0335 41.2735 87.5402 41.1812 89.0469" stroke="#222221" stroke-width="0.5" stroke-miterlimit="10"/>
<path d="M41.1017 90.1572C41.0423 90.4348 40.9764 90.7123 40.917 90.9899" stroke="#222221" stroke-width="0.5" stroke-miterlimit="10"/>
<path d="M39.7101 91.8423C39.0636 91.9018 38.4172 91.9612 37.7773 92.0141" stroke="#222221" stroke-width="0.5" stroke-miterlimit="10"/>
<path d="M36.5637 76.5113L28.9581 69.0571L20.6929 76.5113H24.6639V88.6045H32.5993V76.5113H36.5637Z" fill="#00E5FF" stroke="black" stroke-width="0.5" stroke-miterlimit="10"/>
<path d="M25.607 77.2383C25.5015 78.4013 25.4751 79.5776 25.5279 80.7473" stroke="#222221" stroke-width="0.5" stroke-miterlimit="10"/>
<path d="M25.5278 81.9434V83.0536" stroke="#222221" stroke-width="0.5" stroke-miterlimit="10"/>
<path d="M241.05 17.8821C241.01 11.1152 235.318 5.703 228.484 6.10611C222.719 6.44974 217.943 11.0623 217.415 16.8248C217.033 20.9748 218.794 24.7217 221.703 27.1139C223.484 28.581 224.691 30.6295 224.942 32.9292L225.641 39.3195L233.009 39.2798L233.642 32.883C233.866 30.5965 235.027 28.5281 236.789 27.0544C239.407 24.8671 241.07 21.5695 241.05 17.8821Z" fill="#00E5FF"/>
<path d="M229.335 40.8793C226.769 40.8925 224.678 38.8175 224.658 36.2469L224.645 34.2247L233.939 34.1719L233.952 36.194C233.965 38.7646 231.894 40.8595 229.328 40.8793H229.335Z" fill="black"/>
<path d="M231.485 34.9516C231.973 32.2885 232.461 29.632 232.956 26.9688C233.305 25.0788 233.648 23.1889 233.998 21.2989C234.262 19.8583 235.548 17.1687 233.207 16.7061C232.336 16.5343 231.34 17.2744 231.412 18.1599C231.426 18.3582 231.491 18.5564 231.63 18.7018C232.019 19.1049 232.798 18.7943 232.929 18.2458C233.055 17.6974 232.666 17.1357 232.158 16.8978C231.188 16.4484 229.889 17.1753 229.75 18.2326C229.737 18.3318 229.737 18.4441 229.79 18.53C229.928 18.7349 230.265 18.6093 230.396 18.3978C230.66 17.9551 230.396 17.3405 229.941 17.096C229.486 16.8515 228.925 16.911 228.444 17.096C227.732 17.3603 227.052 18.0939 227.323 18.8009C227.375 18.9397 227.474 19.0719 227.619 19.1049C227.705 19.1248 227.798 19.1049 227.877 19.0653C229.249 18.4441 227.369 16.3889 226.063 17.0365C225.284 17.4198 224.875 18.3318 224.842 19.2041C224.803 20.0763 225.067 20.9222 225.304 21.7615C226.465 25.8322 227.151 30.0483 227.342 34.2776C227.369 34.8195 227.303 34.8261 227.118 35.3283" stroke="#222221" stroke-width="0.5" stroke-miterlimit="10"/>
<path d="M210.99 14.8955C213.127 15.1929 212.435 15.1004 214.612 15.3977" stroke="#222221" stroke-width="0.5" stroke-miterlimit="10"/>
<path d="M214.176 6.06641L216.947 8.59078" stroke="#222221" stroke-width="0.5" stroke-miterlimit="10"/>
<path d="M225.627 0.350586C225.806 1.28236 225.99 2.81548 226.168 3.74065" stroke="#222221" stroke-width="0.5" stroke-miterlimit="10"/>
<path d="M233.398 0.0200195C233.134 2.01573 232.956 3.38365 232.851 4.19647" stroke="#222221" stroke-width="0.5" stroke-miterlimit="10"/>
<path d="M244.586 8.03613C242.752 9.32475 242.877 9.23884 240.984 10.5605" stroke="#222221" stroke-width="0.5" stroke-miterlimit="10"/>
<path d="M243.8 16.2104C246.017 16.3558 245.463 16.3228 247.692 16.4682" stroke="#222221" stroke-width="0.5" stroke-miterlimit="10"/>
<mask id="mask2_144_4627" style="mask-type:luminance" maskUnits="userSpaceOnUse" x="224" y="34" width="10" height="7">
<path d="M229.335 40.8793C226.769 40.8925 224.678 38.8175 224.658 36.2469L224.645 34.2247L233.939 34.1719L233.952 36.194C233.965 38.7646 231.894 40.8595 229.328 40.8793H229.335Z" fill="white"/>
</mask>
<g mask="url(#mask2_144_4627)">
<path d="M223.609 36.518L235.014 36.4585" stroke="#00E5FF" stroke-width="0.5" stroke-miterlimit="10"/>
<path d="M223.622 38.8044L235.027 38.7383" stroke="#00E5FF" stroke-width="0.5" stroke-miterlimit="10"/>
</g>
<path d="M235.562 10.3354C237.784 11.9479 239.117 14.7101 239.005 17.4592" stroke="#222221" stroke-width="0.5" stroke-miterlimit="10"/>
<path d="M238.51 21.4375C238.114 22.779 237.363 24.0147 236.36 24.9862" stroke="#222221" stroke-width="0.5" stroke-miterlimit="10"/>
<path d="M149.664 23.2941H149.572C150.192 23.3073 150.7 22.8051 150.706 22.1839C150.706 21.5693 150.192 21.0803 149.578 21.0671C148.622 21.0473 146.801 21.3909 145.97 20.9944C144.512 20.3071 145.64 17.8356 145.654 16.6792C145.654 16.243 145.634 15.7937 145.423 15.417C145.212 15.0403 144.776 14.7561 144.354 14.8487C143.78 14.9808 143.563 15.6549 143.391 16.2232C142.995 17.5382 142.065 18.7476 141.307 19.871C140.456 21.1398 139.862 22.6134 139.677 24.1333C139.519 25.4021 139.479 26.6907 139.559 27.9662C139.638 29.2349 140.159 29.7834 141.359 29.8165C142.217 29.8363 143.074 29.8495 143.932 29.8693L145.944 29.909L148.53 29.9619C149.143 29.9751 149.677 29.5059 149.704 28.8913C149.724 28.2701 149.235 27.7481 148.615 27.7349H149.064C149.651 27.7547 150.166 27.3251 150.225 26.7436C150.271 26.2612 150.007 25.8251 149.618 25.6268C150.231 25.64 150.739 25.151 150.753 24.5298V24.4373C150.766 23.8227 150.278 23.3073 149.664 23.3007V23.2941Z" fill="#651FFF"/>
<path d="M138.411 22.6398C138.147 22.5737 137.883 22.5077 137.626 22.4416C137.336 22.3689 137.019 22.2962 136.755 22.4284C135.7 22.957 135.984 25.6202 135.977 26.5718C135.977 27.53 135.436 29.79 136.894 29.9222C137.395 29.9684 137.969 29.9883 138.332 29.6446C138.602 29.3869 138.688 28.9904 138.748 28.627C138.932 27.5234 139.038 26.4066 139.071 25.2898C139.084 24.7743 139.203 23.2412 138.833 22.805C138.767 22.7257 138.662 22.6993 138.563 22.6729C138.51 22.6597 138.457 22.6464 138.405 22.6332L138.411 22.6398Z" fill="#651FFF"/>
<path d="M255.199 72.4204H255.126C255.595 72.4271 255.984 72.0504 255.984 71.5812C255.984 71.1186 255.595 70.7419 255.133 70.7353C254.407 70.7221 253.035 70.9798 252.402 70.6825C251.3 70.1604 252.151 68.2969 252.165 67.418C252.165 67.0875 252.151 66.7505 251.993 66.4598C251.835 66.1756 251.505 65.9575 251.182 66.0302C250.746 66.1293 250.581 66.6448 250.456 67.0677C250.159 68.0656 249.453 68.9775 248.88 69.8234C248.233 70.7816 247.791 71.8984 247.646 73.0482C247.527 74.0064 247.501 74.9845 247.56 75.9493C247.62 76.9075 248.009 77.3238 248.926 77.3436C249.572 77.3569 250.219 77.3701 250.872 77.3833L252.395 77.4163L254.348 77.456C254.81 77.4626 255.219 77.1123 255.232 76.6432C255.252 76.174 254.876 75.7775 254.407 75.7709H254.75C255.192 75.7841 255.588 75.4603 255.628 75.0175C255.661 74.6474 255.463 74.3236 255.173 74.1716C255.641 74.1783 256.023 73.8082 256.03 73.3456V73.2795C256.043 72.8103 255.674 72.4271 255.206 72.4204H255.199Z" fill="#651FFF"/>
<path d="M246.696 71.9316C246.498 71.8788 246.301 71.8325 246.103 71.7796C245.885 71.7268 245.648 71.6739 245.443 71.773C244.645 72.1695 244.856 74.1851 244.856 74.9054C244.856 75.6323 244.447 77.3438 245.549 77.443C245.931 77.476 246.36 77.4958 246.637 77.2315C246.841 77.0399 246.907 76.7425 246.954 76.4583C247.092 75.6257 247.171 74.7798 247.198 73.9339C247.211 73.5441 247.297 72.3876 247.02 72.0572C246.967 71.9977 246.888 71.9779 246.815 71.9581C246.776 71.9448 246.736 71.9382 246.696 71.925V71.9316Z" fill="#651FFF"/>
<path d="M72.1905 79.5572H72.1179C72.6192 79.5638 73.0348 79.1607 73.0348 78.6585C73.0348 78.1628 72.6192 77.7664 72.1179 77.7531C71.3461 77.7399 69.8752 78.0175 69.1957 77.6937C68.015 77.1386 68.9319 75.1429 68.9451 74.2045C68.9451 73.8542 68.9253 73.4908 68.7604 73.1802C68.5889 72.8762 68.2393 72.6449 67.8962 72.7242C67.4345 72.8299 67.2564 73.3784 67.1179 73.8344C66.8013 74.8983 66.0427 75.8764 65.4292 76.7883C64.7432 77.8126 64.2617 79.0087 64.11 80.2379C63.9846 81.2688 63.9516 82.3063 64.0176 83.3438C64.0836 84.3681 64.4991 84.8108 65.4754 84.8372C66.168 84.8571 66.8606 84.8637 67.5532 84.8769L69.1825 84.9099L71.2736 84.9496C71.7683 84.9562 72.2037 84.5795 72.2234 84.0839C72.2432 83.5817 71.8409 83.1587 71.3395 83.1521H71.7023C72.1773 83.1719 72.5928 82.8217 72.639 82.3459C72.6786 81.956 72.4609 81.6058 72.1509 81.4406C72.6456 81.4472 73.0612 81.0507 73.0678 80.5551V80.4824C73.081 79.9801 72.6852 79.5704 72.1839 79.5638L72.1905 79.5572Z" fill="#651FFF"/>
<path d="M63.0875 79.0284C62.8764 78.9755 62.6653 78.9227 62.4476 78.8698C62.2167 78.8103 61.9595 78.7508 61.7418 78.8632C60.8909 79.2861 61.1152 81.447 61.1152 82.2202C61.1152 82.9934 60.6732 84.8239 61.8605 84.9362C62.2695 84.9759 62.7247 84.9891 63.0281 84.7115C63.2458 84.5067 63.3183 84.1829 63.3645 83.8855C63.5162 82.9934 63.602 82.088 63.6284 81.1827C63.6416 80.7664 63.7339 79.524 63.4371 79.1738C63.3843 79.1077 63.2985 79.0879 63.2194 79.068C63.1798 79.0548 63.1336 79.0482 63.0941 79.035L63.0875 79.0284Z" fill="#651FFF"/>
<path d="M81.1281 102.977C76.2732 102.977 72.3418 98.5825 72.3418 98.5825C72.3418 98.5825 76.2732 94.188 81.1281 94.188C85.983 94.188 89.9144 98.5825 89.9144 98.5825C89.9144 98.5825 85.983 102.977 81.1281 102.977Z" fill="white" stroke="#222221" stroke-width="0.5" stroke-miterlimit="10"/>
<path d="M81.1015 102.99C78.9841 102.99 77.269 101.021 77.269 98.5891C77.269 96.1573 78.9841 94.188 81.1015 94.188C83.2189 94.188 84.934 96.1573 84.934 98.5891C84.934 101.021 83.2189 102.99 81.1015 102.99Z" fill="black"/>
<path d="M169.361 150.022H208.807C209.388 150.022 210.014 148.231 210.014 148.231C210.014 147.65 209.513 147.92 208.932 147.92H169.354C168.774 147.92 168.306 148.39 168.306 148.971C168.306 149.553 168.774 150.022 169.354 150.022H169.361Z" fill="black"/>
<path d="M175.232 149.05H209.869L217.066 131.254C217.303 130.673 216.875 130.045 216.248 130.045H183.51C183.154 130.045 182.831 130.263 182.692 130.593L175.232 149.057V149.05Z" fill="black"/>
<path d="M199.328 139.098C199.045 139.845 198.075 140.453 197.171 140.453C196.268 140.453 195.766 139.845 196.05 139.098C196.334 138.345 197.303 137.737 198.207 137.737C199.111 137.737 199.612 138.345 199.328 139.098Z" stroke="white" stroke-width="0.5" stroke-miterlimit="10"/>
<path d="M255.311 96.6992C256.308 95.3247 257.449 94.0228 258.465 92.9193C260.648 90.5601 263.194 88.6437 265.866 87.0312C267.304 92.3311 265.905 98.1927 263.26 102.871C261.565 105.858 259.395 108.455 257.086 110.861C255.793 112.202 254.447 113.431 253.108 114.74C252.996 114.852 252.838 114.971 252.706 114.892C252.6 114.826 252.574 114.68 252.561 114.548C251.954 109.546 251.393 104.173 253.491 99.6994C253.959 98.6949 254.606 97.6772 255.318 96.6926L255.311 96.6992Z" fill="#00E5FF"/>
<path d="M235.964 102.66C235.991 106.05 236.063 109.486 236.934 112.731C237.805 115.975 239.579 119.055 242.257 120.634C243.708 121.487 245.344 121.863 246.888 122.485C248.438 123.112 249.81 124.051 250.747 125.59C251.235 120.971 249.177 116.002 246.967 112.235C244.375 107.808 240.476 104.312 235.964 102.66Z" fill="#00E5FF"/>
<path d="M261.09 112.737C264.922 109.876 269.507 108.627 273.999 107.497C272.686 111.601 271.308 115.824 268.682 119.048C266.228 122.055 262.825 123.965 259.269 124.837C258.597 125.002 254.408 126.807 254.137 126.641C253.484 126.238 254.513 123.615 254.659 122.994C255.674 118.698 257.739 115.229 261.083 112.737H261.09Z" fill="#00E5FF"/>
<path d="M252.732 137.228C252.924 134.194 253.115 131.135 253.887 128.194C254.659 125.253 256.064 122.405 258.326 120.383C261.433 117.614 266.017 116.471 268.188 112.922" stroke="#1C0C03" stroke-width="0.5" stroke-miterlimit="10"/>
<path d="M256.222 103.896C256.07 104.827 255.727 105.713 255.391 106.592C253.939 110.372 252.627 114.251 252.191 118.275C251.835 121.513 252.053 124.791 251.855 128.049C251.796 129 251.703 129.952 251.611 130.904L251.301 134.062" stroke="#1C0C03" stroke-width="0.5" stroke-miterlimit="10"/>
<path d="M242.488 112.229C242.732 114.376 244.025 116.253 245.424 117.898C247.864 120.766 250.813 123.403 250.78 127.441C250.76 129.437 250.279 131.399 250.127 133.388" stroke="#1C0C03" stroke-width="0.5" stroke-miterlimit="10"/>
<path d="M245.087 149.235C245.087 149.235 259.724 149.321 259.731 149.235L260.661 133.904H243.926C243.926 133.904 245.087 149.209 245.087 149.235Z" fill="#F8D12E"/>
<path d="M245.008 138.655C245.345 138.517 245.681 138.351 245.892 138.087C246.202 137.71 246.512 137.307 246.961 137.103C247.304 136.944 247.686 136.917 248.062 136.891C249.243 136.799 250.417 136.647 251.591 136.488C252.673 136.336 253.63 136.118 254.52 135.444C254.876 135.173 255.213 134.829 255.305 134.393C255.398 133.957 255.153 133.428 254.712 133.356C254.619 133.342 254.527 133.342 254.434 133.356C253.603 133.395 243.966 134.367 243.92 133.904C244.072 135.576 244.263 137.255 244.355 138.926C244.553 138.834 244.777 138.755 245.002 138.662L245.008 138.655Z" fill="#1C0C03"/>
<path d="M261.347 131.115L243.854 131.142C243.702 131.142 243.557 131.155 243.418 131.181V135.232C243.564 135.259 243.702 135.272 243.854 135.272L260.985 135.239L261.347 131.115Z" fill="#F8D12E"/>
<path d="M271.617 112.473C271.208 113.649 270.72 114.806 270.16 115.916" stroke="#222221" stroke-width="0.5" stroke-miterlimit="10"/>
<path d="M265.008 93.7852C264.638 95.695 264.038 97.5519 263.22 99.3163" stroke="#222221" stroke-width="0.5" stroke-miterlimit="10"/>
<path d="M262.904 100.254C262.541 100.902 262.185 101.55 261.822 102.191" stroke="#222221" stroke-width="0.5" stroke-miterlimit="10"/>
<path d="M259.573 137.433C259.507 139.316 259.401 141.193 259.25 143.07" stroke="#222221" stroke-width="0.5" stroke-miterlimit="10"/>
<path d="M259.302 143.75C259.276 144.154 259.243 144.55 259.216 144.953" stroke="#222221" stroke-width="0.5" stroke-miterlimit="10"/>
<path d="M197.989 114.436C198.385 114.912 199.137 115.031 199.658 114.7" stroke="black" stroke-width="0.5" stroke-miterlimit="10"/>
<path d="M165.977 68.7728L162.85 67.0943L159.697 68.7199L160.33 65.2241L157.811 62.7262L161.32 62.2438L162.916 59.0718L164.46 62.2702L167.962 62.8055L165.403 65.2638L165.977 68.7728Z" fill="black"/>
<path d="M254.612 38.3546C254.275 38.6189 253.965 38.9625 253.906 39.3855C253.853 39.7754 254.025 40.1587 254.275 40.4626C254.856 41.1763 255.779 41.4935 256.558 41.9892C257.593 42.65 258.398 43.6743 258.794 44.8373C259.005 45.4585 259.104 46.1193 259.401 46.7075C259.698 47.2956 260.258 47.8111 260.911 47.7979C261.479 47.7846 261.973 47.3551 262.224 46.8463C262.475 46.3374 262.514 45.7493 262.521 45.181C262.541 43.324 262.02 41.4208 261.406 39.6696C260.885 38.1894 259.242 37.4162 257.745 37.3501C256.63 37.3039 255.496 37.6673 254.618 38.3546H254.612Z" stroke="black" stroke-width="0.5" stroke-miterlimit="10"/>
<path d="M271.024 74.0723C268.511 76.405 266.004 78.7377 263.491 81.0705" stroke="black" stroke-width="0.5" stroke-miterlimit="10"/>
<path d="M266.651 80.0264C265.562 81.1432 264.421 82.2137 263.24 83.2314" stroke="black" stroke-width="0.5" stroke-miterlimit="10"/>
<path d="M203.332 72.1626C201.155 74.2706 198.979 76.3853 196.802 78.4934" stroke="black" stroke-width="0.5" stroke-miterlimit="10"/>
<path d="M199.381 78.0704C200.74 76.828 202.059 75.5526 203.339 74.2441" stroke="black" stroke-width="0.5" stroke-miterlimit="10"/>
</g>
<defs>
<clipPath id="clip0_144_4627">
<rect width="287" height="271" fill="white"/>
</clipPath>
</defs>
</svg>
