<svg width="169" height="40" viewBox="0 0 169 40" fill="none" xmlns="http://www.w3.org/2000/svg">
<g clip-path="url(#clip0_144_3892)">
<path d="M9.0864 19.4311C9.2875 19.4311 9.57611 19.4755 10.4066 20.015C10.9449 20.365 11.4557 20.7566 11.9343 21.1864L11.9089 26.1059C13.3386 26.0844 14.4725 26.093 15.2635 26.1059C16.0546 26.1188 16.8533 26.0701 17.6486 26.0608C18.1445 26.0626 18.6389 26.0076 19.1227 25.897C19.3828 25.8363 19.639 25.7593 19.8897 25.6666C19.8897 26.078 19.944 27.6079 21.0949 28.9052C21.6529 29.529 22.3635 29.9923 23.1547 30.2483C22.1572 30.6804 21.1161 31.0005 20.0499 31.2029C19.0994 31.38 18.1344 31.4652 17.1681 31.4576C15.0074 31.4705 12.4403 31.4877 9.48579 31.4869C8.80555 31.4869 8.32008 31.3438 7.94891 31.1406C7.6148 30.9553 7.31799 30.7079 7.07392 30.4115C6.64119 29.8933 6.35147 29.2682 6.23421 28.5996L6.22998 21.1191C6.72093 20.6973 7.24324 20.3146 7.79226 19.9742C8.60868 19.4698 8.89094 19.4304 9.0864 19.4311Z" fill="#651FFF"/>
<path d="M9.08628 12.2104C8.43166 12.2142 7.79781 12.4438 7.28902 12.8616L0.206543 18.0472L2.2162 20.8759C2.44369 21.1813 2.7801 21.3843 3.15337 21.4412C3.52664 21.4982 3.90706 21.4047 4.21315 21.1807L8.27268 18.2261C8.52863 18.0441 8.8359 17.9511 9.14837 17.9612C9.46084 17.9713 9.76167 18.0838 10.0057 18.2819C10.4997 18.6326 11.9977 19.7131 14.0279 21.2286C14.3257 21.421 14.6833 21.4947 15.0316 21.4355C15.3799 21.3763 15.6943 21.1884 15.914 20.9081L17.9604 18.0458L10.7586 12.7635C10.272 12.4062 9.68707 12.2127 9.08628 12.2104Z" fill="#00E5FF"/>
<path d="M6.20947 4.37637C6.28004 3.85616 6.50584 2.8465 7.31732 2.1245C7.91209 1.60446 8.67009 1.31627 9.4554 1.31161L17.2809 1.33237C20.9672 1.29659 23.3395 2.57101 24.3944 3.24578C31.3301 7.68228 30.5829 17.6723 30.5264 18.2969C30.3084 20.7299 29.4842 22.8544 29.3974 23.0669C29.0142 24.0365 28.3622 25.6479 26.9234 27.3181C26.3343 28.002 25.6771 28.6226 24.9625 29.1699C24.1307 28.9755 23.3676 28.5529 22.7567 27.9485C21.5408 26.732 21.4089 25.22 21.3863 24.8265C21.805 24.5146 22.1826 24.1495 22.5097 23.7402C22.7246 23.4641 22.919 23.172 23.0911 22.8665C25.769 18.0351 24.0367 12.3728 24.0367 12.3728C23.5674 10.8386 23.0841 9.3016 21.6375 8.13094C20.1557 6.92879 18.4868 6.74203 17.7149 6.70768L11.9075 6.67262L6.20947 6.75562V4.37637Z" fill="#651FFF"/>
<path d="M51.6929 18.9338C51.8119 19.5034 51.9091 20.1068 51.9844 20.7442L37.0086 23.9714C37.4508 25.2436 38.2505 26.1562 39.4078 26.7091C40.565 27.262 41.8723 27.3813 43.3297 27.0669C44.3361 26.8578 45.2818 26.4172 46.0937 25.7789C46.8991 25.1449 47.44 24.3671 47.7167 23.4454C48.4049 23.6534 49.858 24.0828 52.0761 24.7334C51.5746 26.5362 50.5799 28.0138 49.0919 29.1664C47.604 30.3189 45.8787 31.106 43.9161 31.5277C41.0554 32.1441 38.4394 31.6909 36.068 30.1681C33.6966 28.6454 32.1879 26.3485 31.5421 23.2773C30.898 20.2061 31.3579 17.5062 32.9216 15.1778C34.4853 12.8494 36.6974 11.3767 39.5581 10.7599C42.4178 10.1431 44.9941 10.5834 47.2869 12.0808C49.5798 13.5783 51.0484 15.8626 51.6929 18.9338ZM36.2247 20.4365L46.3202 18.2605C45.8441 16.9667 45.0797 16.0467 44.0269 15.5005C42.9741 14.9543 41.803 14.8203 40.5135 15.0984C39.1389 15.3946 38.061 16.0207 37.2796 16.9767C36.4982 17.9327 36.1466 19.0872 36.2247 20.4401V20.4365Z" fill="#651FFF"/>
<path d="M66.824 10.9302H72.1459V23.0948C72.1459 28.5331 68.049 31.9607 62.5161 31.9607C56.9832 31.9607 52.8862 28.5345 52.8862 23.0948V10.9302H58.2081V22.6225C58.2081 25.3632 59.8128 27.1621 62.5125 27.1621C65.2123 27.1621 66.824 25.3632 66.824 22.6225V10.9302Z" fill="#651FFF"/>
<path d="M73.1412 10.9302H78.4624V12.9002C80.1527 11.1871 82.3912 10.3306 85.178 10.3306C91.0489 10.3306 94.9348 15.0848 94.9348 21.2072C94.9348 27.3295 91.0489 32 85.178 32C82.6441 32 80.1101 31.2286 78.4624 29.6873V39.9284L75.781 39.9671C75.129 39.9429 74.5055 39.69 74.0169 39.2515C73.1645 38.4751 73.1067 37.439 73.0996 37.2479L73.1412 10.9302ZM84.0786 15.2988C80.6577 15.2988 78.6727 17.7395 78.6727 21.2093C78.6727 24.5925 80.7 27.034 84.0786 27.034C87.4572 27.034 89.4415 24.5925 89.4415 21.2093C89.4443 17.7395 87.4586 15.2988 84.08 15.2988H84.0786Z" fill="#651FFF"/>
<path d="M96.7364 0.894452C97.2197 0.424203 97.8506 0.141056 98.5189 0.0944519H101.227V31.3596H95.9059C95.9002 21.8249 95.8948 12.29 95.8896 2.75492C95.9398 2.05109 96.2408 1.38981 96.7364 0.894452Z" fill="#651FFF"/>
<path d="M113.095 10.2877C119.642 10.2877 124.076 15.0419 124.076 21.0805C124.076 27.205 119.642 31.9571 113.095 31.9571C106.507 31.9571 102.158 27.2029 102.158 21.0805C102.156 15.0419 106.507 10.2877 113.095 10.2877ZM113.095 15.2558C109.674 15.2558 107.562 17.6973 107.562 21.0805C107.562 24.5066 109.674 26.9911 113.095 26.9911C116.601 26.9911 118.713 24.5496 118.713 21.0805C118.713 17.6973 116.601 15.2558 113.095 15.2558Z" fill="#651FFF"/>
<path d="M133.537 10.2877C136.282 10.2877 138.52 11.1442 140.252 12.8572V10.9302H145.573V31.3596H140.252V29.3896C138.563 31.1027 136.324 31.9592 133.537 31.9592C127.751 31.9592 123.781 27.1191 123.781 21.0827C123.781 15.0462 127.751 10.2877 133.537 10.2877ZM134.636 15.2558C131.299 15.2558 129.273 17.6973 129.273 21.0805C129.273 24.5066 131.258 26.9911 134.636 26.9911C138.013 26.9911 140.041 24.5496 140.041 21.0805C140.041 17.6973 138.013 15.2558 134.636 15.2558Z" fill="#651FFF"/>
<path d="M156.299 10.2877C158.833 10.2877 161.367 11.0583 163.014 12.6004V0.0944519H168.336L168.357 28.7299C168.369 28.9066 168.432 30.1166 167.51 31.0197C167.029 31.4811 166.406 31.7592 165.746 31.8068L162.994 31.7352V29.3739C162.154 30.2101 161.16 30.8703 160.068 31.3166C158.423 31.9878 157.026 31.9606 156.299 31.9606C150.428 31.9606 146.542 27.2064 146.542 21.0841C146.542 14.9617 150.431 10.2877 156.299 10.2877ZM157.397 15.2558C154.018 15.2558 152.034 17.6973 152.034 21.0805C152.034 24.5496 154.019 26.9911 157.397 26.9911C160.818 26.9911 162.803 24.5496 162.803 21.0805C162.805 17.6973 160.778 15.2558 157.399 15.2558H157.397Z" fill="#651FFF"/>
</g>
<defs>
<clipPath id="clip0_144_3892">
<rect width="169" height="40" fill="white"/>
</clipPath>
</defs>
</svg>
